SplineFontDB: 3.0
FontName: KAN-KaveriBold
FullName: KAN Kaveri Bold
FamilyName: KAN Kaveri
Weight: Bold
Copyright: Copyright (c) 2009-2015, NLCI (http://www.nlci.in/fonts/)
Version: 1.0 Wed May 17 15:35:12 1995
ItalicAngle: 0
UnderlinePosition: -593
UnderlineWidth: 40
Ascent: 1638
Descent: 410
InvalidEm: 0
LayerCount: 2
Layer: 0 0 "Back" 1
Layer: 1 0 "Fore" 0
XUID: [1021 983 496268599 8370529]
FSType: 0
OS2Version: 0
OS2_WeightWidthSlopeOnly: 0
OS2_UseTypoMetrics: 1
CreationTime: 1250825684
ModificationTime: 1523585752
PfmFamily: 81
TTFWeight: 700
TTFWidth: 5
LineGap: 0
VLineGap: 0
Panose: 5 0 0 0 0 0 0 0 0 0
OS2TypoAscent: -147
OS2TypoAOffset: 1
OS2TypoDescent: -401
OS2TypoDOffset: 1
OS2TypoLinegap: 0
OS2WinAscent: -469
OS2WinAOffset: 1
OS2WinDescent: -211
OS2WinDOffset: 1
HheadAscent: -469
HheadAOffset: 1
HheadDescent: 211
HheadDOffset: 1
OS2SubXSize: 1434
OS2SubYSize: 1331
OS2SubXOff: 0
OS2SubYOff: 293
OS2SupXSize: 1434
OS2SupYSize: 1331
OS2SupXOff: 0
OS2SupYOff: 928
OS2StrikeYSize: 102
OS2StrikeYPos: 530
OS2Vendor: 'Alts'
OS2UnicodeRanges: 00000000.00000000.00000000.00000000
Lookup: 262 0 0 "blwm" { "blwm-2sub"  } []
MarkAttachClasses: 1
DEI: 91125
TtTable: prep
NPUSHB
 1
 1
SCANTYPE
PUSHW_1
 511
SCANCTRL
EndTTInstrs
ShortTable: maxp 16
  1
  0
  319
  188
  5
  167
  6
  2
  8
  64
  10
  0
  3
  417
  4
  2
EndShort
LangName: 1033 "" "" "Bold" "NLCI:KAN Kaveri Bold" "" "1.0 Wed May 17 15:35:12 1995"
Encoding: Original
Compacted: 1
UnicodeInterp: none
NameList: Adobe Glyph List
DisplaySize: -48
AntiAlias: 1
FitToEm: 1
WinInfo: 0 37 14
BeginPrivate: 0
EndPrivate
AnchorClass2: "Sub" "blwm-2sub" "Nukta"""  "s"""  "V""" 
BeginChars: 572 313

StartChar: .notdef
Encoding: 0 -1 0
Width: 1024
Flags: HW
LayerCount: 2
Fore
SplineSet
63 0 m 1
 63 1237 l 1
 961 1237 l 1
 961 0 l 1
 63 0 l 1
897 63 m 1
 897 1174 l 1
 127 1174 l 1
 127 63 l 1
 897 63 l 1
EndSplineSet
EndChar

StartChar: exclam
Encoding: 4 33 4
Width: 712
VWidth: 1024
Flags: HW
LayerCount: 2
Fore
SplineSet
416 436 m 0
 302 436 l 0
 186 1271 l 0
 186 1300.33333333 190.666666667 1325.66666667 200 1347 c 0
 209.333333333 1368.33333333 221.666666667 1386 237 1400 c 0
 252.333333333 1413.33333333 270.333333333 1423.66666667 291 1431 c 0
 311.666666667 1437.66666667 334 1441 358 1441 c 0
 381.333333333 1441 403.333333333 1437.66666667 424 1431 c 0
 444.666666667 1424.33333333 463 1414.33333333 479 1401 c 0
 494.333333333 1387.66666667 506.333333333 1370 515 1348 c 0
 523.666666667 1326.66666667 528 1301 528 1271 c 0
 416 436 l 0
526 146 m 0
 526 122 521.666666667 99.6666666667 513 79 c 0
 503.666666667 57.6666666667 491.333333333 39.3333333333 476 24 c 0
 460.666666667 8.66666666667 442.666666667 -3.33333333333 422 -12 c 0
 402 -20.6666666667 380.666666667 -25.3333333333 358 -26 c 0
 340.666666667 -26 322.333333333 -22.6666666667 303 -16 c 0
 283 -9.33333333333 264.666666667 0.666666666667 248 14 c 0
 230.666666667 27.3333333333 216.333333333 45.3333333333 205 68 c 0
 193.666666667 90 188 116 188 146 c 0
 188 173.333333333 193.333333333 197.666666667 204 219 c 0
 214 239.666666667 227.333333333 256.666666667 244 270 c 0
 260.666666667 283.333333333 278.666666667 294 298 302 c 0
 318 309.333333333 338 312.666666667 358 312 c 0
 377.333333333 312 397 308.333333333 417 301 c 0
 437 293.666666667 455.333333333 282.666666667 472 268 c 0
 488 253.333333333 501 236 511 216 c 0
 521 195.333333333 526 172 526 146 c 0
EndSplineSet
EndChar

StartChar: quotedbl
Encoding: 5 34 5
Width: 821
VWidth: 1024
Flags: HW
LayerCount: 2
Fore
SplineSet
577 874 m 0
 495 1365 l 0
 495 1403.66666667 504.333333333 1435.33333333 523 1460 c 0
 541.666666667 1484.66666667 572 1497 614 1497 c 0
 657.333333333 1497 689 1484.66666667 709 1460 c 0
 729 1435.33333333 738.666666667 1403.66666667 738 1365 c 0
 654 874 l 0
 577 874 l 0
166 874 m 0
 84 1365 l 0
 84 1403.66666667 93.3333333333 1435.33333333 112 1460 c 0
 130.666666667 1484.66666667 161.333333333 1497 204 1497 c 0
 246 1497 276.666666667 1484.66666667 296 1460 c 0
 315.333333333 1435.33333333 325 1403.66666667 325 1365 c 0
 244 874 l 0
 166 874 l 0
EndSplineSet
EndChar

StartChar: numbersign
Encoding: 6 35 6
Width: 1554
VWidth: 1024
Flags: HW
LayerCount: 2
Fore
SplineSet
1105 868 m 0
 1015 592 l 0
 1340 592 l 0
 1340 460 l 0
 969 460 l 0
 810 -50 l 0
 665 -14 l 0
 820 460 l 0
 558 460 l 0
 394 -50 l 0
 254 -12 l 0
 411 460 l 0
 130 460 l 0
 130 592 l 0
 453 592 l 0
 543 868 l 0
 232 868 l 0
 232 1007 l 0
 587 1007 l 0
 749 1489 l 0
 889 1451 l 0
 734 1007 l 0
 1007 1007 l 0
 1162 1489 l 0
 1307 1449 l 0
 1149 1007 l 0
 1424 1007 l 0
 1424 868 l 0
 1105 868 l 0
694 868 m 0
 602 592 l 0
 862 592 l 0
 958 868 l 0
 694 868 l 0
EndSplineSet
EndChar

StartChar: dollar
Encoding: 7 36 7
Width: 1230
VWidth: 1024
Flags: HW
LayerCount: 2
Fore
SplineSet
1120 430 m 0
 1120 370 1109 315.666666667 1087 267 c 0
 1065 218.333333333 1033.66666667 176 993 140 c 0
 953 104 905 74.3333333333 849 51 c 0
 793.666666667 27.6666666667 733 11.3333333333 667 2 c 0
 667 -214 l 0
 543 -214 l 0
 543 0 l 0
 494.333333333 2 445 6 395 12 c 0
 351.666666667 17.3333333333 305.333333333 24.6666666667 256 34 c 0
 206 42.6666666667 158.666666667 54.6666666667 114 70 c 0
 114 432 l 0
 262 432 l 0
 306 186 l 0
 328 172.666666667 352.666666667 162.333333333 380 155 c 0
 407.333333333 147.666666667 433 142 457 138 c 0
 485 134 513.666666667 131.333333333 543 130 c 0
 543 592 l 0
 517 599.333333333 488.666666667 608 458 618 c 0
 427.333333333 628 396.333333333 640.333333333 365 655 c 0
 333.666666667 669.666666667 303.666666667 687 275 707 c 0
 246.333333333 727 221 751 199 779 c 0
 177 806.333333333 159.333333333 838.333333333 146 875 c 0
 132.666666667 911.666666667 126 953.333333333 126 1000 c 0
 126 1048 132 1090.33333333 144 1127 c 0
 156 1163.66666667 171.666666667 1196.33333333 191 1225 c 0
 210.333333333 1253 232.666666667 1276.66666667 258 1296 c 0
 282.666666667 1315.33333333 308 1331.66666667 334 1345 c 0
 395.333333333 1375.66666667 465 1394.33333333 543 1401 c 0
 543 1556 l 0
 667 1556 l 0
 667 1401 l 0
 710.333333333 1401 754 1397.66666667 798 1391 c 0
 842.666666667 1384.33333333 883.666666667 1377.33333333 921 1370 c 0
 964.333333333 1361.33333333 1006.33333333 1351.33333333 1047 1340 c 0
 1047 990 l 0
 902 990 l 0
 862 1223 l 0
 860.666666667 1227.66666667 851.333333333 1233 834 1239 c 0
 816.666666667 1245 797 1250.33333333 775 1255 c 0
 753 1260.33333333 731.333333333 1264.66666667 710 1268 c 0
 689.333333333 1271.33333333 675 1273 667 1273 c 0
 667 841 l 0
 690.333333333 835 717.666666667 827.333333333 749 818 c 0
 780.333333333 808.666666667 812.666666667 797 846 783 c 0
 879.333333333 769 912.333333333 752 945 732 c 0
 977.666666667 712 1007 687.666666667 1033 659 c 0
 1059 631 1080 598 1096 560 c 0
 1112 522.666666667 1120 479.333333333 1120 430 c 0
543 1267 m 0
 515 1263 489.666666667 1253.66666667 467 1239 c 0
 447.666666667 1226.33333333 430.333333333 1207.33333333 415 1182 c 0
 399.666666667 1156.66666667 392 1121.33333333 392 1076 c 0
 392 1032.66666667 399.666666667 998 415 972 c 0
 430.333333333 945.333333333 447.666666667 924.333333333 467 909 c 0
 489.666666667 891 515 878 543 870 c 0
 543 1267 l 0
854 354 m 0
 854 388.666666667 847.666666667 418 835 442 c 0
 822.333333333 466 806.333333333 486 787 502 c 0
 768.333333333 518 748 530.333333333 726 539 c 0
 704 548.333333333 684.333333333 555.333333333 667 560 c 0
 667 136 l 0
 701.666666667 140.666666667 732.666666667 151.666666667 760 169 c 0
 771.333333333 175.666666667 782.666666667 184.666666667 794 196 c 0
 805.333333333 206.666666667 815.333333333 219.333333333 824 234 c 0
 832.666666667 248.666666667 840 266 846 286 c 0
 851.333333333 305.333333333 854 328 854 354 c 0
EndSplineSet
EndChar

StartChar: percent
Encoding: 8 37 8
Width: 1873
VWidth: 1024
Flags: HW
LayerCount: 2
Fore
SplineSet
1815 404 m 0
 1815 336 1807 275 1791 221 c 0
 1775.66666667 167 1753 121 1723 83 c 0
 1693 45 1655.66666667 16 1611 -4 c 0
 1565.66666667 -24 1513 -34 1453 -34 c 0
 1393.66666667 -34 1341.66666667 -24 1297 -4 c 0
 1252.33333333 16 1215 45 1185 83 c 0
 1155 121 1133 167 1119 221 c 0
 1104.33333333 275 1097 336 1097 404 c 0
 1097 472 1104.33333333 533.333333333 1119 588 c 0
 1133.66666667 642 1155.66666667 688 1185 726 c 0
 1215 763.333333333 1252.33333333 792.333333333 1297 813 c 0
 1341.66666667 833 1393.66666667 843 1453 843 c 0
 1513 843 1565.66666667 833 1611 813 c 0
 1656.33333333 793 1693.66666667 764 1723 726 c 0
 1753 688.666666667 1775.66666667 642.666666667 1791 588 c 0
 1807 533.333333333 1815 472 1815 404 c 0
577 0 m 0
 428 0 l 0
 1298 1407 l 0
 1449 1407 l 0
 577 0 l 0
780 1002 m 0
 780 934 772.666666667 873 758 819 c 0
 742.666666667 765 720.333333333 718.666666667 691 680 c 0
 661 642 623.666666667 613 579 593 c 0
 533.666666667 572.333333333 481.333333333 562 422 562 c 0
 362 562 309.333333333 572.333333333 264 593 c 0
 218.666666667 613.666666667 181 642.666666667 151 680 c 0
 120.333333333 718 97.6666666667 764.333333333 83 819 c 0
 67.6666666667 873 60 934 60 1002 c 0
 60 1070 67.6666666667 1131.33333333 83 1186 c 0
 98.3333333333 1240 121 1286 151 1324 c 0
 181.666666667 1362 219.333333333 1391 264 1411 c 0
 309.333333333 1431 362 1441 422 1441 c 0
 481.333333333 1441 533.666666667 1431 579 1411 c 0
 624.333333333 1391 661.666666667 1362 691 1324 c 0
 721 1286 743.333333333 1240 758 1186 c 0
 772.666666667 1131.33333333 780 1070 780 1002 c 0
1585 404 m 0
 1585 468 1581.66666667 522 1575 566 c 0
 1568.33333333 610 1559.33333333 645 1548 671 c 0
 1536.66666667 697 1522.66666667 716 1506 728 c 0
 1489.33333333 739.333333333 1471.66666667 744.666666667 1453 744 c 0
 1434.33333333 744 1416.33333333 738.666666667 1399 728 c 0
 1381.66666667 716.666666667 1366.66666667 697.666666667 1354 671 c 0
 1341.33333333 645 1330.66666667 610 1322 566 c 0
 1314 522 1310.33333333 468 1311 404 c 0
 1311 339.333333333 1314.66666667 285.333333333 1322 242 c 0
 1330 198.666666667 1340.66666667 164 1354 138 c 0
 1366.66666667 112 1381.66666667 93 1399 81 c 0
 1416.33333333 69.6666666667 1434.33333333 64.3333333333 1453 65 c 0
 1472.33333333 65 1490 70.3333333333 1506 81 c 0
 1522.66666667 92.3333333333 1536.66666667 111.333333333 1548 138 c 0
 1559.33333333 164 1568.33333333 198.666666667 1575 242 c 0
 1581.66666667 285.333333333 1585 339.333333333 1585 404 c 0
554 1002 m 0
 554 1066 550.666666667 1120 544 1164 c 0
 537.333333333 1208 528 1243 516 1269 c 0
 504.666666667 1295 490.666666667 1314 474 1326 c 0
 457.333333333 1337.33333333 440 1342.66666667 422 1342 c 0
 402 1342 383.333333333 1336.66666667 366 1326 c 0
 348 1314.66666667 332 1295.66666667 318 1269 c 0
 304 1243 293 1208 285 1164 c 0
 277 1120 272.666666667 1066 272 1002 c 0
 272 937.333333333 276.333333333 883.333333333 285 840 c 0
 293 796 304 760.666666667 318 734 c 0
 332 707.333333333 348 688.333333333 366 677 c 0
 384 665.666666667 402.666666667 660 422 660 c 0
 440.666666667 660 458 665.666666667 474 677 c 0
 490.666666667 688.333333333 504.666666667 707.333333333 516 734 c 0
 527.333333333 760.666666667 536.666666667 796 544 840 c 0
 550.666666667 883.333333333 554 937.333333333 554 1002 c 0
EndSplineSet
EndChar

StartChar: ampersand
Encoding: 9 38 9
Width: 1540
VWidth: 1024
Flags: HW
LayerCount: 2
Fore
SplineSet
791 1101 m 0
 791 1129.66666667 787 1156.66666667 779 1182 c 0
 771.666666667 1207.33333333 760.666666667 1229.33333333 746 1248 c 0
 731.333333333 1266.66666667 714 1281.33333333 694 1292 c 0
 673.333333333 1302.66666667 650.333333333 1308.33333333 625 1309 c 0
 601 1309 578.666666667 1304.66666667 558 1296 c 0
 537.333333333 1288 519.666666667 1277 505 1263 c 0
 489.666666667 1248.33333333 478 1231 470 1211 c 0
 461.333333333 1191 457 1169 457 1145 c 0
 457 1121.66666667 460.333333333 1098.66666667 467 1076 c 0
 474.333333333 1053.33333333 486 1029.66666667 502 1005 c 0
 518 980.333333333 538.666666667 954 564 926 c 0
 589.333333333 898 620 867.666666667 656 835 c 0
 677.333333333 854.333333333 696.333333333 873.333333333 713 892 c 0
 729.666666667 911.333333333 744 931.333333333 756 952 c 0
 767.333333333 972.666666667 776 995 782 1019 c 0
 788 1043.66666667 791 1071 791 1101 c 0
462 673 m 0
 442.666666667 660.333333333 426 645 412 627 c 0
 400 611 388.666666667 591 378 567 c 0
 368 543 362.666666667 514.666666667 362 482 c 0
 362 422.666666667 371.333333333 372.333333333 390 331 c 0
 408 289.666666667 431.666666667 255.666666667 461 229 c 0
 490.333333333 203 523.333333333 184.333333333 560 173 c 0
 596.666666667 161.666666667 633.666666667 156 671 156 c 0
 706.333333333 156 736.666666667 160 762 168 c 0
 787.333333333 176.666666667 808.666666667 186.333333333 826 197 c 0
 846 209 863 223 877 239 c 0
 462 673 l 0
1051 0 m 0
 1051 50 l 0
 963 148 l 0
 930.333333333 115.333333333 892.333333333 86.3333333333 849 61 c 0
 830.333333333 50.3333333333 809.666666667 39.6666666667 787 29 c 0
 764.333333333 18.3333333333 740 9 714 1 c 0
 687.333333333 -7 658.666666667 -13.3333333333 628 -18 c 0
 597.333333333 -22.6666666667 565.333333333 -25.3333333333 532 -26 c 0
 464.666666667 -26 403.333333333 -16 348 4 c 0
 292.666666667 24 245 52 205 88 c 0
 165.666666667 124 135 167 113 217 c 0
 91 267.666666667 80 324 80 386 c 0
 80 436 87 480 101 518 c 0
 115 556 135 590 161 620 c 0
 187 649.333333333 218 674 254 694 c 0
 290 714.666666667 330 732 374 746 c 0
 372 747.333333333 366.333333333 751.666666667 357 759 c 0
 347 766.333333333 335 776.666666667 321 790 c 0
 306.333333333 803.333333333 290.666666667 819.333333333 274 838 c 0
 257.333333333 856.666666667 242.333333333 878.333333333 229 903 c 0
 215 927 203.333333333 953.666666667 194 983 c 0
 184.666666667 1012.33333333 180 1044 180 1078 c 0
 180 1136 192.333333333 1187.33333333 217 1232 c 0
 241 1276.66666667 273.666666667 1313.66666667 315 1343 c 0
 356.333333333 1373 404.666666667 1396 460 1412 c 0
 515.333333333 1427.33333333 574 1435 636 1435 c 0
 663.333333333 1435 692.333333333 1432.66666667 723 1428 c 0
 754.333333333 1424 785.333333333 1417 816 1407 c 0
 846.666666667 1397 876.333333333 1383.66666667 905 1367 c 0
 933 1350.33333333 957.666666667 1330 979 1306 c 0
 1000.33333333 1282 1017.66666667 1253.33333333 1031 1220 c 0
 1043.66666667 1186.66666667 1050.33333333 1148.33333333 1051 1105 c 0
 1051 1057.66666667 1043.66666667 1016.66666667 1029 982 c 0
 1014.33333333 947.333333333 996.333333333 917 975 891 c 0
 953 865.666666667 929 844.666666667 903 828 c 0
 877 811.333333333 852.333333333 798 829 788 c 0
 805.666666667 778 785.666666667 770.666666667 769 766 c 0
 751.666666667 761.333333333 740.666666667 759 736 759 c 0
 1059 424 l 0
 1075.66666667 445.333333333 1091 468.333333333 1105 493 c 0
 1117 514.333333333 1129.33333333 539 1142 567 c 0
 1154 595 1163.33333333 625.333333333 1170 658 c 0
 1170.66666667 664 1168.33333333 671.333333333 1163 680 c 0
 1157.66666667 688 1153 692.666666667 1149 694 c 0
 1040 713 l 0
 1040 812 l 0
 1481 812 l 0
 1481 713 l 0
 1336 684 l 0
 1318.66666667 628.666666667 1299 579.666666667 1277 537 c 0
 1254.33333333 493.666666667 1233 457 1213 427 c 0
 1189 392.333333333 1165 362 1141 336 c 0
 1338 124 l 0
 1508 106 l 0
 1508 0 l 0
 1051 0 l 0
EndSplineSet
EndChar

StartChar: quotesingle
Encoding: 10 39 10
Width: 368
VWidth: 1024
Flags: HW
LayerCount: 2
Fore
SplineSet
146 874 m 0
 65 1365 l 0
 65 1403.66666667 74 1435.33333333 92 1460 c 0
 110.666666667 1484.66666667 141.333333333 1497 184 1497 c 0
 226 1497 257 1484.66666667 277 1460 c 0
 296.333333333 1435.33333333 306 1403.66666667 306 1365 c 0
 222 874 l 0
 146 874 l 0
EndSplineSet
EndChar

StartChar: parenleft
Encoding: 11 40 11
Width: 821
VWidth: 1024
Flags: HW
LayerCount: 2
Fore
SplineSet
751 -298 m 0
 647.666666667 -295.333333333 557 -272.333333333 479 -229 c 0
 401 -185.666666667 335.666666667 -125.333333333 283 -48 c 0
 230.333333333 30 190.666666667 123.666666667 164 233 c 0
 137.333333333 343 124 466.666666667 124 604 c 0
 124 740.666666667 137.333333333 863.666666667 164 973 c 0
 190.666666667 1082.33333333 230.333333333 1176 283 1254 c 0
 335.666666667 1331.33333333 401 1391.33333333 479 1434 c 0
 557 1476.66666667 647.666666667 1499.66666667 751 1503 c 0
 751 1391 l 0
 677 1381 616.666666667 1354.33333333 570 1311 c 0
 523.333333333 1268.33333333 486.666666667 1212.66666667 460 1144 c 0
 433.333333333 1075.33333333 415 995 405 903 c 0
 395 811 390 711.333333333 390 604 c 0
 390 496 395 396.333333333 405 305 c 0
 415 213 433.333333333 132.333333333 460 63 c 0
 486.666666667 -5.66666666667 523.333333333 -61.3333333333 570 -104 c 0
 616.666666667 -147.333333333 677 -174 751 -184 c 0
 751 -298 l 0
EndSplineSet
EndChar

StartChar: parenright
Encoding: 12 41 12
Width: 821
VWidth: 1024
Flags: HW
LayerCount: 2
Fore
SplineSet
698 604 m 0
 698 466.666666667 684.666666667 343 658 233 c 0
 631.333333333 123 591.666666667 29.3333333333 539 -48 c 0
 486.333333333 -126 421 -186.333333333 343 -229 c 0
 265 -272.333333333 174.666666667 -295.333333333 72 -298 c 0
 72 -184 l 0
 145.333333333 -174 205 -147.333333333 251 -104 c 0
 297.666666667 -60.6666666667 334.333333333 -5 361 63 c 0
 387.666666667 131.666666667 406.333333333 212.333333333 417 305 c 0
 427 397 432 496.666666667 432 604 c 0
 432 711.333333333 427 811 417 903 c 0
 407 995 388.333333333 1075.33333333 361 1144 c 0
 334.333333333 1212.66666667 297.666666667 1268.33333333 251 1311 c 0
 204.333333333 1353.66666667 144.666666667 1380.33333333 72 1391 c 0
 72 1503 l 0
 174.666666667 1499.66666667 265 1476.66666667 343 1434 c 0
 421 1391.33333333 486.333333333 1331.33333333 539 1254 c 0
 591.666666667 1176.66666667 631.333333333 1083 658 973 c 0
 684.666666667 863.666666667 698 740.666666667 698 604 c 0
EndSplineSet
EndChar

StartChar: asterisk
Encoding: 13 42 13
Width: 1048
VWidth: 1024
Flags: HW
LayerCount: 2
Fore
SplineSet
845 1061 m 0
 574 1063 l 0
 560 1095 l 0
 782 1258 l 0
 937 1197 l 0
 845 1061 l 0
541 1118 m 0
 506 1118 l 0
 420 1380 l 0
 524 1505 l 0
 629 1380 l 0
 541 1118 l 0
780 709 m 0
 621 751 l 0
 537 1011 l 0
 562 1036 l 0
 786 872 l 0
 780 709 l 0
474 1063 m 0
 202 1061 l 0
 112 1197 l 0
 262 1258 l 0
 486 1093 l 0
 474 1063 l 0
428 751 m 0
 268 709 l 0
 262 872 l 0
 486 1036 l 0
 512 1011 l 0
 428 751 l 0
EndSplineSet
EndChar

StartChar: plus
Encoding: 14 43 14
Width: 2097
VWidth: 1024
Flags: HW
LayerCount: 2
Fore
SplineSet
1113 564 m 0
 1113 0 l 0
 984 0 l 0
 984 564 l 0
 420 564 l 0
 420 694 l 0
 984 694 l 0
 984 1258 l 0
 1113 1258 l 0
 1113 694 l 0
 1677 694 l 0
 1677 564 l 0
 1113 564 l 0
EndSplineSet
EndChar

StartChar: comma
Encoding: 15 44 15
Width: 665
VWidth: 1024
Flags: HW
LayerCount: 2
Fore
SplineSet
508 124 m 0
 508 80 501.666666667 38 489 -2 c 0
 477 -42 460.666666667 -80 440 -116 c 0
 419.333333333 -152 394.666666667 -185 366 -215 c 0
 338 -245 307.666666667 -270.666666667 275 -292 c 0
 243 -314 210 -332 176 -346 c 0
 141.333333333 -359.333333333 107.333333333 -367 74 -369 c 0
 74 -266 l 0
 100.666666667 -262 129 -254.333333333 159 -243 c 0
 189.666666667 -231.666666667 217.666666667 -215.333333333 243 -194 c 0
 268.333333333 -172 288.666666667 -144 304 -110 c 0
 320 -76 327 -34.6666666667 325 14 c 0
 198 14 l 0
 185.333333333 24 174.666666667 35 166 47 c 0
 158 58.3333333333 151.333333333 69.6666666667 146 81 c 0
 140.666666667 92.3333333333 137 104 135 116 c 0
 133 127.333333333 132 138 132 148 c 0
 132 174.666666667 137 199 147 221 c 0
 157 242.333333333 170 260.666666667 186 276 c 0
 202.666666667 291.333333333 221.666666667 303.333333333 243 312 c 0
 264.333333333 320.666666667 286 325 308 325 c 0
 371.333333333 325 420.666666667 306.666666667 456 270 c 0
 490.666666667 234 508 185.333333333 508 124 c 0
EndSplineSet
EndChar

StartChar: hyphen
Encoding: 16 45 16
Width: 688
VWidth: 1024
Flags: HW
LayerCount: 2
Fore
SplineSet
70 394 m 0
 70 616 l 0
 618 616 l 0
 618 394 l 0
 70 394 l 0
EndSplineSet
EndChar

StartChar: period
Encoding: 17 46 17
Width: 665
VWidth: 1024
Flags: HW
LayerCount: 2
Fore
SplineSet
482 148 m 0
 482 124 477.666666667 101.666666667 469 81 c 0
 460.333333333 59.6666666667 448 41.3333333333 432 26 c 0
 416 10 397.666666667 -2.66666666667 377 -12 c 0
 355.666666667 -21.3333333333 332.666666667 -26 308 -26 c 0
 284 -26 261.333333333 -21.3333333333 240 -12 c 0
 218.666666667 -2.66666666667 200 10 184 26 c 0
 168 42 155.333333333 60.3333333333 146 81 c 0
 136.666666667 102.333333333 132 124.666666667 132 148 c 0
 132 172.666666667 136.666666667 195.666666667 146 217 c 0
 155.333333333 238.333333333 168 257 184 273 c 0
 200 289 218.666666667 301.666666667 240 311 c 0
 261.333333333 320.333333333 284 325 308 325 c 0
 332.666666667 325 355.666666667 320.333333333 377 311 c 0
 398.333333333 301.666666667 416.666666667 289 432 273 c 0
 448 257 460.333333333 238.333333333 469 217 c 0
 477.666666667 195.666666667 482 172.666666667 482 148 c 0
EndSplineSet
EndChar

StartChar: slash
Encoding: 18 47 18
Width: 1050
VWidth: 1024
Flags: HW
LayerCount: 2
Fore
SplineSet
164 -195 m 0
 0 -195 l 0
 885 1407 l 0
 1051 1407 l 0
 164 -195 l 0
EndSplineSet
EndChar

StartChar: zero
Encoding: 19 48 19
Width: 1622
VWidth: 1024
Flags: HW
LayerCount: 2
Fore
SplineSet
1368 322 m 0
 1368 1081 l 0
 1368 1103 1359.33333333 1122.66666667 1342 1140 c 0
 1324.66666667 1157.33333333 1302 1165.66666667 1274 1165 c 0
 1057 1165 l 0
 1025.66666667 1165 1007.33333333 1164.66666667 1002 1164 c 0
 997.333333333 1163.33333333 989 1157 977 1145 c 0
 956.333333333 1120.33333333 946 1099.66666667 946 1083 c 0
 946 315 l 0
 946 293 957.333333333 274.666666667 980 260 c 0
 1002.66666667 244.666666667 1029 237.333333333 1059 238 c 0
 1276 238 l 0
 1298 238 1319.66666667 247.333333333 1341 266 c 0
 1357.66666667 286.666666667 1366.66666667 305.333333333 1368 322 c 0
1645 254 m 0
 1645 208.666666667 1630.66666667 167 1602 129 c 0
 1586.66666667 111 1570 94.3333333333 1552 79 c 0
 1534 63 1515.66666667 50.3333333333 1497 41 c 0
 1443.66666667 16.3333333333 1393.33333333 4 1346 4 c 0
 969 6 l 0
 885.666666667 6 815.333333333 35.3333333333 758 94 c 0
 698 147.333333333 668 215 668 297 c 0
 668 1153 l 0
 668 1219.66666667 700 1278.33333333 764 1329 c 0
 830.666666667 1374.33333333 908.333333333 1397 997 1397 c 0
 1329 1397 l 0
 1421.66666667 1397 1496.66666667 1368.33333333 1554 1311 c 0
 1584 1285 1606.66666667 1254 1622 1218 c 0
 1637.33333333 1182 1645 1142 1645 1098 c 0
 1645 254 l 0
EndSplineSet
EndChar

StartChar: one
Encoding: 20 49 20
Width: 1622
VWidth: 1024
Flags: HW
LayerCount: 2
Fore
SplineSet
1645 0 m 0
 838 0 l 0
 838 231 l 0
 1104 231 l 0
 1104 1096 l 0
 1104 1118 1101 1133.66666667 1095 1143 c 0
 1089 1152.33333333 1080.33333333 1158.33333333 1069 1161 c 0
 840 1161 l 0
 840 1393 l 0
 1112 1393 l 0
 1190 1393 1252.66666667 1369 1300 1321 c 0
 1354.66666667 1271.66666667 1382 1213.66666667 1382 1147 c 0
 1382 227 l 0
 1645 227 l 0
 1645 0 l 0
EndSplineSet
EndChar

StartChar: two
Encoding: 21 50 21
Width: 1622
VWidth: 1024
Flags: HW
LayerCount: 2
Fore
SplineSet
1645 0 m 0
 637 0 l 0
 637 512 l 0
 637 552.666666667 644.333333333 587.666666667 659 617 c 0
 674.333333333 646.333333333 699.666666667 672 735 694 c 0
 803 744.666666667 881.666666667 770 971 770 c 0
 1296 770 l 0
 1308 770 1322.33333333 780.333333333 1339 801 c 0
 1351 823 1357.33333333 846.666666667 1358 872 c 0
 1358 1112 l 0
 1358 1122.66666667 1354.66666667 1133.66666667 1348 1145 c 0
 1341.33333333 1150.33333333 1329.66666667 1153 1313 1153 c 0
 989 1153 l 0
 960.333333333 1153 938 1148.33333333 922 1139 c 0
 912.666666667 1136.33333333 907.666666667 1127.33333333 907 1112 c 0
 907 911 l 0
 633 911 l 0
 633 1178 l 0
 633 1240.66666667 660 1291 714 1329 c 0
 768 1367 833.666666667 1386 911 1386 c 0
 1352 1386 l 0
 1431.33333333 1386 1498 1363.66666667 1552 1319 c 0
 1606.66666667 1269.66666667 1634 1211 1634 1143 c 0
 1634 856 l 0
 1634 798.666666667 1621 745.333333333 1595 696 c 0
 1578.33333333 667.333333333 1562.33333333 644.333333333 1547 627 c 0
 1531 609 1512.33333333 594 1491 582 c 0
 1441.66666667 552 1391.66666667 537 1341 537 c 0
 993 537 l 0
 959 537 936 534 924 528 c 0
 913 524 l 0
 913 229 l 0
 1647 229 l 0
 1645 0 l 0
EndSplineSet
EndChar

StartChar: three
Encoding: 22 51 22
Width: 1622
VWidth: 1024
Flags: HW
LayerCount: 2
Fore
SplineSet
1645 238 m 0
 1645 174 1618 118.666666667 1564 72 c 0
 1510 25.3333333333 1448 2 1378 2 c 0
 940 4 l 0
 860.666666667 4 791 23 731 61 c 0
 672.333333333 101.666666667 643 151.666666667 643 211 c 0
 643 420 l 0
 918 420 l 0
 918 295 l 0
 918 278.333333333 925 264 939 252 c 0
 953.666666667 240 973.666666667 233.666666667 999 233 c 0
 1276 233 l 0
 1300.66666667 233 1322.33333333 240 1341 254 c 0
 1360.33333333 267.333333333 1370 286.333333333 1370 311 c 0
 1370 537 l 0
 1370 557.666666667 1362 578 1346 598 c 0
 1329.33333333 613.333333333 1306.66666667 621 1278 621 c 0
 1169 621 l 0
 1169 852 l 0
 1260 852 l 0
 1286 852 1311.66666667 859.333333333 1337 874 c 0
 1357.66666667 880.666666667 1368 889 1368 899 c 0
 1368 1090 l 0
 1368 1109.33333333 1362 1127 1350 1143 c 0
 1339.33333333 1152.33333333 1324.33333333 1157 1305 1157 c 0
 999 1157 l 0
 973 1157 952 1152.33333333 936 1143 c 0
 925.333333333 1133.66666667 920 1119.33333333 920 1100 c 0
 920 995 l 0
 645 995 l 0
 645 1210 l 0
 645 1264.66666667 671.666666667 1308 725 1340 c 0
 778.333333333 1372 844.666666667 1388.33333333 924 1389 c 0
 1382 1389 l 0
 1458.66666667 1389 1522.66666667 1365 1574 1317 c 0
 1625.33333333 1269 1651 1211 1651 1143 c 0
 1651 938 l 0
 1651 898.666666667 1633.66666667 857 1599 813 c 0
 1589.66666667 802.333333333 1576.66666667 790.666666667 1560 778 c 0
 1542.66666667 766 1524.33333333 754.333333333 1505 743 c 0
 1544.33333333 723.666666667 1574.33333333 700 1595 672 c 0
 1630.33333333 624 1648.33333333 574.666666667 1649 524 c 0
 1645 238 l 0
EndSplineSet
EndChar

StartChar: four
Encoding: 23 52 23
Width: 1622
VWidth: 1024
Flags: HW
LayerCount: 2
Fore
SplineSet
1645 326 m 0
 1442 326 l 0
 1442 0 l 0
 1165 0 l 0
 1165 326 l 0
 791 326 l 0
 727 326 671 343.666666667 623 379 c 0
 597 395.666666667 578.333333333 414.666666667 567 436 c 0
 556.333333333 458 551 482 551 508 c 0
 551 554.666666667 566 618.666666667 596 700 c 0
 848 1391 l 0
 1128 1391 l 0
 854 678 l 0
 834.666666667 623.333333333 825 585 825 563 c 0
 823 555 l 0
 1169 555 l 0
 1169 1395 l 0
 1446 1395 l 0
 1446 555 l 0
 1649 555 l 0
 1645 326 l 0
EndSplineSet
EndChar

StartChar: five
Encoding: 24 53 24
Width: 1622
VWidth: 1024
Flags: HW
LayerCount: 2
Fore
SplineSet
1645 238 m 0
 1645 174 1621 118.666666667 1573 72 c 0
 1525 25.3333333333 1469 2 1405 2 c 0
 801 2 l 0
 741 2 688.666666667 21.6666666667 644 61 c 0
 599.333333333 100.333333333 577.333333333 147 578 201 c 0
 578 446 l 0
 854 446 l 0
 852 287 l 0
 854.666666667 266.333333333 859.333333333 254.666666667 866 252 c 0
 886.666666667 241.333333333 903 236 915 236 c 0
 1325 236 l 0
 1331.66666667 236 1340 241.333333333 1350 252 c 0
 1359.33333333 270 1364 289.666666667 1364 311 c 0
 1364 616 l 0
 1364 636.666666667 1337.33333333 647 1284 647 c 0
 571 647 l 0
 571 1395 l 0
 1612 1395 l 0
 1612 1163 l 0
 850 1163 l 0
 850 883 l 0
 1356 883 l 0
 1438 883 1506 859 1560 811 c 0
 1614 763 1640.66666667 704.333333333 1640 635 c 0
 1645 238 l 0
EndSplineSet
EndChar

StartChar: six
Encoding: 25 54 25
Width: 1622
VWidth: 1024
Flags: HW
LayerCount: 2
Fore
SplineSet
1370 317 m 0
 1370 586 l 0
 1370 602.666666667 1360 618 1340 632 c 0
 1320 646.666666667 1294.66666667 653.666666667 1264 653 c 0
 887 653 l 0
 887 340 l 0
 887 311.333333333 899.333333333 287 924 267 c 0
 948.666666667 247 973.666666667 237.333333333 999 238 c 0
 1262 238 l 0
 1290.66666667 238 1315.66666667 245.666666667 1337 261 c 0
 1359 276.333333333 1370 295 1370 317 c 0
1645 266 m 0
 1645 192 1617.66666667 130.666666667 1563 82 c 0
 1537 60 1505.66666667 41.6666666667 1469 27 c 0
 1433 11.6666666667 1397.33333333 4 1362 4 c 0
 922 6 l 0
 838.666666667 6 765.333333333 29 702 75 c 0
 639.333333333 121 608 176 608 240 c 0
 608 1153 l 0
 608 1219.66666667 639.333333333 1278.33333333 702 1329 c 0
 764.666666667 1374.33333333 838 1397 922 1397 c 0
 1591 1397 l 0
 1591 1165 l 0
 971 1165 l 0
 942.333333333 1165 920.666666667 1159 906 1147 c 0
 891.333333333 1135 884.333333333 1118.66666667 885 1098 c 0
 885 887 l 0
 1331 887 l 0
 1423.66666667 887 1499.66666667 861.333333333 1559 810 c 0
 1617.66666667 758.666666667 1647 696.333333333 1647 623 c 0
 1645 266 l 0
EndSplineSet
EndChar

StartChar: seven
Encoding: 26 55 26
Width: 1622
VWidth: 1024
Flags: HW
LayerCount: 2
Fore
SplineSet
1642 1133 m 0
 1124 0 l 0
 844 0 l 0
 1368 1143 l 0
 1360 1159 l 0
 1354.66666667 1161.66666667 1344.33333333 1163 1329 1163 c 0
 872 1163 l 0
 872 1030 l 0
 596 1030 l 0
 596 1397 l 0
 1380 1397 l 0
 1456.66666667 1397 1519.66666667 1371.66666667 1569 1321 c 0
 1619 1272.33333333 1643.33333333 1209.66666667 1642 1133 c 0
EndSplineSet
EndChar

StartChar: eight
Encoding: 27 56 27
Width: 1622
VWidth: 1024
Flags: HW
LayerCount: 2
Fore
SplineSet
1370 311 m 0
 1370 334 l 0
 1370 378 1349.66666667 412 1309 436 c 0
 1155 553 l 0
 965 436 l 0
 935 414 920 393.666666667 920 375 c 0
 920 295 l 0
 920 278.333333333 927.666666667 264 943 252 c 0
 959 240 982 233.666666667 1012 233 c 0
 1278 233 l 0
 1302.66666667 233 1324.33333333 240 1343 254 c 0
 1362.33333333 267.333333333 1371.33333333 286.333333333 1370 311 c 0
1370 1108 m 0
 1370 1124.66666667 1365.33333333 1139 1356 1151 c 0
 1346.66666667 1157.66666667 1335.66666667 1161 1323 1161 c 0
 979 1161 l 0
 957 1161 940 1159.66666667 928 1157 c 0
 920 1149 l 0
 920 1108.33333333 926 1082.33333333 938 1071 c 0
 1149 905 l 0
 1337 1044 l 0
 1359 1054 1370 1075.33333333 1370 1108 c 0
1645 201 m 0
 1645 147.666666667 1618.33333333 100.333333333 1565 59 c 0
 1510.33333333 21 1448 2 1378 2 c 0
 940 4 l 0
 860.666666667 4 791 23 731 61 c 0
 672.333333333 101.666666667 643 151.666666667 643 211 c 0
 643 455 l 0
 643 486.333333333 672.333333333 527.333333333 731 578 c 0
 965 739 l 0
 762 893 l 0
 682.666666667 967 643 1023.66666667 643 1063 c 0
 643 1208 l 0
 643 1262.66666667 669.666666667 1306 723 1338 c 0
 776.333333333 1370 842.666666667 1386 922 1386 c 0
 1380 1386 l 0
 1454 1386 1515.66666667 1370.33333333 1565 1339 c 0
 1619.66666667 1307.66666667 1647 1264.66666667 1647 1210 c 0
 1647 1008 l 0
 1647 958.666666667 1614.66666667 913.333333333 1550 872 c 0
 1313 713 l 0
 1475 623 l 0
 1589.66666667 537 1647 468.666666667 1647 418 c 0
 1645 201 l 0
EndSplineSet
EndChar

StartChar: nine
Encoding: 28 57 28
Width: 1622
VWidth: 1024
Flags: HW
LayerCount: 2
Fore
SplineSet
1364 743 m 0
 1364 1092 l 0
 1364 1111.33333333 1355 1127.33333333 1337 1140 c 0
 1319 1152.66666667 1292.33333333 1159 1257 1159 c 0
 975 1159 l 0
 943.666666667 1159 920.333333333 1153.66666667 905 1143 c 0
 889.666666667 1132.33333333 882.333333333 1116 883 1094 c 0
 883 823 l 0
 883 803.666666667 893 788.666666667 913 778 c 0
 937.666666667 757.333333333 965 747.333333333 995 748 c 0
 1364 743 l 0
1645 283 m 0
 1645 206.333333333 1611 140 1543 84 c 0
 1475.66666667 28 1395.66666667 0 1303 0 c 0
 664 0 l 0
 664 231 l 0
 1210 231 l 0
 1254 231 1291.66666667 240.666666667 1323 260 c 0
 1351.66666667 280.666666667 1366 300.333333333 1366 319 c 0
 1366 514 l 0
 918 514 l 0
 834.666666667 514 761.333333333 538.333333333 698 587 c 0
 635.333333333 635.666666667 604 691.333333333 604 754 c 0
 604 1174 l 0
 604 1212 619 1250.66666667 649 1290 c 0
 677.666666667 1320 717.666666667 1344.66666667 769 1364 c 0
 820.333333333 1383.33333333 876 1393 936 1393 c 0
 1325 1393 l 0
 1379.66666667 1393 1432.33333333 1381 1483 1357 c 0
 1533.66666667 1333 1571 1302 1595 1264 c 0
 1625 1226 1640 1181.33333333 1640 1130 c 0
 1645 283 l 0
EndSplineSet
EndChar

StartChar: colon
Encoding: 29 58 29
Width: 665
VWidth: 1024
Flags: HW
LayerCount: 2
Fore
SplineSet
482 148 m 0
 482 124 477.666666667 101.666666667 469 81 c 0
 460.333333333 59.6666666667 448 41.3333333333 432 26 c 0
 416 10 397.666666667 -2.66666666667 377 -12 c 0
 355.666666667 -21.3333333333 332.666666667 -26 308 -26 c 0
 284 -26 261.333333333 -21.3333333333 240 -12 c 0
 218.666666667 -2.66666666667 200 10 184 26 c 0
 168 42 155.333333333 60.3333333333 146 81 c 0
 136.666666667 102.333333333 132 124.666666667 132 148 c 0
 132 172.666666667 136.666666667 195.666666667 146 217 c 0
 155.333333333 238.333333333 168 257 184 273 c 0
 200 289 218.666666667 301.666666667 240 311 c 0
 261.333333333 320.333333333 284 325 308 325 c 0
 332.666666667 325 355.666666667 320.333333333 377 311 c 0
 398.333333333 301.666666667 416.666666667 289 432 273 c 0
 448 257 460.333333333 238.333333333 469 217 c 0
 477.666666667 195.666666667 482 172.666666667 482 148 c 0
482 872 m 0
 482 847.333333333 477.666666667 824.666666667 469 804 c 0
 460.333333333 782.666666667 448 764.333333333 432 749 c 0
 416 733 397.666666667 720.666666667 377 712 c 0
 355.666666667 703.333333333 332.666666667 698.666666667 308 698 c 0
 284 698 261.333333333 702.666666667 240 712 c 0
 218.666666667 720.666666667 200 733 184 749 c 0
 168 765 155.333333333 783.333333333 146 804 c 0
 136.666666667 825.333333333 132 848 132 872 c 0
 132 896 136.666666667 919 146 941 c 0
 155.333333333 962.333333333 168 981 184 997 c 0
 200 1013 218.666666667 1025.66666667 240 1035 c 0
 261.333333333 1044.33333333 284 1049 308 1049 c 0
 332.666666667 1049 355.666666667 1044.33333333 377 1035 c 0
 398.333333333 1025.66666667 416.666666667 1013 432 997 c 0
 448 981 460.333333333 962.333333333 469 941 c 0
 477.666666667 919 482 896 482 872 c 0
EndSplineSet
EndChar

StartChar: semicolon
Encoding: 30 59 30
Width: 665
VWidth: 1024
Flags: HW
LayerCount: 2
Fore
SplineSet
508 124 m 0
 508 80 501.666666667 38 489 -2 c 0
 477 -42 460.666666667 -80 440 -116 c 0
 419.333333333 -152 394.666666667 -185 366 -215 c 0
 338 -245 307.666666667 -270.666666667 275 -292 c 0
 243 -314 210 -332 176 -346 c 0
 141.333333333 -359.333333333 107.333333333 -367 74 -369 c 0
 74 -266 l 0
 100.666666667 -262 129 -254.333333333 159 -243 c 0
 189.666666667 -231.666666667 217.666666667 -215.333333333 243 -194 c 0
 268.333333333 -172 288.666666667 -144 304 -110 c 0
 320 -76 327 -34.6666666667 325 14 c 0
 198 14 l 0
 185.333333333 24 174.666666667 35 166 47 c 0
 158 58.3333333333 151.333333333 69.6666666667 146 81 c 0
 140.666666667 92.3333333333 137 104 135 116 c 0
 133 127.333333333 132 138 132 148 c 0
 132 174.666666667 137 199 147 221 c 0
 157 242.333333333 170 260.666666667 186 276 c 0
 202.666666667 291.333333333 221.666666667 303.333333333 243 312 c 0
 264.333333333 320.666666667 286 325 308 325 c 0
 371.333333333 325 420.666666667 306.666666667 456 270 c 0
 490.666666667 234 508 185.333333333 508 124 c 0
482 872 m 0
 482 847.333333333 477.666666667 824.666666667 469 804 c 0
 460.333333333 782.666666667 448 764.333333333 432 749 c 0
 416 733 397.666666667 720.666666667 377 712 c 0
 355.666666667 703.333333333 332.666666667 698.666666667 308 698 c 0
 284 698 261.333333333 702.666666667 240 712 c 0
 218.666666667 720.666666667 200 733 184 749 c 0
 168 765 155.333333333 783.333333333 146 804 c 0
 136.666666667 825.333333333 132 848 132 872 c 0
 132 896 136.666666667 919 146 941 c 0
 155.333333333 962.333333333 168 981 184 997 c 0
 200 1013 218.666666667 1025.66666667 240 1035 c 0
 261.333333333 1044.33333333 284 1049 308 1049 c 0
 332.666666667 1049 355.666666667 1044.33333333 377 1035 c 0
 398.333333333 1025.66666667 416.666666667 1013 432 997 c 0
 448 981 460.333333333 962.333333333 469 941 c 0
 477.666666667 919 482 896 482 872 c 0
EndSplineSet
EndChar

StartChar: less
Encoding: 31 60 31
Width: 2097
VWidth: 1024
Flags: HW
LayerCount: 2
Fore
SplineSet
420 564 m 0
 420 694 l 0
 1677 1177 l 0
 1677 1047 l 0
 554 629 l 0
 1677 212 l 0
 1677 82 l 0
 420 564 l 0
EndSplineSet
EndChar

StartChar: equal
Encoding: 32 61 32
Width: 2097
VWidth: 1024
Flags: HW
LayerCount: 2
Fore
SplineSet
420 755 m 0
 420 885 l 0
 1677 885 l 0
 1677 755 l 0
 420 755 l 0
420 374 m 0
 420 504 l 0
 1677 504 l 0
 1677 374 l 0
 420 374 l 0
EndSplineSet
EndChar

StartChar: greater
Encoding: 33 62 33
Width: 2097
VWidth: 1024
Flags: HW
LayerCount: 2
Fore
SplineSet
420 82 m 0
 420 212 l 0
 1543 629 l 0
 420 1047 l 0
 420 1177 l 0
 1677 694 l 0
 1677 564 l 0
 420 82 l 0
EndSplineSet
EndChar

StartChar: question
Encoding: 34 63 34
Width: 1093
VWidth: 1024
Flags: HW
LayerCount: 2
Fore
SplineSet
961 1042 m 0
 961 997.333333333 954.333333333 957 941 921 c 0
 928.333333333 884.333333333 911 851.333333333 889 822 c 0
 867.666666667 792 843.666666667 765.666666667 817 743 c 0
 790.333333333 720.333333333 762.333333333 700.666666667 733 684 c 0
 666.333333333 644.666666667 590.666666667 614.666666667 506 594 c 0
 506 416 l 0
 362 416 l 0
 362 694 l 0
 418.666666667 709.333333333 469.333333333 732.333333333 514 763 c 0
 533.333333333 775.666666667 552 791 570 809 c 0
 588 827 604 847.333333333 618 870 c 0
 632.666666667 893.333333333 644.333333333 919.666666667 653 949 c 0
 661.666666667 978.333333333 666.333333333 1011 667 1047 c 0
 667 1086.33333333 661.333333333 1122.33333333 650 1155 c 0
 638.666666667 1187.66666667 621.666666667 1215.66666667 599 1239 c 0
 576.333333333 1262.33333333 547.666666667 1280.33333333 513 1293 c 0
 478.333333333 1305.66666667 438 1312.33333333 392 1313 c 0
 298 1061 l 0
 297.333333333 1060.33333333 295.666666667 1059.66666667 293 1059 c 0
 291 1058.33333333 288.333333333 1057.66666667 285 1057 c 0
 281.666666667 1056.33333333 277.333333333 1056.33333333 272 1057 c 0
 258.666666667 1057 241.666666667 1057.66666667 221 1059 c 0
 200.333333333 1061 180.666666667 1066.33333333 162 1075 c 0
 142.666666667 1083.66666667 126.333333333 1097 113 1115 c 0
 99.6666666667 1133 92.6666666667 1158.33333333 92 1191 c 0
 92 1237 104.666666667 1275.66666667 130 1307 c 0
 154.666666667 1339 186 1364.66666667 224 1384 c 0
 262 1404 304.333333333 1418.33333333 351 1427 c 0
 397.666666667 1435.66666667 442 1440.33333333 484 1441 c 0
 551.333333333 1441 614.333333333 1431.66666667 673 1413 c 0
 731 1394.33333333 781.333333333 1367.66666667 824 1333 c 0
 866.666666667 1298.33333333 900 1256.33333333 924 1207 c 0
 948.666666667 1157.66666667 961 1102.66666667 961 1042 c 0
606 136 m 0
 606 112.666666667 601.333333333 91.3333333333 592 72 c 0
 582.666666667 52 570.333333333 34.6666666667 555 20 c 0
 539 5.33333333333 520.666666667 -5.66666666667 500 -13 c 0
 479.333333333 -21 457.333333333 -25.3333333333 434 -26 c 0
 411.333333333 -26 390.333333333 -21.3333333333 371 -12 c 0
 351.666666667 -2.66666666667 335 10 321 26 c 0
 306.333333333 42 295 60 287 80 c 0
 279 100.666666667 274.666666667 122 274 144 c 0
 274 167.333333333 278.333333333 189 287 209 c 0
 295.666666667 229 307.333333333 247 322 263 c 0
 336.666666667 278.333333333 353.666666667 290.333333333 373 299 c 0
 393 307.666666667 414 312 436 312 c 0
 461.333333333 312 484.333333333 307.333333333 505 298 c 0
 525.666666667 288.666666667 543.666666667 276 559 260 c 0
 574.333333333 244 586 225 594 203 c 0
 602 181.666666667 606 159.333333333 606 136 c 0
EndSplineSet
EndChar

StartChar: at
Encoding: 35 64 35
Width: 1961
VWidth: 1024
Flags: HW
LayerCount: 2
Fore
SplineSet
1195 814 m 0
 1197 822 1196.33333333 832.333333333 1193 845 c 0
 1189.66666667 857.666666667 1184.66666667 870 1178 882 c 0
 1170.66666667 893.333333333 1160.33333333 903.333333333 1147 912 c 0
 1134.33333333 920.666666667 1119 925 1101 925 c 0
 1059 925 1019.33333333 913.666666667 982 891 c 0
 944.666666667 868.333333333 912 837 884 797 c 0
 856 757 833.666666667 709.333333333 817 654 c 0
 800.333333333 598.666666667 792.333333333 538.666666667 793 474 c 0
 793 434.666666667 796.666666667 401 804 373 c 0
 812 345.666666667 822.666666667 323.333333333 836 306 c 0
 848.666666667 288.666666667 863 276 879 268 c 0
 895 260 911 256 927 256 c 0
 949.666666667 256 970 260.333333333 988 269 c 0
 1006 277.666666667 1022.33333333 288.333333333 1037 301 c 0
 1051.66666667 313.666666667 1065 327.666666667 1077 343 c 0
 1089 358.333333333 1100.33333333 372 1111 384 c 0
 1195 814 l 0
1841 772 m 0
 1841 702.666666667 1833.33333333 638 1818 578 c 0
 1802.66666667 518 1782 463.333333333 1756 414 c 0
 1730 364.666666667 1699 320.666666667 1663 282 c 0
 1627.66666667 243.333333333 1590 211 1550 185 c 0
 1510 159 1468.66666667 139 1426 125 c 0
 1383.33333333 111.666666667 1341.33333333 104.666666667 1300 104 c 0
 1268 104 1241.33333333 108.333333333 1220 117 c 0
 1198.66666667 125 1181 135.666666667 1167 149 c 0
 1153 162.333333333 1142.33333333 178 1135 196 c 0
 1127.66666667 214 1122.66666667 232.666666667 1120 252 c 0
 1098 233.333333333 1076 215.333333333 1054 198 c 0
 1031.33333333 180.666666667 1008 165.333333333 984 152 c 0
 960 138.666666667 935.333333333 127.666666667 910 119 c 0
 884.666666667 111 859 106.666666667 833 106 c 0
 785 106 743 115 707 133 c 0
 671 150.333333333 640.333333333 174.333333333 615 205 c 0
 590.333333333 236.333333333 572 273 560 315 c 0
 547.333333333 357 541 403.666666667 541 455 c 0
 541 533.666666667 555.333333333 607.333333333 584 676 c 0
 613.333333333 745.333333333 652.666666667 806.333333333 702 859 c 0
 752 911 810.666666667 952.333333333 878 983 c 0
 945.333333333 1013.66666667 1017 1028.66666667 1093 1028 c 0
 1109.66666667 1028 1126 1026 1142 1022 c 0
 1158.66666667 1018 1175.33333333 1012.66666667 1192 1006 c 0
 1208.66666667 999.333333333 1224.66666667 992.333333333 1240 985 c 0
 1255.33333333 977.666666667 1269.66666667 971 1283 965 c 0
 1311 1017 l 0
 1487 1017 l 0
 1477 978 l 0
 1472.33333333 957.333333333 1466.33333333 932 1459 902 c 0
 1451.66666667 872 1443.66666667 838.666666667 1435 802 c 0
 1426.33333333 765.333333333 1417.66666667 728 1409 690 c 0
 1388.33333333 602 1365.33333333 503.333333333 1340 394 c 0
 1334.66666667 370.666666667 1330.66666667 349.666666667 1328 331 c 0
 1325.33333333 311.666666667 1325.33333333 295.333333333 1328 282 c 0
 1330.66666667 268.666666667 1336.66666667 258 1346 250 c 0
 1355.33333333 242.666666667 1369.66666667 239 1389 239 c 0
 1402.33333333 239 1419 244 1439 254 c 0
 1459 264.666666667 1480 280.333333333 1502 301 c 0
 1523.33333333 321.666666667 1544.66666667 347 1566 377 c 0
 1587.33333333 407.666666667 1606.33333333 442.666666667 1623 482 c 0
 1639.66666667 521.333333333 1653 565 1663 613 c 0
 1673.66666667 661 1679 713.333333333 1679 770 c 0
 1679 836 1671.33333333 896 1656 950 c 0
 1640 1003.33333333 1618.66666667 1051 1592 1093 c 0
 1565.33333333 1134.33333333 1534 1170.33333333 1498 1201 c 0
 1461.33333333 1231.66666667 1422.33333333 1256.66666667 1381 1276 c 0
 1340.33333333 1296 1297.66666667 1310.66666667 1253 1320 c 0
 1208.33333333 1329.33333333 1164.66666667 1334 1122 1334 c 0
 1048 1334 977.666666667 1325 911 1307 c 0
 843.666666667 1289 780.666666667 1263.33333333 722 1230 c 0
 663.333333333 1196.66666667 610.333333333 1156.33333333 563 1109 c 0
 515 1061 474 1007.33333333 440 948 c 0
 406 888 379.666666667 823 361 753 c 0
 342.333333333 683 333.333333333 608.666666667 334 530 c 0
 334 422 350.666666667 323 384 233 c 0
 417.333333333 142.333333333 464.666666667 64 526 -2 c 0
 587.333333333 -68 661.666666667 -119.666666667 749 -157 c 0
 835.666666667 -193.666666667 932 -212 1038 -212 c 0
 1093.33333333 -212 1146 -207.333333333 1196 -198 c 0
 1246 -188.666666667 1294 -176.333333333 1340 -161 c 0
 1386.66666667 -145 1432.33333333 -126.333333333 1477 -105 c 0
 1521.66666667 -83.6666666667 1566.33333333 -60.6666666667 1611 -36 c 0
 1655 -140 l 0
 1607.66666667 -164.666666667 1558.66666667 -188.333333333 1508 -211 c 0
 1457.33333333 -233.666666667 1405 -254 1351 -272 c 0
 1296.33333333 -289.333333333 1238.66666667 -303.333333333 1178 -314 c 0
 1117.33333333 -324.666666667 1054 -330 988 -330 c 0
 906 -330 828 -321.333333333 754 -304 c 0
 679.333333333 -286.666666667 610 -261 546 -227 c 0
 482 -193.666666667 423.666666667 -153 371 -105 c 0
 319 -57 274.666666667 -2.66666666667 238 58 c 0
 201.333333333 119.333333333 172.666666667 186.333333333 152 259 c 0
 132 331.666666667 122 409.666666667 122 493 c 0
 122 595 134.333333333 689 159 775 c 0
 183.666666667 861.666666667 218 940.333333333 262 1011 c 0
 306 1081 358.333333333 1143 419 1197 c 0
 479.666666667 1250.33333333 546 1295 618 1331 c 0
 690 1367 766.333333333 1394.33333333 847 1413 c 0
 927.666666667 1431.66666667 1010.33333333 1441 1095 1441 c 0
 1208.33333333 1441 1311 1426 1403 1396 c 0
 1495 1366 1573.33333333 1322.33333333 1638 1265 c 0
 1702.66666667 1207.66666667 1752.66666667 1137.66666667 1788 1055 c 0
 1823.33333333 972.333333333 1841 878 1841 772 c 0
EndSplineSet
EndChar

StartChar: A
Encoding: 36 65 36
Width: 1437
VWidth: 1024
Flags: HW
LayerCount: 2
Fore
SplineSet
849 0 m 0
 849 106 l 0
 973 122 l 0
 979.666666667 123.333333333 985.333333333 127.666666667 990 135 c 0
 994.666666667 142.333333333 995.333333333 150 992 158 c 0
 879 490 l 0
 430 490 l 0
 314 166 l 0
 310 155.333333333 312.333333333 145.333333333 321 136 c 0
 329 127.333333333 336.666666667 122.666666667 344 122 c 0
 462 106 l 0
 462 0 l 0
 10 0 l 0
 10 106 l 0
 128 124 l 0
 598 1441 l 0
 837 1441 l 0
 1303 162 l 0
 1308.33333333 149.333333333 1313.33333333 140.333333333 1318 135 c 0
 1323.33333333 129.666666667 1333.66666667 125.333333333 1349 122 c 0
 1428 106 l 0
 1428 0 l 0
 849 0 l 0
646 1118 m 0
 470 614 l 0
 826 614 l 0
 646 1118 l 0
EndSplineSet
EndChar

StartChar: B
Encoding: 37 66 37
Width: 1339
VWidth: 1024
Flags: HW
LayerCount: 2
Fore
SplineSet
872 1049 m 0
 872 1079.66666667 868.666666667 1109.33333333 862 1138 c 0
 855.333333333 1167.33333333 842.333333333 1193 823 1215 c 0
 803.666666667 1237.66666667 776.333333333 1256 741 1270 c 0
 705.666666667 1283.33333333 660 1290 604 1290 c 0
 594 1290 l 0
 591 1290 591 1290 583 1290 c 0
 577.666666667 1289.33333333 570.333333333 1288.66666667 561 1288 c 0
 551 1287.33333333 536.666666667 1286.33333333 518 1285 c 0
 518 786 l 0
 525.333333333 785.333333333 533 785 541 785 c 0
 547 784.333333333 552.666666667 784 558 784 c 0
 570 784 l 0
 630 784 679.666666667 791 719 805 c 0
 757.666666667 818.333333333 788.666666667 837 812 861 c 0
 834.666666667 884.333333333 850.333333333 912.333333333 859 945 c 0
 867.666666667 977.666666667 872 1012.33333333 872 1049 c 0
948 394 m 0
 948 484 922 551 870 595 c 0
 818 639 735.666666667 660.666666667 623 660 c 0
 585 660 l 0
 569.666666667 660 547.333333333 659.333333333 518 658 c 0
 518 124 l 0
 534 123.333333333 548.666666667 122.666666667 562 122 c 0
 573.333333333 121.333333333 584.333333333 120.666666667 595 120 c 0
 605.666666667 119.333333333 612.666666667 119.333333333 616 120 c 0
 669.333333333 120 716.666666667 124.666666667 758 134 c 0
 799.333333333 143.333333333 834.333333333 159 863 181 c 0
 891 203 912.333333333 231.333333333 927 266 c 0
 941 300.666666667 948 343.333333333 948 394 c 0
1263 409 m 0
 1263 343.666666667 1255.66666667 288 1241 242 c 0
 1226.33333333 196.666666667 1207 159 1183 129 c 0
 1159 98.3333333333 1130.66666667 74.3333333333 1098 57 c 0
 1065.33333333 39.6666666667 1031.33333333 27 996 19 c 0
 960 10.3333333333 923.333333333 5 886 3 c 0
 848.666666667 1 812.666666667 0 778 0 c 0
 58 0 l 0
 58 106 l 0
 172 118 l 0
 184.666666667 119.333333333 195.666666667 124 205 132 c 0
 213.666666667 140 218 150.666666667 218 164 c 0
 218 1243 l 0
 218 1256.33333333 213.666666667 1267.33333333 205 1276 c 0
 196.333333333 1284 185.333333333 1288.66666667 172 1290 c 0
 58 1300 l 0
 58 1407 l 0
 734 1407 l 0
 759.333333333 1407 788 1405.66666667 820 1403 c 0
 852 1400.33333333 884.333333333 1395.33333333 917 1388 c 0
 950.333333333 1380 982.666666667 1369 1014 1355 c 0
 1045.33333333 1340.33333333 1073.33333333 1321 1098 1297 c 0
 1122.66666667 1273 1142.66666667 1243.33333333 1158 1208 c 0
 1173.33333333 1172.66666667 1181 1130.66666667 1181 1082 c 0
 1181 1040 1175 1003 1163 971 c 0
 1151.66666667 939 1136.66666667 911 1118 887 c 0
 1099.33333333 863 1079 842.666666667 1057 826 c 0
 1034.33333333 809.333333333 1012 795.666666667 990 785 c 0
 968 774.333333333 947.333333333 766 928 760 c 0
 908.666666667 754 894 750.333333333 884 749 c 0
 909.333333333 748.333333333 936.333333333 745.666666667 965 741 c 0
 994.333333333 737 1023 730 1051 720 c 0
 1079 710 1105.66666667 697 1131 681 c 0
 1156.33333333 664.333333333 1179 643.666666667 1199 619 c 0
 1218.33333333 594.333333333 1233.66666667 564.666666667 1245 530 c 0
 1257 496 1263 455.666666667 1263 409 c 0
EndSplineSet
EndChar

StartChar: C
Encoding: 38 67 38
Width: 1333
VWidth: 1024
Flags: HW
LayerCount: 2
Fore
SplineSet
1258 50 m 0
 1245.33333333 44.6666666667 1225.33333333 37.3333333333 1198 28 c 0
 1170.66666667 18.6666666667 1137.33333333 9.66666666667 1098 1 c 0
 1059.33333333 -8.33333333333 1015.66666667 -16.6666666667 967 -24 c 0
 919 -30.6666666667 868 -34 814 -34 c 0
 742 -34 674 -25.6666666667 610 -9 c 0
 546 7.66666666667 486.666666667 31 432 61 c 0
 377.333333333 91.6666666667 328.333333333 129 285 173 c 0
 241 217 203.666666667 266.333333333 173 321 c 0
 142.333333333 375.666666667 118.666666667 435.333333333 102 500 c 0
 85.3333333333 564.666666667 77.3333333333 633 78 705 c 0
 78 814.333333333 97 914 135 1004 c 0
 173 1094 225 1171.33333333 291 1236 c 0
 357 1300.66666667 435 1351 525 1387 c 0
 615 1423 712 1441 816 1441 c 0
 855.333333333 1441 891.666666667 1439.33333333 925 1436 c 0
 957.666666667 1432.66666667 990.333333333 1427.33333333 1023 1420 c 0
 1056.33333333 1412.66666667 1091.66666667 1403.66666667 1129 1393 c 0
 1166.33333333 1382.33333333 1209.33333333 1369 1258 1353 c 0
 1258 996 l 0
 1095 996 l 0
 1049 1231 l 0
 1049 1234.33333333 1046 1240 1040 1248 c 0
 1034.66666667 1256 1028.33333333 1261.66666667 1021 1265 c 0
 1015.66666667 1267.66666667 1007.33333333 1270.66666667 996 1274 c 0
 984.666666667 1278 972 1281.66666667 958 1285 c 0
 944 1288.33333333 929.333333333 1291.33333333 914 1294 c 0
 898.666666667 1296.66666667 884.666666667 1298 872 1298 c 0
 800 1298 735.333333333 1284 678 1256 c 0
 620 1228 571 1187.66666667 531 1135 c 0
 491 1083 460.333333333 1020.33333333 439 947 c 0
 417.666666667 873.666666667 407 791.333333333 407 700 c 0
 407 650.666666667 410.666666667 602 418 554 c 0
 425.333333333 505.333333333 437 459 453 415 c 0
 469 370.333333333 490 329 516 291 c 0
 541.333333333 253 571.666666667 220.333333333 607 193 c 0
 642.333333333 165 683.666666667 142.666666667 731 126 c 0
 777.666666667 110 830.333333333 102 889 102 c 0
 915 102 939 105.333333333 961 112 c 0
 983 118.666666667 999.666666667 124.666666667 1011 130 c 0
 1016.33333333 132 1023 137.666666667 1031 147 c 0
 1039 156.333333333 1044.33333333 164 1047 170 c 0
 1093 418 l 0
 1258 418 l 0
 1258 50 l 0
EndSplineSet
EndChar

StartChar: D
Encoding: 39 68 39
Width: 1517
VWidth: 1024
Flags: HW
LayerCount: 2
Fore
SplineSet
1441 719 m 0
 1441 599 1423.66666667 494 1389 404 c 0
 1354.33333333 314 1305.33333333 239 1242 179 c 0
 1178 119 1101 74.3333333333 1011 45 c 0
 921 15 820.333333333 0 709 0 c 0
 54 0 l 0
 54 106 l 0
 170 118 l 0
 182 119.333333333 193 124 203 132 c 0
 213 140 218 150.666666667 218 164 c 0
 218 1243 l 0
 218 1256.33333333 213 1267.33333333 203 1276 c 0
 193 1284 182 1288.66666667 170 1290 c 0
 54 1300 l 0
 54 1407 l 0
 696 1407 l 0
 815.333333333 1407 921.333333333 1390.33333333 1014 1357 c 0
 1106.66666667 1323.66666667 1184.66666667 1276.66666667 1248 1216 c 0
 1311.33333333 1155.33333333 1359.33333333 1083 1392 999 c 0
 1424.66666667 915 1441 821.666666667 1441 719 c 0
1103 696 m 0
 1103 776.666666667 1096.66666667 847.333333333 1084 908 c 0
 1072 968.666666667 1055.33333333 1020.33333333 1034 1063 c 0
 1012.66666667 1106.33333333 987 1142.33333333 957 1171 c 0
 927.666666667 1199.66666667 896.333333333 1222.66666667 863 1240 c 0
 829.666666667 1256.66666667 795 1268.33333333 759 1275 c 0
 723 1281.66666667 686.666666667 1285 650 1285 c 0
 518 1285 l 0
 518 124 l 0
 692 128 l 0
 722 128.666666667 753 132.666666667 785 140 c 0
 817 147.333333333 848.333333333 159.666666667 879 177 c 0
 909.666666667 194.333333333 938.333333333 217 965 245 c 0
 991.666666667 273 1015.33333333 308.333333333 1036 351 c 0
 1056.66666667 393 1073 442.333333333 1085 499 c 0
 1097 555.666666667 1103 621.333333333 1103 696 c 0
EndSplineSet
EndChar

StartChar: E
Encoding: 40 69 40
Width: 1253
VWidth: 1024
Flags: HW
LayerCount: 2
Fore
SplineSet
54 0 m 0
 54 106 l 0
 170 118 l 0
 182 119.333333333 193 124 203 132 c 0
 213 140 218 150.666666667 218 164 c 0
 218 1243 l 0
 218 1256.33333333 213 1267.33333333 203 1276 c 0
 193 1284 182 1288.66666667 170 1290 c 0
 54 1300 l 0
 54 1407 l 0
 1124 1407 l 0
 1124 1072 l 0
 973 1072 l 0
 940 1246 l 0
 937.333333333 1256 932.666666667 1265 926 1273 c 0
 919.333333333 1281 911.333333333 1285 902 1285 c 0
 512 1285 l 0
 512 793 l 0
 761 793 l 0
 770.333333333 793 778.333333333 797.333333333 785 806 c 0
 791.666666667 814.666666667 795.666666667 822.666666667 797 830 c 0
 816 973 l 0
 946 973 l 0
 946 480 l 0
 816 480 l 0
 797 623 l 0
 795.666666667 630.333333333 791.666666667 638.333333333 785 647 c 0
 778.333333333 655.666666667 770.333333333 660 761 660 c 0
 512 660 l 0
 512 126 l 0
 969 126 l 0
 977.666666667 126 985.666666667 130.666666667 993 140 c 0
 1000.33333333 149.333333333 1005 158 1007 166 c 0
 1038 384 l 0
 1191 384 l 0
 1191 0 l 0
 54 0 l 0
EndSplineSet
EndChar

StartChar: F
Encoding: 41 70 41
Width: 1171
VWidth: 1024
Flags: HW
LayerCount: 2
Fore
SplineSet
965 1049 m 0
 935 1239 l 0
 933 1249.66666667 928.666666667 1259 922 1267 c 0
 915.333333333 1275 907.333333333 1279 898 1279 c 0
 518 1279 l 0
 518 763 l 0
 778 763 l 0
 787.333333333 763 795.333333333 767.333333333 802 776 c 0
 808.666666667 784.666666667 812.666666667 793 814 801 c 0
 835 944 l 0
 965 944 l 0
 965 449 l 0
 835 449 l 0
 814 592 l 0
 812.666666667 599.333333333 808.333333333 607.333333333 801 616 c 0
 793.666666667 624.666666667 786 629 778 629 c 0
 518 629 l 0
 518 164 l 0
 518 150.666666667 522.333333333 140 531 132 c 0
 539.666666667 124 550.666666667 119.333333333 564 118 c 0
 700 106 l 0
 700 0 l 0
 56 0 l 0
 56 106 l 0
 170 118 l 0
 182 119.333333333 193 124 203 132 c 0
 213 140 218 150.666666667 218 164 c 0
 218 1243 l 0
 218 1256.33333333 213 1267.33333333 203 1276 c 0
 193 1284 182 1288.66666667 170 1290 c 0
 50 1300 l 0
 50 1407 l 0
 1116 1407 l 0
 1116 1049 l 0
 965 1049 l 0
EndSplineSet
EndChar

StartChar: G
Encoding: 42 71 42
Width: 1501
VWidth: 1024
Flags: HW
LayerCount: 2
Fore
SplineSet
1347 579 m 0
 1334.33333333 577.666666667 1323 573 1313 565 c 0
 1303.66666667 557 1298.66666667 546 1298 532 c 0
 1298 65 l 0
 1256.66666667 46.3333333333 1210.66666667 29.6666666667 1160 15 c 0
 1116 3 1064.66666667 -8 1006 -18 c 0
 946.666666667 -28 882 -33.3333333333 812 -34 c 0
 706.666666667 -34 609.333333333 -16.3333333333 520 19 c 0
 430.666666667 54.3333333333 353.333333333 104.333333333 288 169 c 0
 222.666666667 233.666666667 171.333333333 311.333333333 134 402 c 0
 96.6666666667 492.666666667 78 594.333333333 78 707 c 0
 78 820.333333333 96.6666666667 922.333333333 134 1013 c 0
 171.333333333 1103.66666667 223.333333333 1180.66666667 290 1244 c 0
 356.666666667 1307.33333333 436 1356 528 1390 c 0
 620 1424 720 1441 828 1441 c 0
 896.666666667 1441 960 1436.66666667 1018 1428 c 0
 1075.33333333 1419.33333333 1125 1410 1167 1400 c 0
 1216.33333333 1388 1260.66666667 1374.33333333 1300 1359 c 0
 1300 996 l 0
 1137 996 l 0
 1095 1223 l 0
 1093.66666667 1230.33333333 1089 1238.66666667 1081 1248 c 0
 1073.66666667 1257.33333333 1065.66666667 1263.66666667 1057 1267 c 0
 1024.33333333 1279 994 1288 966 1294 c 0
 938 1300 918 1303 906 1303 c 0
 845.333333333 1303 790.666666667 1295 742 1279 c 0
 693.333333333 1263.66666667 650.333333333 1242.66666667 613 1216 c 0
 575.666666667 1189.33333333 543.666666667 1157.33333333 517 1120 c 0
 490.333333333 1083.33333333 468.666666667 1043 452 999 c 0
 434.666666667 955 422 909.333333333 414 862 c 0
 406 814 402 765 402 715 c 0
 402 625 413.333333333 543.666666667 436 471 c 0
 458.666666667 398.333333333 491.666666667 336 535 284 c 0
 578.333333333 232.666666667 631.666666667 193 695 165 c 0
 758.333333333 137.666666667 831.333333333 124 914 124 c 0
 923.333333333 124 935.333333333 123.333333333 950 122 c 0
 964 120.666666667 983.666666667 121.333333333 1009 124 c 0
 1009 532 l 0
 1009 545.333333333 1004 556.666666667 994 566 c 0
 984.666666667 574.666666667 973.666666667 579 961 579 c 0
 820 589 l 0
 820 696 l 0
 1453 696 l 0
 1453 589 l 0
 1347 579 l 0
EndSplineSet
EndChar

StartChar: H
Encoding: 43 72 43
Width: 1611
VWidth: 1024
Flags: HW
LayerCount: 2
Fore
SplineSet
940 0 m 0
 940 106 l 0
 1049 118 l 0
 1061.66666667 119.333333333 1072.33333333 124 1081 132 c 0
 1089.66666667 140 1094.33333333 150.666666667 1095 164 c 0
 1095 671 l 0
 518 671 l 0
 518 164 l 0
 518 150.666666667 522.333333333 140 531 132 c 0
 539.666666667 124 550.666666667 119.333333333 564 118 c 0
 675 106 l 0
 675 0 l 0
 62 0 l 0
 62 106 l 0
 172 118 l 0
 184.666666667 119.333333333 195.666666667 124 205 132 c 0
 213.666666667 140 218 150.666666667 218 164 c 0
 218 1243 l 0
 218 1256.33333333 213.666666667 1267.33333333 205 1276 c 0
 196.333333333 1284 185.333333333 1288.66666667 172 1290 c 0
 62 1300 l 0
 62 1407 l 0
 675 1407 l 0
 675 1300 l 0
 564 1290 l 0
 551.333333333 1288.66666667 540.333333333 1284 531 1276 c 0
 522.333333333 1268 518 1257 518 1243 c 0
 518 805 l 0
 1095 805 l 0
 1095 1243 l 0
 1095 1256.33333333 1090.33333333 1267.33333333 1081 1276 c 0
 1072.33333333 1284 1061.66666667 1288.66666667 1049 1290 c 0
 940 1300 l 0
 940 1407 l 0
 1549 1407 l 0
 1549 1300 l 0
 1441 1290 l 0
 1429.66666667 1288.66666667 1419 1284 1409 1276 c 0
 1399.66666667 1268 1395 1257 1395 1243 c 0
 1395 164 l 0
 1395 150.666666667 1399.33333333 140 1408 132 c 0
 1416.66666667 124 1427.66666667 119.333333333 1441 118 c 0
 1549 106 l 0
 1549 0 l 0
 940 0 l 0
EndSplineSet
EndChar

StartChar: I
Encoding: 44 73 44
Width: 751
VWidth: 1024
Flags: HW
LayerCount: 2
Fore
SplineSet
48 0 m 0
 48 106 l 0
 178 118 l 0
 190.666666667 119.333333333 201.666666667 124 211 132 c 0
 219.666666667 140 224 150.666666667 224 164 c 0
 224 1243 l 0
 224 1256.33333333 219.666666667 1267.33333333 211 1276 c 0
 202.333333333 1284 191.333333333 1288.66666667 178 1290 c 0
 48 1300 l 0
 48 1407 l 0
 702 1407 l 0
 702 1300 l 0
 572 1290 l 0
 560.666666667 1288.66666667 550 1284 540 1276 c 0
 530 1268 524.666666667 1257 524 1243 c 0
 524 164 l 0
 524 150.666666667 529.333333333 140 540 132 c 0
 550 124 560.666666667 119.333333333 572 118 c 0
 702 106 l 0
 702 0 l 0
 48 0 l 0
EndSplineSet
EndChar

StartChar: J
Encoding: 45 74 45
Width: 1073
VWidth: 1024
Flags: HW
LayerCount: 2
Fore
SplineSet
900 1290 m 0
 887.333333333 1288.66666667 876.333333333 1284 867 1276 c 0
 858.333333333 1268 854 1257 854 1243 c 0
 854 508 l 0
 854 426.666666667 844.333333333 353 825 287 c 0
 805.666666667 221 776.333333333 164 737 116 c 0
 697 68 646 31 584 5 c 0
 522 -21 448 -34 362 -34 c 0
 333.333333333 -34 304 -32 274 -28 c 0
 244 -24 215.333333333 -19 188 -13 c 0
 160.666666667 -7 135 -0.666666666667 111 6 c 0
 87 12.6666666667 66.6666666667 19.3333333333 50 26 c 0
 50 409 l 0
 214 409 l 0
 262 128 l 0
 264 121.333333333 267.333333333 115.333333333 272 110 c 0
 276 105.333333333 281.666666667 101 289 97 c 0
 295.666666667 93.6666666667 304.666666667 92 316 92 c 0
 354.666666667 92 389 99.3333333333 419 114 c 0
 449 128.666666667 474.333333333 152 495 184 c 0
 515.666666667 216.666666667 531 260 541 314 c 0
 551 368 556 434.666666667 556 514 c 0
 556 1243 l 0
 556 1256.33333333 551.333333333 1267.33333333 542 1276 c 0
 532.666666667 1284 522 1288.66666667 510 1290 c 0
 380 1300 l 0
 380 1407 l 0
 1028 1407 l 0
 1028 1300 l 0
 900 1290 l 0
EndSplineSet
EndChar

StartChar: K
Encoding: 46 75 46
Width: 1429
VWidth: 1024
Flags: HW
LayerCount: 2
Fore
SplineSet
975 0 m 0
 975 78 l 0
 633 614 l 0
 518 614 l 0
 518 164 l 0
 518 150.666666667 522.333333333 140 531 132 c 0
 539.666666667 124 550.666666667 119.333333333 564 118 c 0
 675 106 l 0
 675 0 l 0
 60 0 l 0
 60 106 l 0
 172 118 l 0
 184.666666667 119.333333333 195.666666667 124 205 132 c 0
 213.666666667 140 218 150.666666667 218 164 c 0
 218 1243 l 0
 218 1256.33333333 213.666666667 1267.33333333 205 1276 c 0
 196.333333333 1284 185.333333333 1288.66666667 172 1290 c 0
 60 1300 l 0
 60 1407 l 0
 675 1407 l 0
 675 1300 l 0
 564 1290 l 0
 551.333333333 1288.66666667 540.333333333 1284 531 1276 c 0
 522.333333333 1268 518 1257 518 1243 c 0
 518 715 l 0
 577 715 l 0
 1028 1265 l 0
 1031.33333333 1269 1032.33333333 1274.33333333 1031 1281 c 0
 1029 1287.66666667 1024.33333333 1290.66666667 1017 1290 c 0
 898 1300 l 0
 898 1407 l 0
 1378 1407 l 0
 1378 1300 l 0
 1362.66666667 1298.66666667 1346.66666667 1297.33333333 1330 1296 c 0
 1315.33333333 1294.66666667 1299.66666667 1293.33333333 1283 1292 c 0
 1265.66666667 1290 1248.33333333 1288.33333333 1231 1287 c 0
 841 822 l 0
 1281 120 l 0
 1431 106 l 0
 1431 0 l 0
 975 0 l 0
EndSplineSet
EndChar

StartChar: L
Encoding: 47 76 47
Width: 1161
VWidth: 1024
Flags: HW
LayerCount: 2
Fore
SplineSet
56 0 m 0
 56 106 l 0
 172 118 l 0
 184.666666667 119.333333333 195.666666667 124 205 132 c 0
 213.666666667 140 218 150.666666667 218 164 c 0
 218 1243 l 0
 218 1256.33333333 213.666666667 1267.33333333 205 1276 c 0
 196.333333333 1284 185.333333333 1288.66666667 172 1290 c 0
 56 1300 l 0
 56 1407 l 0
 682 1407 l 0
 682 1300 l 0
 564 1290 l 0
 551.333333333 1288.66666667 540.333333333 1284 531 1276 c 0
 522.333333333 1268 518 1257 518 1243 c 0
 518 128 l 0
 883 128 l 0
 890.333333333 128 897 129.666666667 903 133 c 0
 909 136.333333333 914 140.666666667 918 146 c 0
 922.666666667 151.333333333 926 156.666666667 928 162 c 0
 930.666666667 167.333333333 932.333333333 172 933 176 c 0
 961 418 l 0
 1128 418 l 0
 1128 0 l 0
 56 0 l 0
EndSplineSet
EndChar

StartChar: M
Encoding: 48 77 48
Width: 1892
VWidth: 1024
Flags: HW
LayerCount: 2
Fore
SplineSet
1225 0 m 0
 1225 106 l 0
 1327 118 l 0
 1338.33333333 119.333333333 1349 124 1359 132 c 0
 1368.33333333 140 1373 150.666666667 1373 164 c 0
 1373 1265 l 0
 952 0 l 0
 791 0 l 0
 378 1256 l 0
 378 164 l 0
 378 150.666666667 382.666666667 140 392 132 c 0
 401.333333333 124 412 119.333333333 424 118 c 0
 537 106 l 0
 537 0 l 0
 52 0 l 0
 52 106 l 0
 170 118 l 0
 182 119.333333333 193 124 203 132 c 0
 213 140 218 150.666666667 218 164 c 0
 218 1243 l 0
 218 1256.33333333 213 1267.33333333 203 1276 c 0
 193 1284 182 1288.66666667 170 1290 c 0
 52 1300 l 0
 52 1407 l 0
 654 1407 l 0
 654 1349 l 0
 950 451 l 0
 1243 1349 l 0
 1243 1407 l 0
 1839 1407 l 0
 1839 1300 l 0
 1719 1290 l 0
 1707 1288.66666667 1696.33333333 1284 1687 1276 c 0
 1677.66666667 1268 1673 1257 1673 1243 c 0
 1673 164 l 0
 1673 150.666666667 1677.66666667 140 1687 132 c 0
 1696.33333333 124 1707 119.333333333 1719 118 c 0
 1839 106 l 0
 1839 0 l 0
 1225 0 l 0
EndSplineSet
EndChar

StartChar: N
Encoding: 49 78 49
Width: 1560
VWidth: 1024
Flags: HW
LayerCount: 2
Fore
SplineSet
1386 1290 m 0
 1374.66666667 1288.66666667 1364.33333333 1284 1355 1276 c 0
 1345.66666667 1268 1340.66666667 1257 1340 1243 c 0
 1340 0 l 0
 1084 0 l 0
 378 1109 l 0
 378 164 l 0
 378 150.666666667 382.666666667 140 392 132 c 0
 401.333333333 124 412 119.333333333 424 118 c 0
 541 106 l 0
 541 0 l 0
 56 0 l 0
 56 106 l 0
 172 118 l 0
 184.666666667 119.333333333 195.666666667 124 205 132 c 0
 213.666666667 140 218 150.666666667 218 164 c 0
 218 1243 l 0
 218 1256.33333333 213.666666667 1267.33333333 205 1276 c 0
 196.333333333 1284 185.333333333 1288.66666667 172 1290 c 0
 58 1300 l 0
 58 1407 l 0
 577 1407 l 0
 577 1351 l 0
 1181 404 l 0
 1181 1243 l 0
 1181 1256.33333333 1176 1267.33333333 1166 1276 c 0
 1156 1284 1145 1288.66666667 1133 1290 c 0
 1013 1300 l 0
 1013 1407 l 0
 1499 1407 l 0
 1499 1300 l 0
 1386 1290 l 0
EndSplineSet
EndChar

StartChar: O
Encoding: 50 79 50
Width: 1585
VWidth: 1024
Flags: HW
LayerCount: 2
Fore
SplineSet
1510 696 m 0
 1510 595.333333333 1493.33333333 501 1460 413 c 0
 1426 324.333333333 1378 247 1316 181 c 0
 1254 115 1179.66666667 62.6666666667 1093 24 c 0
 1006.33333333 -14.6666666667 910.333333333 -34 805 -34 c 0
 700.333333333 -34 603.666666667 -17.3333333333 515 16 c 0
 425.666666667 49.3333333333 348.666666667 97.6666666667 284 161 c 0
 219.333333333 224.333333333 169 302.333333333 133 395 c 0
 96.3333333333 487.666666667 78 593.666666667 78 713 c 0
 78 816.333333333 94 912.333333333 126 1001 c 0
 158 1090.33333333 204.333333333 1167.33333333 265 1232 c 0
 325.666666667 1296.66666667 399.666666667 1347.66666667 487 1385 c 0
 575 1422.33333333 674.666666667 1441 786 1441 c 0
 858.666666667 1441 927 1432 991 1414 c 0
 1055 1396 1114 1370.66666667 1168 1338 c 0
 1221.33333333 1305.33333333 1269.33333333 1266.33333333 1312 1221 c 0
 1354 1175.66666667 1389.66666667 1125.33333333 1419 1070 c 0
 1448.33333333 1014.66666667 1471 955.333333333 1487 892 c 0
 1502.33333333 828.666666667 1510 763.333333333 1510 696 c 0
1172 688 m 0
 1172 770 1164.33333333 848 1149 922 c 0
 1133.66666667 996 1110.66666667 1061 1080 1117 c 0
 1049.33333333 1173 1011 1217.66666667 965 1251 c 0
 919 1284.33333333 865.666666667 1300.66666667 805 1300 c 0
 756.333333333 1300 713 1292 675 1276 c 0
 637 1259.33333333 603.333333333 1237 574 1209 c 0
 544.666666667 1181 520 1147.66666667 500 1109 c 0
 479.333333333 1071 462.666666667 1030 450 986 c 0
 437.333333333 942 427.666666667 896 421 848 c 0
 415 800.666666667 412.333333333 753.666666667 413 707 c 0
 413 657 416 607.333333333 422 558 c 0
 428.666666667 508.666666667 438.666666667 461.666666667 452 417 c 0
 464.666666667 371.666666667 481.333333333 329.666666667 502 291 c 0
 522.666666667 252.333333333 546.333333333 218.666666667 573 190 c 0
 600.333333333 162 631.666666667 139.666666667 667 123 c 0
 702.333333333 106.333333333 741.333333333 98 784 98 c 0
 830.666666667 98 872.666666667 106.333333333 910 123 c 0
 947.333333333 139.666666667 980.666666667 162.333333333 1010 191 c 0
 1038.66666667 219.666666667 1063 253.333333333 1083 292 c 0
 1103.66666667 330 1120.66666667 371 1134 415 c 0
 1147.33333333 459 1157 504 1163 550 c 0
 1169 596.666666667 1172 642.666666667 1172 688 c 0
EndSplineSet
EndChar

StartChar: P
Encoding: 51 80 51
Width: 1282
VWidth: 1024
Flags: HW
LayerCount: 2
Fore
SplineSet
893 971 m 0
 893 1020.33333333 886.666666667 1064 874 1102 c 0
 862 1140 844.666666667 1172.33333333 822 1199 c 0
 799.333333333 1225 772.333333333 1244.66666667 741 1258 c 0
 709.666666667 1271.33333333 674.666666667 1278.33333333 636 1279 c 0
 518 1279 l 0
 518 646 l 0
 526 645.333333333 532.666666667 645 538 645 c 0
 543.333333333 644.333333333 547.666666667 644 551 644 c 0
 574 644 l 0
 622.666666667 644.666666667 666.666666667 651 706 663 c 0
 745.333333333 674.333333333 778.666666667 693 806 719 c 0
 833.333333333 745 854.666666667 778.666666667 870 820 c 0
 885.333333333 861.333333333 893 911.666666667 893 971 c 0
1206 981 m 0
 1206 921 1198.66666667 868 1184 822 c 0
 1169.33333333 776 1149 735.666666667 1123 701 c 0
 1097 666.333333333 1066.66666667 637.333333333 1032 614 c 0
 996.666666667 590.666666667 958.666666667 571.666666667 918 557 c 0
 877.333333333 542.333333333 834.666666667 532 790 526 c 0
 745.333333333 519.333333333 700.666666667 516 656 516 c 0
 626 516 626 516 594 516 c 0
 572 515.333333333 546.666666667 516.666666667 518 520 c 0
 518 164 l 0
 518 150.666666667 522.333333333 140 531 132 c 0
 539.666666667 124 550.666666667 119.333333333 564 118 c 0
 696 106 l 0
 696 0 l 0
 54 0 l 0
 54 106 l 0
 170 118 l 0
 182 119.333333333 193 124 203 132 c 0
 213 140 218 150.666666667 218 164 c 0
 218 1243 l 0
 218 1256.33333333 213 1267.33333333 203 1276 c 0
 193 1284 182 1288.66666667 170 1290 c 0
 48 1300 l 0
 48 1407 l 0
 636 1407 l 0
 683.333333333 1407 730 1405 776 1401 c 0
 822.666666667 1397 867 1389.66666667 909 1379 c 0
 951 1367.66666667 990.333333333 1352.33333333 1027 1333 c 0
 1063 1313.66666667 1094.33333333 1288 1121 1256 c 0
 1147.66666667 1224 1168.66666667 1185.66666667 1184 1141 c 0
 1198.66666667 1095.66666667 1206 1042.33333333 1206 981 c 0
EndSplineSet
EndChar

StartChar: Q
Encoding: 52 81 52
Width: 1585
VWidth: 1024
Flags: HW
LayerCount: 2
Fore
SplineSet
1441 -338 m 0
 1368.33333333 -354.666666667 1302.33333333 -366.666666667 1243 -374 c 0
 1183.66666667 -382 1125.66666667 -386 1069 -386 c 0
 993.666666667 -386 929.666666667 -377.333333333 877 -360 c 0
 823.666666667 -342.666666667 780 -318 746 -286 c 0
 712.666666667 -254 688.333333333 -215.666666667 673 -171 c 0
 657 -125.666666667 648.666666667 -75.3333333333 648 -20 c 0
 563.333333333 -4.66666666667 486 22.3333333333 416 61 c 0
 346 100.333333333 286 151 236 213 c 0
 186 275 147 348 119 432 c 0
 91.6666666667 515.333333333 78 609 78 713 c 0
 78 816.333333333 94 912.333333333 126 1001 c 0
 158 1090.33333333 204.333333333 1167.33333333 265 1232 c 0
 325.666666667 1296.66666667 399.666666667 1347.66666667 487 1385 c 0
 575 1422.33333333 674.666666667 1441 786 1441 c 0
 858.666666667 1441 927 1432 991 1414 c 0
 1055 1396 1114 1370.66666667 1168 1338 c 0
 1221.33333333 1305.33333333 1269.33333333 1266.33333333 1312 1221 c 0
 1354 1175.66666667 1389.66666667 1125.33333333 1419 1070 c 0
 1448.33333333 1014.66666667 1471 955.333333333 1487 892 c 0
 1503 828.666666667 1510.66666667 763.333333333 1510 696 c 0
 1510 608.666666667 1497 525.666666667 1471 447 c 0
 1445 368.333333333 1408.33333333 297.666666667 1361 235 c 0
 1313 171.666666667 1255 118.333333333 1187 75 c 0
 1119 31 1043.66666667 0.666666666667 961 -16 c 0
 959.666666667 -54 966.666666667 -87.6666666667 982 -117 c 0
 997.333333333 -146.333333333 1018 -171 1044 -191 c 0
 1070 -211 1100.66666667 -226.333333333 1136 -237 c 0
 1171.33333333 -247 1208 -252 1246 -252 c 0
 1266.66666667 -252 1292.66666667 -250.333333333 1324 -247 c 0
 1355.33333333 -243.666666667 1394.33333333 -236.666666667 1441 -226 c 0
 1441 -338 l 0
1172 688 m 0
 1172 770 1164.33333333 848 1149 922 c 0
 1133.66666667 996 1110.66666667 1061 1080 1117 c 0
 1049.33333333 1173 1011 1217.66666667 965 1251 c 0
 919 1284.33333333 865.666666667 1300.66666667 805 1300 c 0
 756.333333333 1300 713 1292 675 1276 c 0
 637 1259.33333333 603.333333333 1237 574 1209 c 0
 544.666666667 1181 520 1147.66666667 500 1109 c 0
 479.333333333 1071 462.666666667 1030 450 986 c 0
 437.333333333 942 427.666666667 896 421 848 c 0
 415 800.666666667 412.333333333 753.666666667 413 707 c 0
 413 657 416 607.333333333 422 558 c 0
 428.666666667 508.666666667 438.666666667 461.666666667 452 417 c 0
 464.666666667 371.666666667 481.333333333 329.666666667 502 291 c 0
 522.666666667 252.333333333 546.333333333 218.666666667 573 190 c 0
 600.333333333 162 631.666666667 139.666666667 667 123 c 0
 702.333333333 106.333333333 741.333333333 98 784 98 c 0
 830.666666667 98 872.666666667 106.333333333 910 123 c 0
 947.333333333 139.666666667 980.666666667 162.333333333 1010 191 c 0
 1038.66666667 219.666666667 1063 253.333333333 1083 292 c 0
 1103.66666667 330 1120.66666667 371 1134 415 c 0
 1147.33333333 459 1157 504 1163 550 c 0
 1169 596.666666667 1172 642.666666667 1172 688 c 0
EndSplineSet
EndChar

StartChar: R
Encoding: 53 82 53
Width: 1476
VWidth: 1024
Flags: HW
LayerCount: 2
Fore
SplineSet
898 1019 m 0
 898 1107.66666667 871.333333333 1173.66666667 818 1217 c 0
 764.666666667 1260.33333333 687 1281.66666667 585 1281 c 0
 579.666666667 1281.66666667 573 1282 565 1282 c 0
 544 1282 l 0
 536 1282 527.333333333 1281.66666667 518 1281 c 0
 518 744 l 0
 536 742.666666667 550.666666667 741.666666667 562 741 c 0
 573.333333333 740.333333333 581.666666667 740 587 740 c 0
 619.666666667 740 654.333333333 743.333333333 691 750 c 0
 727.666666667 756.666666667 761.333333333 770 792 790 c 0
 822.666666667 810 848 838.333333333 868 875 c 0
 888 911.666666667 898 959.666666667 898 1019 c 0
1477 0 m 0
 1430.33333333 -5.33333333333 1390.33333333 -12.3333333333 1357 -21 c 0
 1323.66666667 -29.6666666667 1294.33333333 -34 1269 -34 c 0
 1201.66666667 -34 1145.33333333 -24.6666666667 1100 -6 c 0
 1054.66666667 12.6666666667 1017.33333333 37.3333333333 988 68 c 0
 958 98.6666666667 933.666666667 133.333333333 915 172 c 0
 896.333333333 210.666666667 880 250.333333333 866 291 c 0
 851.333333333 331.666666667 836.666666667 371.666666667 822 411 c 0
 807.333333333 449.666666667 789.333333333 484.333333333 768 515 c 0
 746 545.666666667 718.666666667 570 686 588 c 0
 653.333333333 606.666666667 611.333333333 616 560 616 c 0
 518 616 l 0
 518 164 l 0
 518 150.666666667 522.333333333 140 531 132 c 0
 539.666666667 124 550.666666667 119.333333333 564 118 c 0
 680 106 l 0
 680 0 l 0
 58 0 l 0
 58 106 l 0
 170 118 l 0
 182 119.333333333 193 124 203 132 c 0
 213 140 218 150.666666667 218 164 c 0
 218 1243 l 0
 218 1256.33333333 213 1267.33333333 203 1276 c 0
 193 1284 182 1288.66666667 170 1290 c 0
 58 1300 l 0
 58 1407 l 0
 755 1407 l 0
 781 1407 810.333333333 1405.33333333 843 1402 c 0
 875.666666667 1398.66666667 909 1392.33333333 943 1383 c 0
 977 1373.66666667 1010 1361 1042 1345 c 0
 1074.66666667 1328.33333333 1103.33333333 1307.33333333 1128 1282 c 0
 1153.33333333 1256.66666667 1173.66666667 1225.33333333 1189 1188 c 0
 1204.33333333 1151.33333333 1212 1108.33333333 1212 1059 c 0
 1212 1011.66666667 1205.66666667 970.333333333 1193 935 c 0
 1180.33333333 899.666666667 1163.66666667 868.666666667 1143 842 c 0
 1122.33333333 816 1099 794 1073 776 c 0
 1047 758 1020 743.333333333 992 732 c 0
 964.666666667 720.666666667 938.333333333 712 913 706 c 0
 887.666666667 700 865.666666667 695.333333333 847 692 c 0
 893 683.333333333 932 670.333333333 964 653 c 0
 996 635.666666667 1022.66666667 615.333333333 1044 592 c 0
 1066 568.666666667 1084 543.333333333 1098 516 c 0
 1112 488.666666667 1124 460.666666667 1134 432 c 0
 1144 402.666666667 1153 373.666666667 1161 345 c 0
 1169 316.333333333 1178 289 1188 263 c 0
 1198 237 1210 213.333333333 1224 192 c 0
 1238 170.666666667 1256 152.666666667 1278 138 c 0
 1300 123.333333333 1327 113 1359 107 c 0
 1391 101 1430.33333333 100.666666667 1477 106 c 0
 1477 0 l 0
EndSplineSet
EndChar

StartChar: S
Encoding: 54 83 54
Width: 1124
VWidth: 1024
Flags: HW
LayerCount: 2
Fore
SplineSet
1047 411 m 0
 1047 337 1031.33333333 272.333333333 1000 217 c 0
 969.333333333 161.666666667 928.333333333 115.333333333 877 78 c 0
 825.666666667 41.3333333333 766 13.3333333333 698 -6 c 0
 630.666666667 -24.6666666667 560 -34 486 -34 c 0
 430.666666667 -34 378.666666667 -30 330 -22 c 0
 281.333333333 -14 238.333333333 -4.66666666667 201 6 c 0
 157 17.3333333333 116 30.6666666667 78 46 c 0
 78 430 l 0
 244 430 l 0
 279 176 l 0
 280.333333333 168 284.333333333 160.666666667 291 154 c 0
 297.666666667 147.333333333 302.666666667 144 306 144 c 0
 322.666666667 137.333333333 339.666666667 131.333333333 357 126 c 0
 373 121.333333333 390.666666667 117.333333333 410 114 c 0
 429.333333333 110.666666667 448.666666667 109 468 109 c 0
 498.666666667 109 530 112.666666667 562 120 c 0
 594 127.333333333 623.333333333 139 650 155 c 0
 676 171 697.333333333 191.333333333 714 216 c 0
 730.666666667 241.333333333 738.666666667 271.333333333 738 306 c 0
 738 350 728 387.666666667 708 419 c 0
 687.333333333 451 660.666666667 479.666666667 628 505 c 0
 595.333333333 530.333333333 558.333333333 554 517 576 c 0
 475.666666667 597.333333333 434 619.333333333 392 642 c 0
 355.333333333 662 319.666666667 683.333333333 285 706 c 0
 250.333333333 728.666666667 220 754.666666667 194 784 c 0
 167.333333333 813.333333333 146 847 130 885 c 0
 114 922.333333333 106 965.666666667 106 1015 c 0
 106 1083 119.666666667 1143.66666667 147 1197 c 0
 174.333333333 1249.66666667 211.333333333 1294 258 1330 c 0
 304.666666667 1366 358.333333333 1393.66666667 419 1413 c 0
 480.333333333 1431.66666667 544.666666667 1441 612 1441 c 0
 665.333333333 1441 716 1436.33333333 764 1427 c 0
 812 1418.33333333 854.333333333 1409 891 1399 c 0
 933 1387 972.333333333 1373 1009 1357 c 0
 1009 1013 l 0
 847 1013 l 0
 812 1237 l 0
 811.333333333 1239.66666667 809.333333333 1242.66666667 806 1246 c 0
 802.666666667 1249.33333333 799.666666667 1252.66666667 797 1256 c 0
 793 1259.33333333 788 1263 782 1267 c 0
 774.666666667 1273 765 1278.33333333 753 1283 c 0
 743 1287 730 1291 714 1295 c 0
 698 1299 678.666666667 1300.66666667 656 1300 c 0
 621.333333333 1300 588.666666667 1296 558 1288 c 0
 526.666666667 1280 499.333333333 1268 476 1252 c 0
 452.666666667 1236 433.666666667 1216.33333333 419 1193 c 0
 405 1169 398 1141.66666667 398 1111 c 0
 398 1074.33333333 406 1041.66666667 422 1013 c 0
 438 985 459 959.666666667 485 937 c 0
 511 914.333333333 541 894 575 876 c 0
 609 857.333333333 644.666666667 838.666666667 682 820 c 0
 726 798 769.666666667 775.333333333 813 752 c 0
 856.333333333 728 895.333333333 700.333333333 930 669 c 0
 964.666666667 637.666666667 992.666666667 601.333333333 1014 560 c 0
 1036 518.666666667 1047 469 1047 411 c 0
EndSplineSet
EndChar

StartChar: T
Encoding: 55 84 55
Width: 1275
VWidth: 1024
Flags: HW
LayerCount: 2
Fore
SplineSet
1091 1023 m 0
 1053 1256 l 0
 1051 1272.66666667 1041 1281 1023 1281 c 0
 788 1281 l 0
 788 164 l 0
 788 150.666666667 792.666666667 140 802 132 c 0
 811.333333333 124 822.333333333 119.333333333 835 118 c 0
 958 106 l 0
 958 0 l 0
 318 0 l 0
 318 106 l 0
 440 118 l 0
 452.666666667 119.333333333 464 124 474 132 c 0
 483.333333333 140 488 150.666666667 488 164 c 0
 488 1281 l 0
 254 1281 l 0
 234.666666667 1281 224 1272.66666667 222 1256 c 0
 184 1023 l 0
 34 1023 l 0
 34 1407 l 0
 1243 1407 l 0
 1243 1023 l 0
 1091 1023 l 0
EndSplineSet
EndChar

StartChar: U
Encoding: 56 85 56
Width: 1527
VWidth: 1024
Flags: HW
LayerCount: 2
Fore
SplineSet
1363 1290 m 0
 1351.66666667 1288.66666667 1341 1284 1331 1276 c 0
 1321.66666667 1268 1317 1257 1317 1243 c 0
 1317 532 l 0
 1317 428.666666667 1305.33333333 341.333333333 1282 270 c 0
 1258.66666667 198 1223.66666667 139.333333333 1177 94 c 0
 1129.66666667 48.6666666667 1070 16 998 -4 c 0
 926 -24 840.666666667 -34 742 -34 c 0
 562 -34 428 14.3333333333 340 111 c 0
 252 207.666666667 208 348 208 532 c 0
 208 1243 l 0
 208 1256.33333333 203 1267.33333333 193 1276 c 0
 183 1284 172 1288.66666667 160 1290 c 0
 46 1300 l 0
 46 1407 l 0
 667 1407 l 0
 667 1300 l 0
 554 1290 l 0
 542.666666667 1288.66666667 532 1284 522 1276 c 0
 512.666666667 1268 508 1257 508 1243 c 0
 508 516 l 0
 508 384.666666667 535.666666667 289.333333333 591 230 c 0
 646.333333333 170 731.666666667 140 847 140 c 0
 902.333333333 140 949.333333333 149 988 167 c 0
 1026.66666667 185 1058.66666667 210.666666667 1084 244 c 0
 1109.33333333 276.666666667 1128 316 1140 362 c 0
 1151.33333333 408 1157 459.333333333 1157 516 c 0
 1157 1243 l 0
 1157 1256.33333333 1152.66666667 1267.33333333 1144 1276 c 0
 1135.33333333 1284 1124.33333333 1288.66666667 1111 1290 c 0
 992 1300 l 0
 992 1407 l 0
 1475 1407 l 0
 1475 1300 l 0
 1363 1290 l 0
EndSplineSet
EndChar

StartChar: V
Encoding: 57 86 57
Width: 1480
VWidth: 1024
Flags: HW
LayerCount: 2
Fore
SplineSet
1327 1283 m 0
 845 -34 l 0
 646 -34 l 0
 156 1281 l 0
 20 1300 l 0
 20 1407 l 0
 618 1407 l 0
 618 1300 l 0
 501 1285 l 0
 489 1283 481.666666667 1277 479 1267 c 0
 476.333333333 1257 476.666666667 1247.66666667 480 1239 c 0
 812 327 l 0
 1133 1241 l 0
 1135 1249.66666667 1134.33333333 1258.66666667 1131 1268 c 0
 1127.66666667 1277.33333333 1118.33333333 1283 1103 1285 c 0
 990 1300 l 0
 990 1407 l 0
 1459 1407 l 0
 1459 1300 l 0
 1327 1283 l 0
EndSplineSet
EndChar

StartChar: W
Encoding: 58 87 58
Width: 2025
VWidth: 1024
Flags: HW
LayerCount: 2
Fore
SplineSet
1877 1283 m 0
 1547 -34 l 0
 1349 -34 l 0
 1021 1057 l 0
 700 -34 l 0
 499 -34 l 0
 148 1283 l 0
 20 1300 l 0
 20 1407 l 0
 592 1407 l 0
 592 1300 l 0
 468 1287 l 0
 455.333333333 1285.66666667 448.333333333 1280.33333333 447 1271 c 0
 445.666666667 1261.66666667 446.333333333 1252.33333333 449 1243 c 0
 671 413 l 0
 965 1407 l 0
 1191 1407 l 0
 1495 390 l 0
 1705 1243 l 0
 1707 1251.66666667 1706.33333333 1260.66666667 1703 1270 c 0
 1699.66666667 1279.33333333 1690.33333333 1285 1675 1287 c 0
 1541 1300 l 0
 1541 1407 l 0
 2005 1407 l 0
 2005 1300 l 0
 1877 1283 l 0
EndSplineSet
EndChar

StartChar: X
Encoding: 59 88 59
Width: 1406
VWidth: 1024
Flags: HW
LayerCount: 2
Fore
SplineSet
757 0 m 0
 757 106 l 0
 885 116 l 0
 894.333333333 117.333333333 900.666666667 122.666666667 904 132 c 0
 907.333333333 141.333333333 904.333333333 152.666666667 895 166 c 0
 660 535 l 0
 378 168 l 0
 372.666666667 162 369.666666667 156 369 150 c 0
 368.333333333 144 369 138.666666667 371 134 c 0
 373 129.333333333 375.666666667 125.666666667 379 123 c 0
 383 120.333333333 386.666666667 118.666666667 390 118 c 0
 516 106 l 0
 516 0 l 0
 20 0 l 0
 20 106 l 0
 156 124 l 0
 572 671 l 0
 180 1281 l 0
 48 1300 l 0
 48 1407 l 0
 663 1407 l 0
 663 1300 l 0
 552 1290 l 0
 544.666666667 1290 539 1285 535 1275 c 0
 531 1265 533 1253 541 1239 c 0
 751 908 l 0
 1009 1241 l 0
 1018.33333333 1252.33333333 1021 1263.66666667 1017 1275 c 0
 1013 1286.33333333 1006 1292 996 1292 c 0
 885 1300 l 0
 885 1407 l 0
 1363 1407 l 0
 1363 1300 l 0
 1231 1281 l 0
 839 772 l 0
 1254 124 l 0
 1386 106 l 0
 1386 0 l 0
 757 0 l 0
EndSplineSet
EndChar

StartChar: Y
Encoding: 60 89 60
Width: 1390
VWidth: 1024
Flags: HW
LayerCount: 2
Fore
SplineSet
1248 1281 m 0
 860 608 l 0
 860 164 l 0
 860 150.666666667 864.333333333 140 873 132 c 0
 881.666666667 124 892.666666667 119.333333333 906 118 c 0
 1034 106 l 0
 1034 0 l 0
 384 0 l 0
 384 106 l 0
 512 118 l 0
 523.333333333 119.333333333 534.333333333 124 545 132 c 0
 555 140 560 150.666666667 560 164 c 0
 560 550 l 0
 156 1281 l 0
 20 1300 l 0
 20 1407 l 0
 616 1407 l 0
 616 1300 l 0
 506 1290 l 0
 498.666666667 1290 493 1285 489 1275 c 0
 485 1265 487 1253 495 1239 c 0
 759 742 l 0
 1044 1241 l 0
 1051.33333333 1253.66666667 1054 1265.33333333 1052 1276 c 0
 1049.33333333 1286.66666667 1043.33333333 1292 1034 1292 c 0
 906 1300 l 0
 906 1407 l 0
 1369 1407 l 0
 1369 1300 l 0
 1248 1281 l 0
EndSplineSet
EndChar

StartChar: Z
Encoding: 61 90 61
Width: 1218
VWidth: 1024
Flags: HW
LayerCount: 2
Fore
SplineSet
78 0 m 0
 78 124 l 0
 797 1279 l 0
 334 1279 l 0
 316 1279 306 1270.66666667 304 1254 c 0
 266 1025 l 0
 114 1025 l 0
 114 1407 l 0
 1130 1407 l 0
 1130 1283 l 0
 413 130 l 0
 914 130 l 0
 931.333333333 130 942 138 946 154 c 0
 988 413 l 0
 1141 413 l 0
 1141 0 l 0
 78 0 l 0
EndSplineSet
EndChar

StartChar: bracketleft
Encoding: 62 91 62
Width: 1148
VWidth: 1024
Flags: HW
LayerCount: 2
Fore
SplineSet
492 -276 m 0
 492 1485 l 0
 1073 1485 l 0
 1073 1359 l 0
 752 1359 l 0
 752 -156 l 0
 1073 -156 l 0
 1073 -276 l 0
 492 -276 l 0
EndSplineSet
EndChar

StartChar: backslash
Encoding: 63 92 63
Width: 1036
VWidth: 1024
Flags: HW
LayerCount: 2
Fore
SplineSet
872 -195 m 0
 0 1407 l 0
 164 1407 l 0
 1036 -195 l 0
 872 -195 l 0
EndSplineSet
EndChar

StartChar: bracketright
Encoding: 64 93 64
Width: 1234
VWidth: 1024
Flags: HW
LayerCount: 2
Fore
SplineSet
76 -276 m 0
 76 -156 l 0
 396 -156 l 0
 396 1359 l 0
 76 1359 l 0
 76 1485 l 0
 656 1485 l 0
 656 -276 l 0
 76 -276 l 0
EndSplineSet
EndChar

StartChar: asciicircum
Encoding: 65 94 65
Width: 712
VWidth: 1024
Flags: HW
LayerCount: 2
Fore
SplineSet
754 578 m 0
 663 677 l 0
 571 578 l 0
 484 578 l 0
 601 757 l 0
 724 757 l 0
 841 578 l 0
 754 578 l 0
EndSplineSet
EndChar

StartChar: underscore
Encoding: 66 95 66
Width: 712
VWidth: 1024
Flags: HW
LayerCount: 2
Fore
SplineSet
0 -348 m 0
 0 -179 l 0
 713 -179 l 0
 713 -348 l 0
 0 -348 l 0
EndSplineSet
EndChar

StartChar: grave
Encoding: 67 96 67
Width: 784
VWidth: 1024
Flags: HW
LayerCount: 2
Fore
SplineSet
669 578 m 0
 499 670 l 0
 495 672 491.333333333 675 488 679 c 0
 484.666666667 682.333333333 482 686 480 690 c 0
 477.333333333 694 475.666666667 698.333333333 475 703 c 0
 473.666666667 707 473 710.666666667 473 714 c 0
 473 720 474 726.333333333 476 733 c 0
 478 739.666666667 481.333333333 745.666666667 486 751 c 0
 490.666666667 756.333333333 496.666666667 760.666666667 504 764 c 0
 512 767.333333333 521.333333333 769.333333333 532 770 c 0
 539.333333333 770 545.666666667 769.333333333 551 768 c 0
 556.333333333 766.666666667 561.666666667 765 567 763 c 0
 571.666666667 760.333333333 576.666666667 756.666666667 582 752 c 0
 586.666666667 748 592.333333333 742.666666667 599 736 c 0
 742 578 l 0
 669 578 l 0
EndSplineSet
EndChar

StartChar: a
Encoding: 68 97 68
Width: 1159
VWidth: 1024
Flags: HW
LayerCount: 2
Fore
SplineSet
707 541 m 0
 639.666666667 527.666666667 583.666666667 513.666666667 539 499 c 0
 495 484.333333333 460 468 434 450 c 0
 408 431.333333333 390 410.333333333 380 387 c 0
 370 363.666666667 365 336 365 304 c 0
 365 282 368.333333333 261.666666667 375 243 c 0
 382.333333333 224.333333333 392.666666667 208 406 194 c 0
 419.333333333 180 435.333333333 169 454 161 c 0
 472.666666667 153 492.666666667 148.666666667 514 148 c 0
 536.666666667 148 559.333333333 150.666666667 582 156 c 0
 604.666666667 160.666666667 625.333333333 165.666666667 644 171 c 0
 666 177.666666667 687 185.666666667 707 195 c 0
 707 541 l 0
734 0 m 0
 707 104 l 0
 671 79.3333333333 633 57.6666666667 593 39 c 0
 558.333333333 22.3333333333 519.333333333 7.33333333333 476 -6 c 0
 432.666666667 -19.3333333333 388 -26 342 -26 c 0
 304 -26 268.333333333 -19.6666666667 235 -7 c 0
 201.666666667 5.66666666667 172.666666667 24 148 48 c 0
 123.333333333 71.3333333333 103.666666667 99.6666666667 89 133 c 0
 74.3333333333 166.333333333 67.3333333333 204 68 246 c 0
 68 277.333333333 70.3333333333 306.333333333 75 333 c 0
 80.3333333333 359.666666667 90.6666666667 384.333333333 106 407 c 0
 121.333333333 429.666666667 143.333333333 451.666666667 172 473 c 0
 200.666666667 493.666666667 238.666666667 514 286 534 c 0
 333.333333333 554 391.666666667 573.666666667 461 593 c 0
 529.666666667 613 612.333333333 633.333333333 709 654 c 0
 709 680 l 0
 709 690 709.333333333 699.333333333 710 708 c 0
 710 717.333333333 710.333333333 726.666666667 711 736 c 0
 711.666666667 756 709.666666667 777.333333333 705 800 c 0
 700.333333333 822.666666667 690.666666667 844 676 864 c 0
 661.333333333 883.333333333 641 899.333333333 615 912 c 0
 589 924.666666667 555.333333333 931 514 931 c 0
 499.333333333 931 486.666666667 930.666666667 476 930 c 0
 464.666666667 929.333333333 455 928.333333333 447 927 c 0
 438.333333333 925.666666667 430.666666667 924.333333333 424 923 c 0
 424 724 l 0
 208 724 l 0
 190 722.666666667 174.333333333 724.333333333 161 729 c 0
 149.666666667 733 139 740.333333333 129 751 c 0
 119 761 114 777 114 799 c 0
 114 837.666666667 127.666666667 872.333333333 155 903 c 0
 182.333333333 933.666666667 218.666666667 960 264 982 c 0
 308.666666667 1003.33333333 358.666666667 1019.66666667 414 1031 c 0
 469.333333333 1042.33333333 525 1048.33333333 581 1049 c 0
 641 1049 695.666666667 1044.33333333 745 1035 c 0
 795 1026.33333333 838 1009.33333333 874 984 c 0
 910 958.666666667 937.666666667 922.666666667 957 876 c 0
 976.333333333 829.333333333 986 768 986 692 c 0
 986 154 l 0
 986 141.333333333 990.333333333 130 999 120 c 0
 1007.66666667 110.666666667 1018.66666667 105.333333333 1032 104 c 0
 1124 98 l 0
 1124 0 l 0
 734 0 l 0
EndSplineSet
EndChar

StartChar: b
Encoding: 69 98 69
Width: 1253
VWidth: 1024
Flags: HW
LayerCount: 2
Fore
SplineSet
883 512 m 0
 883 568.666666667 876.333333333 619.333333333 863 664 c 0
 850.333333333 708.666666667 831.333333333 746.666666667 806 778 c 0
 780.666666667 809.333333333 749 833.333333333 711 850 c 0
 673 866.666666667 629.666666667 874.666666667 581 874 c 0
 568.333333333 874 555.333333333 873.333333333 542 872 c 0
 529.333333333 870.666666667 517.666666667 869.333333333 507 868 c 0
 470 862 l 0
 470 118 l 0
 482 118 490.666666667 117.666666667 496 117 c 0
 501.333333333 116.333333333 507.333333333 116 514 116 c 0
 572 116 624 122.666666667 670 136 c 0
 716 149.333333333 754.333333333 171.333333333 785 202 c 0
 816.333333333 233.333333333 840.666666667 274.333333333 858 325 c 0
 874.666666667 375 883 437.333333333 883 512 c 0
1187 574 m 0
 1187 493.333333333 1173.33333333 418.333333333 1146 349 c 0
 1118.66666667 279 1079 218 1027 166 c 0
 975 114.666666667 910.666666667 74.3333333333 834 45 c 0
 758 15 670.666666667 0 572 0 c 0
 188 0 l 0
 188 1361 l 0
 42 1361 l 0
 42 1447 l 0
 362 1552 l 0
 470 1552 l 0
 470 952 l 0
 499.333333333 970 530.333333333 986 563 1000 c 0
 591.666666667 1011.33333333 624 1022.33333333 660 1033 c 0
 696 1043 734 1048.33333333 774 1049 c 0
 830 1049 883 1038.33333333 933 1017 c 0
 983 995.666666667 1027 964.666666667 1065 924 c 0
 1102.33333333 883.333333333 1132 833.666666667 1154 775 c 0
 1176 716.333333333 1187 649.333333333 1187 574 c 0
EndSplineSet
EndChar

StartChar: c
Encoding: 70 99 70
Width: 1052
VWidth: 1024
Flags: HW
LayerCount: 2
Fore
SplineSet
988 92 m 0
 970 84 948.333333333 73.3333333333 923 60 c 0
 897.666666667 47.3333333333 868 34.6666666667 834 22 c 0
 800 9.33333333333 761.666666667 -2 719 -12 c 0
 675.666666667 -21.3333333333 627.333333333 -26 574 -26 c 0
 492 -26 419.666666667 -12 357 16 c 0
 294.333333333 44 241.666666667 82 199 130 c 0
 155.666666667 177.333333333 123 232 101 294 c 0
 79 356 68 421.333333333 68 490 c 0
 68 572.666666667 82 648.333333333 110 717 c 0
 138 785.666666667 176.666666667 844.666666667 226 894 c 0
 274.666666667 943.333333333 331.666666667 981.333333333 397 1008 c 0
 462.333333333 1034.66666667 532.666666667 1048.33333333 608 1049 c 0
 663.333333333 1049 713.333333333 1043.33333333 758 1032 c 0
 802.666666667 1020.66666667 840.666666667 1004.66666667 872 984 c 0
 904 963.333333333 928.333333333 939 945 911 c 0
 962.333333333 883 971 852 971 818 c 0
 971 794 966.666666667 772.666666667 958 754 c 0
 949.333333333 734.666666667 938.333333333 718 925 704 c 0
 911.666666667 690 896 679.333333333 878 672 c 0
 860 664.666666667 841.333333333 660.666666667 822 660 c 0
 800 660 781.666666667 661.666666667 767 665 c 0
 752.333333333 667.666666667 740 671 730 675 c 0
 720 679.666666667 711 684.666666667 703 690 c 0
 695.666666667 695.333333333 688.666666667 700.333333333 682 705 c 0
 682 940 l 0
 673.333333333 940 666.333333333 940.333333333 661 941 c 0
 655.666666667 941.666666667 649.333333333 942 642 942 c 0
 610 942 578 934 546 918 c 0
 514 901.333333333 485.666666667 876.666666667 461 844 c 0
 435.666666667 811.333333333 415 770.666666667 399 722 c 0
 383 673.333333333 375.333333333 616.666666667 376 552 c 0
 376 490.666666667 383.333333333 435.333333333 398 386 c 0
 412.666666667 336.666666667 433.666666667 294.333333333 461 259 c 0
 488.333333333 224.333333333 521.666666667 197.666666667 561 179 c 0
 600.333333333 160.333333333 644.666666667 151 694 151 c 0
 726 151 758.333333333 155.333333333 791 164 c 0
 823 172.666666667 852.333333333 183 879 195 c 0
 905.666666667 206.333333333 929 217.666666667 949 229 c 0
 968.333333333 240.333333333 981.333333333 248.666666667 988 254 c 0
 988 92 l 0
EndSplineSet
EndChar

StartChar: d
Encoding: 71 100 71
Width: 1275
VWidth: 1024
Flags: HW
LayerCount: 2
Fore
SplineSet
810 0 m 0
 810 122 l 0
 802 118 787.333333333 108 766 92 c 0
 744.666666667 76 719 59 689 41 c 0
 659 23.6666666667 626 8.33333333333 590 -5 c 0
 554 -18.3333333333 516.666666667 -25.3333333333 478 -26 c 0
 414 -26 356.666666667 -13 306 13 c 0
 255.333333333 39 212.333333333 75 177 121 c 0
 141.666666667 167 114.666666667 221.333333333 96 284 c 0
 77.3333333333 346.666666667 68 414.666666667 68 488 c 0
 68 578 81.6666666667 658 109 728 c 0
 136.333333333 797.333333333 174 856 222 904 c 0
 270.666666667 951.333333333 328.333333333 987.333333333 395 1012 c 0
 461.666666667 1036.66666667 534.666666667 1049 614 1049 c 0
 634 1049 655.333333333 1047.33333333 678 1044 c 0
 700.666666667 1041.33333333 722 1038.33333333 742 1035 c 0
 764.666666667 1031.66666667 787.333333333 1027.66666667 810 1023 c 0
 810 1361 l 0
 654 1361 l 0
 654 1447 l 0
 981 1552 l 0
 1089 1552 l 0
 1089 154 l 0
 1089 141.333333333 1093.33333333 130 1102 120 c 0
 1110.66666667 110.666666667 1121.66666667 105.333333333 1135 104 c 0
 1223 98 l 0
 1223 0 l 0
 810 0 l 0
810 885 m 0
 793.333333333 891.666666667 776.333333333 897.666666667 759 903 c 0
 743.666666667 907.666666667 727.333333333 912 710 916 c 0
 692.666666667 920 676 922.333333333 660 923 c 0
 611.333333333 923 569.333333333 913 534 893 c 0
 498 873 468 845.666666667 444 811 c 0
 420.666666667 776.333333333 403 735.333333333 391 688 c 0
 379.666666667 640.666666667 374 590.333333333 374 537 c 0
 374 481.666666667 379.666666667 431.333333333 391 386 c 0
 402.333333333 340.666666667 419 302 441 270 c 0
 463.666666667 237.333333333 492 212.333333333 526 195 c 0
 560 177 600 168 646 168 c 0
 665.333333333 168 684.666666667 170 704 174 c 0
 723.333333333 178 741 182.333333333 757 187 c 0
 775.666666667 193 793.333333333 200 810 208 c 0
 810 885 l 0
EndSplineSet
EndChar

StartChar: e
Encoding: 72 101 72
Width: 1107
VWidth: 1024
Flags: HW
LayerCount: 2
Fore
SplineSet
1044 98 m 0
 1008 74 967.666666667 53.3333333333 923 36 c 0
 884.333333333 20 837.666666667 5.66666666667 783 -7 c 0
 729 -19.6666666667 668.666666667 -26 602 -26 c 0
 512.666666667 -26 434.666666667 -12.3333333333 368 15 c 0
 301.333333333 42.3333333333 245.666666667 79.6666666667 201 127 c 0
 156.333333333 174.333333333 123 230 101 294 c 0
 79 357.333333333 68 425.666666667 68 499 c 0
 68 578.333333333 80.3333333333 651.333333333 105 718 c 0
 129.666666667 785.333333333 165 843.333333333 211 892 c 0
 257 940.666666667 312.666666667 979 378 1007 c 0
 443.333333333 1034.33333333 516 1048.33333333 596 1049 c 0
 678 1049 747.333333333 1035.33333333 804 1008 c 0
 861.333333333 981.333333333 907.666666667 945.666666667 943 901 c 0
 978.333333333 856.333333333 1004 805.333333333 1020 748 c 0
 1036 690.666666667 1044 631.333333333 1044 570 c 0
 1044 520 l 0
 356 520 l 0
 356 462.666666667 363.333333333 411.333333333 378 366 c 0
 392.666666667 320 413.666666667 281 441 249 c 0
 468.333333333 217 502.333333333 192.333333333 543 175 c 0
 583 157.666666667 628.666666667 148.666666667 680 148 c 0
 733.333333333 148 782 154 826 166 c 0
 870 178 908.333333333 191.666666667 941 207 c 0
 978.333333333 225 1012.66666667 244.666666667 1044 266 c 0
 1044 98 l 0
744 684 m 0
 744 717.333333333 741 748.666666667 735 778 c 0
 729 807.333333333 719 833 705 855 c 0
 691 876.333333333 673 893.333333333 651 906 c 0
 629 918.666666667 602.666666667 925 572 925 c 0
 533.333333333 925 501 916.333333333 475 899 c 0
 449 881.666666667 427.666666667 859 411 831 c 0
 395 803.666666667 383.666666667 772.666666667 377 738 c 0
 370.333333333 704 367 670.666666667 367 638 c 0
 744 638 l 0
 744 684 l 0
EndSplineSet
EndChar

StartChar: f
Encoding: 73 102 73
Width: 727
VWidth: 1024
Flags: HW
LayerCount: 2
Fore
SplineSet
881 1384 m 0
 881 1367.33333333 877.333333333 1352 870 1338 c 0
 862.666666667 1323.33333333 853 1310.33333333 841 1299 c 0
 829 1287 815.333333333 1276.66666667 800 1268 c 0
 784 1259.33333333 767.666666667 1252 751 1246 c 0
 543 1441 l 0
 533 1425 523.666666667 1408.33333333 515 1391 c 0
 506.333333333 1373.66666667 499.333333333 1353 494 1329 c 0
 488.666666667 1305 484.333333333 1276 481 1242 c 0
 477.666666667 1208.66666667 476 1168 476 1120 c 0
 476 998 l 0
 705 998 l 0
 705 864 l 0
 478 864 l 0
 478 154 l 0
 478 141.333333333 482.333333333 129.666666667 491 119 c 0
 499.666666667 109 510.666666667 104 524 104 c 0
 652 98 l 0
 652 0 l 0
 44 0 l 0
 44 98 l 0
 151 104 l 0
 163.666666667 105.333333333 174.666666667 110.666666667 184 120 c 0
 193.333333333 129.333333333 198 140.666666667 198 154 c 0
 198 864 l 0
 60 864 l 0
 60 948 l 0
 195 1017 l 0
 195 1072.33333333 202.666666667 1124.66666667 218 1174 c 0
 233.333333333 1223.33333333 256 1271 286 1317 c 0
 306.666666667 1351 330.666666667 1382.33333333 358 1411 c 0
 385.333333333 1439.66666667 416 1464.66666667 450 1486 c 0
 483.333333333 1507.33333333 519.333333333 1523.66666667 558 1535 c 0
 596.666666667 1546.33333333 637.333333333 1552 680 1552 c 0
 700.666666667 1552 722.666666667 1549 746 1543 c 0
 769.333333333 1536.33333333 791.333333333 1526.33333333 812 1513 c 0
 832 1499.66666667 848.333333333 1482.33333333 861 1461 c 0
 874.333333333 1439 881 1413.33333333 881 1384 c 0
EndSplineSet
EndChar

StartChar: g
Encoding: 74 103 74
Width: 1163
VWidth: 1024
Flags: HW
LayerCount: 2
Fore
SplineSet
961 860 m 0
 968.333333333 844.666666667 975 828.666666667 981 812 c 0
 986.333333333 796.666666667 991.333333333 779.666666667 996 761 c 0
 1000.66666667 742.333333333 1002.66666667 722 1002 700 c 0
 1002 652.666666667 994.333333333 611.333333333 979 576 c 0
 963 540 942 509 916 483 c 0
 890 457 859.666666667 435 825 417 c 0
 791 399 755.333333333 385 718 375 c 0
 680.666666667 365 643.333333333 358 606 354 c 0
 568.666666667 350.666666667 533.666666667 350 501 352 c 0
 489 344 477.666666667 335.666666667 467 327 c 0
 457 318.333333333 449.333333333 308.666666667 444 298 c 0
 438.666666667 288 436 277.333333333 436 266 c 0
 435.333333333 254.666666667 438 241.333333333 444 226 c 0
 558.666666667 216.666666667 656.666666667 203.333333333 738 186 c 0
 818.666666667 168.666666667 884.666666667 147.666666667 936 123 c 0
 987.333333333 97.6666666667 1024.66666667 67.6666666667 1048 33 c 0
 1071.33333333 -1.66666666667 1082.66666667 -40.6666666667 1082 -84 c 0
 1082 -124 1074.33333333 -162 1059 -198 c 0
 1043.66666667 -233.333333333 1022.66666667 -265.666666667 996 -295 c 0
 969.333333333 -325 938 -351.666666667 902 -375 c 0
 866 -398.333333333 827 -418.333333333 785 -435 c 0
 743 -451 699 -463.333333333 653 -472 c 0
 607 -480.666666667 561.333333333 -484.666666667 516 -484 c 0
 460.666666667 -484 406.333333333 -477.666666667 353 -465 c 0
 299.666666667 -452.333333333 251.666666667 -433 209 -407 c 0
 167 -380.333333333 132.666666667 -346.333333333 106 -305 c 0
 80 -264.333333333 67.3333333333 -216 68 -160 c 0
 68 -116 76 -79.6666666667 92 -51 c 0
 108.666666667 -21.6666666667 128.333333333 1.66666666667 151 19 c 0
 173.666666667 36.3333333333 196.666666667 48 220 54 c 0
 243.333333333 60 262 62 276 60 c 0
 266.666666667 79.3333333333 260 99.3333333333 256 120 c 0
 252 140.666666667 250 158 250 172 c 0
 250 190 252.333333333 207 257 223 c 0
 261.666666667 239 269 254.666666667 279 270 c 0
 288.333333333 285.333333333 300.333333333 300.666666667 315 316 c 0
 329.666666667 332 347 349 367 367 c 0
 348.333333333 371 324.333333333 379.333333333 295 392 c 0
 265.666666667 404.666666667 237.333333333 423.666666667 210 449 c 0
 182.666666667 473.666666667 159 505 139 543 c 0
 119 581 109 627.333333333 109 682 c 0
 109 744.666666667 121 799 145 845 c 0
 169 891 202 929 244 959 c 0
 286 989 335.333333333 1011.66666667 392 1027 c 0
 448 1041.66666667 508 1049 572 1049 c 0
 604.666666667 1049 635.666666667 1046.33333333 665 1041 c 0
 694.333333333 1036.33333333 721.333333333 1031 746 1025 c 0
 770.666666667 1018.33333333 793.666666667 1011.33333333 815 1004 c 0
 835.666666667 996.666666667 854.666666667 990 872 984 c 0
 1145 984 l 0
 1145 860 l 0
 961 860 l 0
726 705 m 0
 726 733.666666667 722.666666667 762.333333333 716 791 c 0
 709.333333333 820.333333333 699.666666667 846.333333333 687 869 c 0
 673.666666667 891.666666667 657 910.333333333 637 925 c 0
 617 939.666666667 594 946.666666667 568 946 c 0
 536.666666667 946 510 939 488 925 c 0
 466 911 448.666666667 892.333333333 436 869 c 0
 422.666666667 845.666666667 413 819.666666667 407 791 c 0
 401 761.666666667 398 732 398 702 c 0
 398 671.333333333 401.333333333 641 408 611 c 0
 414.666666667 580.333333333 424.666666667 553.333333333 438 530 c 0
 451.333333333 506.666666667 468.333333333 487.666666667 489 473 c 0
 510.333333333 458.333333333 535.333333333 451 564 451 c 0
 592.666666667 451 617 458.333333333 637 473 c 0
 657 487.666666667 674 507 688 531 c 0
 701.333333333 555 711 582.333333333 717 613 c 0
 723 643.666666667 726 674.333333333 726 705 c 0
812 -144 m 0
 812 -119.333333333 804.666666667 -98.3333333333 790 -81 c 0
 774.666666667 -63 755 -47.6666666667 731 -35 c 0
 707 -22.3333333333 680 -12 650 -4 c 0
 620 4 590 10.6666666667 560 16 c 0
 530 21.3333333333 501.666666667 25 475 27 c 0
 448.333333333 29.6666666667 426.333333333 32 409 34 c 0
 402.333333333 24 395 13.3333333333 387 2 c 0
 379.666666667 -8.66666666667 372.666666667 -20.6666666667 366 -34 c 0
 359.333333333 -46.6666666667 354 -61 350 -77 c 0
 346 -93 344 -110.666666667 344 -130 c 0
 343.333333333 -163.333333333 350 -194.666666667 364 -224 c 0
 377.333333333 -253.333333333 395 -278.666666667 417 -300 c 0
 439 -321.333333333 463.666666667 -338 491 -350 c 0
 518.333333333 -362 546 -368.333333333 574 -369 c 0
 602 -369 630.333333333 -363.666666667 659 -353 c 0
 687 -342.333333333 712.333333333 -327.333333333 735 -308 c 0
 757.666666667 -288.666666667 776.333333333 -265 791 -237 c 0
 805 -209 812 -178 812 -144 c 0
EndSplineSet
EndChar

StartChar: h
Encoding: 75 104 75
Width: 1312
VWidth: 1024
Flags: HW
LayerCount: 2
Fore
SplineSet
730 0 m 0
 730 98 l 0
 797 104 l 0
 809.666666667 105.333333333 820.333333333 110.666666667 829 120 c 0
 837.666666667 129.333333333 842.333333333 140.666666667 843 154 c 0
 843 648 l 0
 843 665.333333333 841 686 837 710 c 0
 833 734 825 756.666666667 813 778 c 0
 801 799.333333333 783.333333333 817.666666667 760 833 c 0
 736.666666667 848.333333333 705.666666667 856 667 856 c 0
 645.666666667 856 623.666666667 854.333333333 601 851 c 0
 578.333333333 847.666666667 557 844.666666667 537 842 c 0
 514.333333333 838 492 833.333333333 470 828 c 0
 470 154 l 0
 470 141.333333333 474.333333333 130 483 120 c 0
 491.666666667 110.666666667 502.666666667 105.333333333 516 104 c 0
 589 98 l 0
 589 0 l 0
 56 0 l 0
 56 98 l 0
 142 104 l 0
 154.666666667 105.333333333 165.666666667 110.666666667 175 120 c 0
 183.666666667 129.333333333 188 140.666666667 188 154 c 0
 188 1361 l 0
 40 1361 l 0
 40 1447 l 0
 360 1552 l 0
 470 1552 l 0
 470 919 l 0
 508.666666667 943 549.333333333 964.333333333 592 983 c 0
 610 991 629 999 649 1007 c 0
 669 1015 689.333333333 1022 710 1028 c 0
 730.666666667 1034 752 1039 774 1043 c 0
 795.333333333 1047 816.333333333 1049 837 1049 c 0
 877.666666667 1049 913.333333333 1043.66666667 944 1033 c 0
 974.666666667 1022.33333333 1000.33333333 1008.33333333 1021 991 c 0
 1042.33333333 973.666666667 1060 953.333333333 1074 930 c 0
 1087.33333333 907.333333333 1097.66666667 883.666666667 1105 859 c 0
 1112.33333333 834.333333333 1117.33333333 810 1120 786 c 0
 1122.66666667 762 1124 739.666666667 1124 719 c 0
 1124 154 l 0
 1124 141.333333333 1128.66666667 130 1138 120 c 0
 1146.66666667 110.666666667 1157.33333333 105.333333333 1170 104 c 0
 1258 98 l 0
 1258 0 l 0
 730 0 l 0
EndSplineSet
EndChar

StartChar: i
Encoding: 76 105 76
Width: 698
VWidth: 1024
Flags: HW
LayerCount: 2
Fore
SplineSet
518 1391 m 0
 518 1368.33333333 513.666666667 1347 505 1327 c 0
 496.333333333 1307 484.666666667 1289.66666667 470 1275 c 0
 454.666666667 1259.66666667 437.333333333 1248 418 1240 c 0
 398 1231.33333333 376.666666667 1227 354 1227 c 0
 331.333333333 1227 310.333333333 1231.33333333 291 1240 c 0
 271 1248.66666667 254 1260.33333333 240 1275 c 0
 225.333333333 1290.33333333 213.666666667 1307.66666667 205 1327 c 0
 196.333333333 1347 192.333333333 1368.33333333 193 1391 c 0
 193 1413.66666667 197 1434.66666667 205 1454 c 0
 213.666666667 1474 225.333333333 1491 240 1505 c 0
 254.666666667 1519.66666667 271.666666667 1531.33333333 291 1540 c 0
 311 1548.66666667 332 1552.66666667 354 1552 c 0
 376.666666667 1552 398 1548 418 1540 c 0
 438 1531.33333333 455.333333333 1519.66666667 470 1505 c 0
 485.333333333 1490.33333333 497 1473.33333333 505 1454 c 0
 513.666666667 1434.66666667 518 1413.66666667 518 1391 c 0
68 0 m 0
 68 98 l 0
 164 104 l 0
 176 105.333333333 186.666666667 110.666666667 196 120 c 0
 205.333333333 129.333333333 210 140.666666667 210 154 c 0
 210 858 l 0
 76 858 l 0
 76 944 l 0
 382 1049 l 0
 488 1049 l 0
 488 154 l 0
 488 141.333333333 493 130 503 120 c 0
 513 110.666666667 524.333333333 105.333333333 537 104 c 0
 638 98 l 0
 638 0 l 0
 68 0 l 0
EndSplineSet
EndChar

StartChar: j
Encoding: 77 106 77
Width: 679
VWidth: 1024
Flags: HW
LayerCount: 2
Fore
SplineSet
510 1391 m 0
 510 1368.33333333 505.666666667 1347 497 1327 c 0
 488.333333333 1307 477 1289.66666667 463 1275 c 0
 448.333333333 1259.66666667 431.333333333 1248 412 1240 c 0
 392 1231.33333333 370.666666667 1227 348 1227 c 0
 325.333333333 1227 304.333333333 1231.33333333 285 1240 c 0
 265 1248.66666667 247.333333333 1260.33333333 232 1275 c 0
 216.666666667 1290.33333333 205 1307.66666667 197 1327 c 0
 188.333333333 1347 184 1368.33333333 184 1391 c 0
 184 1413.66666667 188.333333333 1434.66666667 197 1454 c 0
 205.666666667 1474 217.333333333 1491 232 1505 c 0
 247.333333333 1519.66666667 265 1531.33333333 285 1540 c 0
 305 1548.66666667 326 1552.66666667 348 1552 c 0
 370.666666667 1552 392 1548 412 1540 c 0
 432 1531.33333333 449 1519.66666667 463 1505 c 0
 477.666666667 1490.33333333 489 1473.33333333 497 1454 c 0
 505.666666667 1434.66666667 510 1413.66666667 510 1391 c 0
488 98 m 0
 488 21.3333333333 479 -52.6666666667 461 -124 c 0
 442.333333333 -196 413.333333333 -259.333333333 374 -314 c 0
 336 -366 287.666666667 -407.333333333 229 -438 c 0
 171 -468.666666667 101.333333333 -484 20 -484 c 0
 -8 -484 -34.3333333333 -480.666666667 -59 -474 c 0
 -84.3333333333 -467.333333333 -106.666666667 -457 -126 -443 c 0
 -145.333333333 -429.666666667 -160.666666667 -413 -172 -393 c 0
 -183.333333333 -373 -188.666666667 -350.333333333 -188 -325 c 0
 -188 -306.333333333 -184.666666667 -288.666666667 -178 -272 c 0
 -170.666666667 -255.333333333 -160.666666667 -241 -148 -229 c 0
 -136 -216.333333333 -121.666666667 -206 -105 -198 c 0
 -88.3333333333 -190 -71.3333333333 -185.333333333 -54 -184 c 0
 151 -392 l 0
 159 -379.333333333 166 -364 172 -346 c 0
 178 -328 183 -308.666666667 187 -288 c 0
 191 -267.333333333 194.666666667 -246.333333333 198 -225 c 0
 200.666666667 -203.666666667 203 -182.666666667 205 -162 c 0
 208.333333333 -114 210 -63.3333333333 210 -10 c 0
 210 858 l 0
 60 858 l 0
 60 944 l 0
 382 1049 l 0
 488 1049 l 0
 488 98 l 0
EndSplineSet
EndChar

StartChar: k
Encoding: 78 107 78
Width: 1241
VWidth: 1024
Flags: HW
LayerCount: 2
Fore
SplineSet
799 0 m 0
 799 86 l 0
 568 474 l 0
 470 474 l 0
 470 154 l 0
 470 141.333333333 474.333333333 130 483 120 c 0
 491.666666667 110.666666667 502.666666667 105.333333333 516 104 c 0
 600 98 l 0
 600 0 l 0
 54 0 l 0
 54 98 l 0
 142 104 l 0
 154.666666667 105.333333333 165.666666667 110.666666667 175 120 c 0
 183.666666667 129.333333333 188 140.666666667 188 154 c 0
 188 1361 l 0
 42 1361 l 0
 42 1447 l 0
 362 1552 l 0
 470 1552 l 0
 470 545 l 0
 516 545 l 0
 797 881 l 0
 803.666666667 888.333333333 805.333333333 895.666666667 802 903 c 0
 798.666666667 910.333333333 792 914.666666667 782 916 c 0
 702 925 l 0
 702 1023 l 0
 1139 1023 l 0
 1139 925 l 0
 1000 908 l 0
 776 652 l 0
 1099 109 l 0
 1223 98 l 0
 1223 0 l 0
 799 0 l 0
EndSplineSet
EndChar

StartChar: l
Encoding: 79 108 79
Width: 698
VWidth: 1024
Flags: HW
LayerCount: 2
Fore
SplineSet
60 0 m 0
 60 98 l 0
 164 104 l 0
 177.333333333 105.333333333 188.333333333 110.666666667 197 120 c 0
 205.666666667 128.666666667 210 140 210 154 c 0
 210 1361 l 0
 60 1361 l 0
 60 1447 l 0
 382 1552 l 0
 488 1552 l 0
 488 154 l 0
 488 140.666666667 492.333333333 129.333333333 501 120 c 0
 509.666666667 111.333333333 521 106 535 104 c 0
 640 98 l 0
 640 0 l 0
 60 0 l 0
EndSplineSet
EndChar

StartChar: m
Encoding: 80 109 80
Width: 1898
VWidth: 1024
Flags: HW
LayerCount: 2
Fore
SplineSet
1327 0 m 0
 1327 98 l 0
 1393 104 l 0
 1405 105.333333333 1416 110.666666667 1426 120 c 0
 1436 129.333333333 1441 140.666666667 1441 154 c 0
 1441 658 l 0
 1441 683.333333333 1438 708 1432 732 c 0
 1426 756 1415.66666667 777.333333333 1401 796 c 0
 1387 814.666666667 1368.66666667 829.333333333 1346 840 c 0
 1322.66666667 850.666666667 1293.33333333 856 1258 856 c 0
 1235.33333333 856 1214 854 1194 850 c 0
 1174 846 1156.33333333 842.333333333 1141 839 c 0
 1123 834.333333333 1106.33333333 828.666666667 1091 822 c 0
 1091 154 l 0
 1091 141.333333333 1095.33333333 130 1104 120 c 0
 1112.66666667 110.666666667 1123.66666667 105.333333333 1137 104 c 0
 1202 98 l 0
 1202 0 l 0
 698 0 l 0
 698 98 l 0
 763 104 l 0
 775.666666667 105.333333333 786.666666667 110.666666667 796 120 c 0
 805.333333333 129.333333333 810 140.666666667 810 154 c 0
 810 658 l 0
 810 683.333333333 806.666666667 708 800 732 c 0
 793.333333333 756 782.666666667 777.333333333 768 796 c 0
 753.333333333 814.666666667 734.666666667 829.333333333 712 840 c 0
 689.333333333 850.666666667 661.666666667 856 629 856 c 0
 600.333333333 856 575 854 553 850 c 0
 531.666666667 846 514.333333333 842.333333333 501 839 c 0
 484.333333333 834.333333333 470.666666667 828.666666667 460 822 c 0
 460 154 l 0
 460 141.333333333 464.666666667 130 474 120 c 0
 483.333333333 110.666666667 494.666666667 105.333333333 508 104 c 0
 572 98 l 0
 572 0 l 0
 56 0 l 0
 56 98 l 0
 134 104 l 0
 146.666666667 105.333333333 157.666666667 110.666666667 167 120 c 0
 175.666666667 129.333333333 180 140.666666667 180 154 c 0
 180 856 l 0
 46 856 l 0
 46 942 l 0
 354 1049 l 0
 460 1049 l 0
 460 921 l 0
 495.333333333 945 532 966 570 984 c 0
 602.666666667 1000 639.333333333 1014.66666667 680 1028 c 0
 720.666666667 1041.33333333 761.666666667 1048.33333333 803 1049 c 0
 842.333333333 1049 876 1043.66666667 904 1033 c 0
 932 1022.33333333 955.666666667 1009.66666667 975 995 c 0
 994.333333333 980.333333333 1010.33333333 964.666666667 1023 948 c 0
 1035.66666667 931.333333333 1047 917.333333333 1057 906 c 0
 1097.66666667 932 1139.33333333 955.666666667 1182 977 c 0
 1200.66666667 985.666666667 1220 994.333333333 1240 1003 c 0
 1260.66666667 1011.66666667 1281.66666667 1019.33333333 1303 1026 c 0
 1324.33333333 1032.66666667 1346 1038 1368 1042 c 0
 1389.33333333 1046 1410.33333333 1048.33333333 1431 1049 c 0
 1473 1049 1509.33333333 1043.33333333 1540 1032 c 0
 1570.66666667 1020.66666667 1596.66666667 1005.66666667 1618 987 c 0
 1639.33333333 968.333333333 1656.66666667 947.666666667 1670 925 c 0
 1682.66666667 902.333333333 1693 879 1701 855 c 0
 1708.33333333 831 1713.33333333 808 1716 786 c 0
 1718.66666667 764 1719.66666667 744.666666667 1719 728 c 0
 1719 154 l 0
 1719 141.333333333 1723.66666667 130 1733 120 c 0
 1742.33333333 110.666666667 1753 105.333333333 1765 104 c 0
 1841 98 l 0
 1841 0 l 0
 1327 0 l 0
EndSplineSet
EndChar

StartChar: n
Encoding: 81 110 81
Width: 1310
VWidth: 1024
Flags: HW
LayerCount: 2
Fore
SplineSet
719 0 m 0
 719 98 l 0
 797 104 l 0
 809.666666667 105.333333333 820.333333333 110.666666667 829 120 c 0
 837.666666667 129.333333333 842.333333333 140.666666667 843 154 c 0
 843 646 l 0
 843 672.666666667 840 698.666666667 834 724 c 0
 828 749.333333333 818 771.666666667 804 791 c 0
 790.666666667 810.333333333 773 826 751 838 c 0
 729 850 702.333333333 856 671 856 c 0
 642.333333333 856 615.666666667 854.333333333 591 851 c 0
 566.333333333 847.666666667 545 844.666666667 527 842 c 0
 505.666666667 838 486.666666667 833.333333333 470 828 c 0
 470 154 l 0
 470 141.333333333 474.666666667 130 484 120 c 0
 493.333333333 110.666666667 504.666666667 105.333333333 518 104 c 0
 581 98 l 0
 581 0 l 0
 68 0 l 0
 68 98 l 0
 142 104 l 0
 154.666666667 105.333333333 165.666666667 110.666666667 175 120 c 0
 183.666666667 129.333333333 188 140.666666667 188 154 c 0
 188 856 l 0
 44 856 l 0
 44 942 l 0
 360 1049 l 0
 470 1049 l 0
 470 921 l 0
 506 945 544.666666667 966 586 984 c 0
 620.666666667 1000 659.666666667 1014.66666667 703 1028 c 0
 747 1041.33333333 791.666666667 1048.33333333 837 1049 c 0
 897 1049 945.666666667 1038.33333333 983 1017 c 0
 1020.33333333 996.333333333 1049.33333333 969 1070 935 c 0
 1090.66666667 901 1104.66666667 862 1112 818 c 0
 1119.33333333 774 1122.66666667 729.333333333 1122 684 c 0
 1122 154 l 0
 1122 141.333333333 1127 130 1137 120 c 0
 1146.33333333 110.666666667 1157.33333333 105.333333333 1170 104 c 0
 1235 98 l 0
 1235 0 l 0
 719 0 l 0
EndSplineSet
EndChar

StartChar: o
Encoding: 82 111 82
Width: 1224
VWidth: 1024
Flags: HW
LayerCount: 2
Fore
SplineSet
1160 506 m 0
 1160 427.333333333 1147.66666667 355.333333333 1123 290 c 0
 1098.33333333 224.666666667 1062 168.666666667 1014 122 c 0
 966 75.3333333333 907.666666667 39 839 13 c 0
 770.333333333 -13 692.666666667 -26 606 -26 c 0
 526 -26 453.333333333 -13.6666666667 388 11 c 0
 322 35.6666666667 265.333333333 71 218 117 c 0
 170.666666667 163 133.666666667 218.666666667 107 284 c 0
 81 350 68 424.666666667 68 508 c 0
 68 594 81.6666666667 670.333333333 109 737 c 0
 136.333333333 803.666666667 174.333333333 860.333333333 223 907 c 0
 271.666666667 953 329.666666667 988 397 1012 c 0
 464.333333333 1036 539 1048.33333333 621 1049 c 0
 707.666666667 1049 784.333333333 1035.66666667 851 1009 c 0
 917.666666667 982.333333333 974 945 1020 897 c 0
 1066 849 1100.66666667 791.666666667 1124 725 c 0
 1148 659 1160 586 1160 506 c 0
847 508 m 0
 847 537.333333333 845.666666667 568.333333333 843 601 c 0
 840.333333333 633.666666667 835.666666667 665.333333333 829 696 c 0
 822.333333333 727.333333333 813.333333333 757 802 785 c 0
 790.666666667 813 776 837.666666667 758 859 c 0
 740.666666667 880.333333333 720 897.333333333 696 910 c 0
 672 922.666666667 644 929 612 929 c 0
 564.666666667 929 526.333333333 916 497 890 c 0
 467 864 443.333333333 830.666666667 426 790 c 0
 409.333333333 749.333333333 398 704.666666667 392 656 c 0
 385.333333333 607.333333333 382 560.666666667 382 516 c 0
 382 486 383.333333333 454.666666667 386 422 c 0
 388.666666667 389.333333333 393 357.333333333 399 326 c 0
 405.666666667 294.666666667 414.333333333 265 425 237 c 0
 435.666666667 209 449.666666667 184 467 162 c 0
 484.333333333 140.666666667 505 123.666666667 529 111 c 0
 553 98.3333333333 581.333333333 92 614 92 c 0
 662 92 701 105 731 131 c 0
 761 156.333333333 784.666666667 189 802 229 c 0
 819.333333333 269 831 314 837 364 c 0
 843.666666667 412.666666667 847 460.666666667 847 508 c 0
EndSplineSet
EndChar

StartChar: p
Encoding: 83 112 83
Width: 1265
VWidth: 1024
Flags: HW
LayerCount: 2
Fore
SplineSet
1199 541 m 0
 1199 456.333333333 1185.66666667 379 1159 309 c 0
 1132.33333333 239.666666667 1094.66666667 180.333333333 1046 131 c 0
 996.666666667 81.6666666667 937 43 867 15 c 0
 797.666666667 -12.3333333333 719.666666667 -26 633 -26 c 0
 611.666666667 -26 591.333333333 -25 572 -23 c 0
 552.666666667 -21 535.333333333 -18.3333333333 520 -15 c 0
 502 -12.3333333333 485.333333333 -8.66666666667 470 -4 c 0
 470 -306 l 0
 470 -319.333333333 474.333333333 -330.666666667 483 -340 c 0
 491.666666667 -349.333333333 502.666666667 -354 516 -354 c 0
 627 -360 l 0
 627 -460 l 0
 50 -460 l 0
 50 -360 l 0
 142 -354 l 0
 154.666666667 -354 165.666666667 -349.333333333 175 -340 c 0
 183.666666667 -330.666666667 188 -319.333333333 188 -306 c 0
 188 856 l 0
 50 856 l 0
 50 942 l 0
 360 1049 l 0
 470 1049 l 0
 470 916 l 0
 502.666666667 940.666666667 537.666666667 962.666666667 575 982 c 0
 607 998.666666667 643 1014 683 1028 c 0
 722.333333333 1042 763.666666667 1049 807 1049 c 0
 849 1049 888.333333333 1042 925 1028 c 0
 961 1014.66666667 993.333333333 996 1022 972 c 0
 1051.33333333 948.666666667 1077 920.666666667 1099 888 c 0
 1121 855.333333333 1139.66666667 820.333333333 1155 783 c 0
 1169.66666667 745.666666667 1180.66666667 706.333333333 1188 665 c 0
 1195.33333333 623.666666667 1199 582.333333333 1199 541 c 0
889 510 m 0
 889 556 883.666666667 600 873 642 c 0
 862.333333333 684 846.333333333 721 825 753 c 0
 803.666666667 785 776.333333333 810.333333333 743 829 c 0
 709.666666667 848.333333333 670.333333333 858 625 858 c 0
 606.333333333 858 588 856.333333333 570 853 c 0
 552 849.666666667 535.333333333 846 520 842 c 0
 502 837.333333333 485.333333333 832 470 826 c 0
 470 114 l 0
 483.333333333 108.666666667 497 104 511 100 c 0
 522.333333333 96.6666666667 534.666666667 94 548 92 c 0
 560.666666667 89.3333333333 573 88 585 88 c 0
 635.666666667 88 679.666666667 99 717 121 c 0
 755 143 787 172.666666667 813 210 c 0
 838.333333333 248 857.333333333 293 870 345 c 0
 882.666666667 396.333333333 889 451.333333333 889 510 c 0
EndSplineSet
EndChar

StartChar: q
Encoding: 84 113 84
Width: 1263
VWidth: 1024
Flags: HW
LayerCount: 2
Fore
SplineSet
633 -460 m 0
 633 -360 l 0
 749 -354 l 0
 762.333333333 -354 773.333333333 -349.333333333 782 -340 c 0
 790.666666667 -330.666666667 795 -319.333333333 795 -306 c 0
 795 82 l 0
 765.666666667 61.3333333333 734 43.3333333333 700 28 c 0
 670.666666667 14.6666666667 637.333333333 2.33333333333 600 -9 c 0
 562 -19.6666666667 521.333333333 -25.3333333333 478 -26 c 0
 415.333333333 -26 358.666666667 -12.3333333333 308 15 c 0
 257.333333333 42.3333333333 214 79.3333333333 178 126 c 0
 142.666666667 172.666666667 115.333333333 226.333333333 96 287 c 0
 76.6666666667 348.333333333 67.3333333333 412.666666667 68 480 c 0
 68 578.666666667 84.6666666667 664 118 736 c 0
 151.333333333 808 198 867 258 913 c 0
 318 959 389.333333333 993 472 1015 c 0
 554.666666667 1037 645.333333333 1048.33333333 744 1049 c 0
 779.333333333 1049 816.666666667 1047.33333333 856 1044 c 0
 894.666666667 1041.33333333 930.666666667 1038.33333333 964 1035 c 0
 1002 1031.66666667 1039.33333333 1027.66666667 1076 1023 c 0
 1076 -306 l 0
 1076 -319.333333333 1080.66666667 -330.666666667 1090 -340 c 0
 1098.66666667 -349.333333333 1109.33333333 -354 1122 -354 c 0
 1208 -360 l 0
 1208 -460 l 0
 633 -460 l 0
795 916 m 0
 788.333333333 917.333333333 780.333333333 919 771 921 c 0
 763.666666667 922.333333333 754.666666667 923.333333333 744 924 c 0
 733.333333333 924.666666667 722.333333333 925 711 925 c 0
 649 925 596.333333333 914.666666667 553 894 c 0
 509.666666667 874 475 846.333333333 449 811 c 0
 422.333333333 775.666666667 403 733.666666667 391 685 c 0
 379.666666667 636.333333333 374 584 374 528 c 0
 374 470.666666667 380.333333333 419.333333333 393 374 c 0
 405.666666667 328 424.666666667 289 450 257 c 0
 474.666666667 225 504.666666667 200.333333333 540 183 c 0
 575.333333333 165.666666667 615.333333333 157.333333333 660 158 c 0
 676 158 692 158.333333333 708 159 c 0
 724 159.666666667 738.333333333 160.666666667 751 162 c 0
 766.333333333 163.333333333 781 164.666666667 795 166 c 0
 795 916 l 0
EndSplineSet
EndChar

StartChar: r
Encoding: 85 114 85
Width: 905
VWidth: 1024
Flags: HW
LayerCount: 2
Fore
SplineSet
742 692 m 0
 737.333333333 698.666666667 731.333333333 707 724 717 c 0
 716.666666667 726.333333333 708 735.333333333 698 744 c 0
 687.333333333 752.666666667 674.333333333 760.333333333 659 767 c 0
 643.666666667 773 626 776 606 776 c 0
 586 776 567.666666667 774 551 770 c 0
 533.666666667 766 519.333333333 761.666666667 508 757 c 0
 493.333333333 751.666666667 480.666666667 745.333333333 470 738 c 0
 470 151 l 0
 470 139 474.333333333 127.666666667 483 117 c 0
 491.666666667 107 502.666666667 102 516 102 c 0
 650 96 l 0
 650 -2 l 0
 50 -2 l 0
 50 96 l 0
 142 102 l 0
 154.666666667 103.333333333 165.666666667 108.666666667 175 118 c 0
 183.666666667 127.333333333 188 138.333333333 188 151 c 0
 188 856 l 0
 36 856 l 0
 36 942 l 0
 360 1049 l 0
 470 1049 l 0
 470 826 l 0
 482.666666667 842.666666667 500.333333333 863.666666667 523 889 c 0
 545 914.333333333 569 938.666666667 595 962 c 0
 621 985.333333333 647.666666667 1005.66666667 675 1023 c 0
 702.333333333 1040.33333333 728.333333333 1049 753 1049 c 0
 765 1049 777.666666667 1048 791 1046 c 0
 803.666666667 1044 816 1041 828 1037 c 0
 840 1033 851 1029 861 1025 c 0
 871 1020.33333333 879 1015.66666667 885 1011 c 0
 885 692 l 0
 742 692 l 0
EndSplineSet
EndChar

StartChar: s
Encoding: 86 115 86
Width: 931
VWidth: 1024
Flags: HW
LayerCount: 2
Fore
SplineSet
835 702 m 0
 705 702 l 0
 682 870 l 0
 668.666666667 886 647.333333333 898.666666667 618 908 c 0
 589.333333333 917.333333333 556 922.333333333 518 923 c 0
 468.666666667 923 430 912.666666667 402 892 c 0
 374 872 360 843.666666667 360 807 c 0
 360 786.333333333 366 767.333333333 378 750 c 0
 389.333333333 732 405 715 425 699 c 0
 445 683 467.666666667 668.333333333 493 655 c 0
 518.333333333 641 544.666666667 626.666666667 572 612 c 0
 606.666666667 594 642 576 678 558 c 0
 713.333333333 539.333333333 745 519 773 497 c 0
 801 474.333333333 824 449 842 421 c 0
 860 393.666666667 868.666666667 362.333333333 868 327 c 0
 868 261 855.333333333 205.333333333 830 160 c 0
 804.666666667 115.333333333 772 79.3333333333 732 52 c 0
 692 24.6666666667 646.333333333 4.66666666667 595 -8 c 0
 543.666666667 -20 492 -26 440 -26 c 0
 388 -26 339.666666667 -23 295 -17 c 0
 250.333333333 -11 211 -4.33333333333 177 3 c 0
 137.666666667 11 101.333333333 20.6666666667 68 32 c 0
 68 350 l 0
 200 350 l 0
 201.333333333 335.333333333 203.333333333 317.333333333 206 296 c 0
 208.666666667 274 211.333333333 252.666666667 214 232 c 0
 216.666666667 208 220 183.333333333 224 158 c 0
 225.333333333 154.666666667 233.333333333 149.666666667 248 143 c 0
 262.666666667 136.333333333 279.666666667 129.666666667 299 123 c 0
 319 116.333333333 339.666666667 110.333333333 361 105 c 0
 383 100.333333333 402.666666667 98 420 98 c 0
 455.333333333 98 484.666666667 103 508 113 c 0
 531.333333333 122.333333333 549.666666667 133.666666667 563 147 c 0
 576.333333333 160.333333333 586 175 592 191 c 0
 597.333333333 206.333333333 600 220 600 232 c 0
 600 260.666666667 591 285.666666667 573 307 c 0
 555 327.666666667 531.666666667 346.666666667 503 364 c 0
 474.333333333 381.333333333 442 397.333333333 406 412 c 0
 370 427.333333333 334.666666667 444 300 462 c 0
 270.666666667 476.666666667 242.666666667 492.333333333 216 509 c 0
 189.333333333 526.333333333 166 545.333333333 146 566 c 0
 126 587.333333333 110 611.333333333 98 638 c 0
 86 664.666666667 80 695.333333333 80 730 c 0
 80 778.666666667 90.3333333333 822.666666667 111 862 c 0
 131.666666667 901.333333333 161 934.666666667 199 962 c 0
 236.333333333 989.333333333 280.666666667 1010.66666667 332 1026 c 0
 383.333333333 1041.33333333 439.666666667 1049 501 1049 c 0
 553 1049 599.666666667 1046 641 1040 c 0
 682.333333333 1034 717 1027.33333333 745 1020 c 0
 778.333333333 1012 808.333333333 1002.66666667 835 992 c 0
 835 702 l 0
EndSplineSet
EndChar

StartChar: t
Encoding: 87 116 87
Width: 786
VWidth: 1024
Flags: HW
LayerCount: 2
Fore
SplineSet
778 46 m 0
 745.333333333 32.6666666667 710.666666667 20.6666666667 674 10 c 0
 642.666666667 0.666666666667 607 -7.66666666667 567 -15 c 0
 527 -22.3333333333 485.333333333 -26 442 -26 c 0
 395.333333333 -26 356 -20.6666666667 324 -10 c 0
 291.333333333 0 265 15.6666666667 245 37 c 0
 225 58.3333333333 210.666666667 85.3333333333 202 118 c 0
 193.333333333 150 188.666666667 188 188 232 c 0
 188 889 l 0
 50 889 l 0
 50 973 l 0
 212 1069 l 0
 325 1292 l 0
 470 1292 l 0
 470 1023 l 0
 761 1023 l 0
 761 889 l 0
 470 889 l 0
 470 318 l 0
 470 251.333333333 484.666666667 204.333333333 514 177 c 0
 543.333333333 149.666666667 586 136 642 136 c 0
 658.666666667 136 675 136.666666667 691 138 c 0
 707.666666667 139.333333333 722.333333333 141 735 143 c 0
 750.333333333 145 764.666666667 147.666666667 778 151 c 0
 778 46 l 0
EndSplineSet
EndChar

StartChar: u
Encoding: 88 117 88
Width: 1300
VWidth: 1024
Flags: HW
LayerCount: 2
Fore
SplineSet
830 0 m 0
 830 116 l 0
 795.333333333 89.3333333333 759.333333333 65.6666666667 722 45 c 0
 690 27 654.333333333 10.6666666667 615 -4 c 0
 576.333333333 -18.6666666667 537.666666667 -26 499 -26 c 0
 439.666666667 -26 390 -18 350 -2 c 0
 310 14 278 36.6666666667 254 66 c 0
 230 95.3333333333 213 131 203 173 c 0
 193 215 188 262.666666667 188 316 c 0
 188 858 l 0
 52 858 l 0
 52 944 l 0
 360 1049 l 0
 470 1049 l 0
 470 398 l 0
 470 372 471.666666667 345.333333333 475 318 c 0
 478.333333333 290.666666667 486.666666667 266 500 244 c 0
 512.666666667 221.333333333 532 202.666666667 558 188 c 0
 583.333333333 173.333333333 618.333333333 166 663 166 c 0
 685 166 706 167.666666667 726 171 c 0
 746 174.333333333 763.666666667 178.333333333 779 183 c 0
 797 188.333333333 814 194.666666667 830 202 c 0
 830 858 l 0
 698 858 l 0
 698 944 l 0
 1005 1049 l 0
 1111 1049 l 0
 1111 154 l 0
 1111 141.333333333 1116 130 1126 120 c 0
 1136 110.666666667 1147.33333333 105.333333333 1160 104 c 0
 1252 98 l 0
 1252 0 l 0
 830 0 l 0
EndSplineSet
EndChar

StartChar: v
Encoding: 89 118 89
Width: 1185
VWidth: 1024
Flags: HW
LayerCount: 2
Fore
SplineSet
1049 910 m 0
 688 0 l 0
 480 0 l 0
 144 912 l 0
 20 925 l 0
 20 1023 l 0
 572 1023 l 0
 572 925 l 0
 476 919 l 0
 463.333333333 917.666666667 454.333333333 912.333333333 449 903 c 0
 443.666666667 894.333333333 442.666666667 884 446 872 c 0
 652 292 l 0
 881 872 l 0
 885 882 883.666666667 892 877 902 c 0
 870.333333333 911.333333333 861 917 849 919 c 0
 761 925 l 0
 761 1023 l 0
 1168 1023 l 0
 1168 925 l 0
 1049 910 l 0
EndSplineSet
EndChar

StartChar: w
Encoding: 90 119 90
Width: 1763
VWidth: 1024
Flags: HW
LayerCount: 2
Fore
SplineSet
1627 910 m 0
 1347 0 l 0
 1113 0 l 0
 885 744 l 0
 644 0 l 0
 416 0 l 0
 144 912 l 0
 20 925 l 0
 20 1023 l 0
 558 1023 l 0
 558 925 l 0
 468 919 l 0
 456.666666667 917.666666667 447.666666667 912.333333333 441 903 c 0
 434.333333333 894.333333333 432.666666667 884 436 872 c 0
 600 296 l 0
 835 1023 l 0
 1065 1023 l 0
 1290 292 l 0
 1464 872 l 0
 1467.33333333 882 1466.33333333 892 1461 902 c 0
 1455 911.333333333 1446.33333333 917 1435 919 c 0
 1342 925 l 0
 1342 1023 l 0
 1745 1023 l 0
 1745 925 l 0
 1627 910 l 0
EndSplineSet
EndChar

StartChar: x
Encoding: 91 120 91
Width: 1144
VWidth: 1024
Flags: HW
LayerCount: 2
Fore
SplineSet
594 0 m 0
 594 98 l 0
 675 106 l 0
 685.666666667 107.333333333 692.666666667 111.666666667 696 119 c 0
 699.333333333 126.333333333 698 134 692 142 c 0
 526 369 l 0
 342 142 l 0
 336 134.666666667 334.333333333 127.333333333 337 120 c 0
 339.666666667 112.666666667 346 108 356 106 c 0
 430 98 l 0
 430 0 l 0
 20 0 l 0
 20 98 l 0
 146 116 l 0
 446 478 l 0
 136 910 l 0
 26 925 l 0
 26 1023 l 0
 541 1023 l 0
 541 925 l 0
 480 919 l 0
 468.666666667 917.666666667 461.666666667 912.666666667 459 904 c 0
 456.333333333 896 458.666666667 888.333333333 466 881 c 0
 612 678 l 0
 780 881 l 0
 785.333333333 888.333333333 787 896 785 904 c 0
 782.333333333 912 776 917 766 919 c 0
 698 925 l 0
 698 1023 l 0
 1089 1023 l 0
 1089 925 l 0
 971 910 l 0
 692 566 l 0
 1015 116 l 0
 1126 98 l 0
 1126 0 l 0
 594 0 l 0
EndSplineSet
EndChar

StartChar: y
Encoding: 92 121 92
Width: 1185
VWidth: 1024
Flags: HW
LayerCount: 2
Fore
SplineSet
1057 910 m 0
 694 20 l 0
 681.333333333 -11.3333333333 667 -45.3333333333 651 -82 c 0
 635 -118.666666667 617.666666667 -155.666666667 599 -193 c 0
 579.666666667 -230.333333333 558.333333333 -266.333333333 535 -301 c 0
 511.666666667 -335.666666667 485.666666667 -366 457 -392 c 0
 427.666666667 -420.666666667 395.666666667 -443.333333333 361 -460 c 0
 326.333333333 -476.666666667 288.666666667 -484.666666667 248 -484 c 0
 227.333333333 -484 206 -480.333333333 184 -473 c 0
 162 -465 141.666666667 -453.666666667 123 -439 c 0
 105 -424.333333333 90.3333333333 -406.666666667 79 -386 c 0
 67.6666666667 -365.333333333 62 -342 62 -316 c 0
 62 -296.666666667 65.6666666667 -279.333333333 73 -264 c 0
 80.3333333333 -248 89.6666666667 -233.333333333 101 -220 c 0
 112.333333333 -207.333333333 125.333333333 -196 140 -186 c 0
 154.666666667 -176.666666667 169.333333333 -168.666666667 184 -162 c 0
 362 -298 l 0
 381.333333333 -280 399.333333333 -258.666666667 416 -234 c 0
 432.666666667 -209.333333333 447.666666667 -184 461 -158 c 0
 474.333333333 -132 486 -106.666666667 496 -82 c 0
 506 -57.3333333333 513.333333333 -36 518 -18 c 0
 144 912 l 0
 20 925 l 0
 20 1023 l 0
 572 1023 l 0
 572 925 l 0
 476 919 l 0
 463.333333333 917.666666667 453.666666667 912.333333333 447 903 c 0
 441 894.333333333 440 884 444 872 c 0
 660 334 l 0
 883 872 l 0
 887 882 885.666666667 892 879 902 c 0
 872.333333333 911.333333333 863 917 851 919 c 0
 759 925 l 0
 759 1023 l 0
 1168 1023 l 0
 1168 925 l 0
 1057 910 l 0
EndSplineSet
EndChar

StartChar: z
Encoding: 93 122 93
Width: 1030
VWidth: 1024
Flags: HW
LayerCount: 2
Fore
SplineSet
68 0 m 0
 68 136 l 0
 604 904 l 0
 288 904 l 0
 277.333333333 904 268 899 260 889 c 0
 252 879 248 869.333333333 248 860 c 0
 232 698 l 0
 84 698 l 0
 84 1023 l 0
 933 1023 l 0
 933 906 l 0
 384 124 l 0
 744 124 l 0
 748.666666667 124 753.666666667 125.666666667 759 129 c 0
 763.666666667 132.333333333 768.333333333 136.333333333 773 141 c 0
 777.666666667 145.666666667 781.333333333 151 784 157 c 0
 787.333333333 163 789.666666667 168.666666667 791 174 c 0
 818 352 l 0
 963 352 l 0
 963 0 l 0
 68 0 l 0
EndSplineSet
EndChar

StartChar: braceleft
Encoding: 94 123 94
Width: 1038
VWidth: 1024
Flags: HW
LayerCount: 2
Fore
SplineSet
885 -256 m 0
 844 -256 l 0
 825.333333333 -256 803.666666667 -255.333333333 779 -254 c 0
 754.333333333 -252.666666667 727.333333333 -250.666666667 698 -248 c 0
 669.333333333 -244.666666667 641 -240 613 -234 c 0
 585 -227.333333333 558.666666667 -219 534 -209 c 0
 508.666666667 -199 487.333333333 -186 470 -170 c 0
 438 -142 414.666666667 -109 400 -71 c 0
 385.333333333 -33 376 7.33333333333 372 50 c 0
 367.333333333 92 365.666666667 134.666666667 367 178 c 0
 368.333333333 221.333333333 368.666666667 262.666666667 368 302 c 0
 367.333333333 341.333333333 363.666666667 377.666666667 357 411 c 0
 350.333333333 443.666666667 336.666666667 470 316 490 c 0
 295.333333333 510.666666667 272 525.333333333 246 534 c 0
 219.333333333 542.666666667 194 548.333333333 170 551 c 0
 142.666666667 553.666666667 114.666666667 553.333333333 86 550 c 0
 86 675 l 0
 114.666666667 671 142.666666667 670.333333333 170 673 c 0
 194 675 219.333333333 680.333333333 246 689 c 0
 272.666666667 697.666666667 296 712 316 732 c 0
 336.666666667 752.666666667 350.333333333 779.666666667 357 813 c 0
 363.666666667 846.333333333 367.333333333 882.666666667 368 922 c 0
 368.666666667 961.333333333 368.333333333 1003 367 1047 c 0
 365.666666667 1091 367.333333333 1133.66666667 372 1175 c 0
 376.666666667 1217 386 1257 400 1295 c 0
 414.666666667 1333 438 1366.33333333 470 1395 c 0
 487.333333333 1411 508.666666667 1424 534 1434 c 0
 559.333333333 1444 585.666666667 1452.33333333 613 1459 c 0
 641 1465.66666667 669.333333333 1470.33333333 698 1473 c 0
 726.666666667 1476.33333333 753.666666667 1478.33333333 779 1479 c 0
 803.666666667 1480.33333333 825.333333333 1481 844 1481 c 0
 885 1481 l 0
 885 1365 l 0
 859.666666667 1365 834.666666667 1363.33333333 810 1360 c 0
 788.666666667 1356.66666667 766.666666667 1351 744 1343 c 0
 721.333333333 1335.66666667 702 1324.33333333 686 1309 c 0
 664.666666667 1288.33333333 650.333333333 1262.66666667 643 1232 c 0
 635.666666667 1201.33333333 631.333333333 1168.33333333 630 1133 c 0
 628.666666667 1097 628.333333333 1059.66666667 629 1021 c 0
 629.666666667 982.333333333 628 944 624 906 c 0
 620 868 611.666666667 831.666666667 599 797 c 0
 586.333333333 762.333333333 565.666666667 731.666666667 537 705 c 0
 515 683.666666667 492 666.666666667 468 654 c 0
 444 642 421.666666667 633 401 627 c 0
 380.333333333 621 362.333333333 616.666666667 347 614 c 0
 335.666666667 612.666666667 327 612 321 612 c 0
 327 611.333333333 335.666666667 610.333333333 347 609 c 0
 363 607 381 602.666666667 401 596 c 0
 421.666666667 589.333333333 444 580 468 568 c 0
 492 556 515 539.333333333 537 518 c 0
 565.666666667 490.666666667 586.333333333 459.666666667 599 425 c 0
 611.666666667 390.333333333 620 354.333333333 624 317 c 0
 628 279 629.666666667 240.666666667 629 202 c 0
 628.333333333 163.333333333 628.666666667 126.333333333 630 91 c 0
 631.333333333 55.6666666667 635.666666667 22.6666666667 643 -8 c 0
 650.333333333 -38.6666666667 664.666666667 -64 686 -84 c 0
 702 -100 721.333333333 -111.666666667 744 -119 c 0
 766.666666667 -126.333333333 788.666666667 -131.666666667 810 -135 c 0
 834.666666667 -138.333333333 859.666666667 -140 885 -140 c 0
 885 -256 l 0
EndSplineSet
EndChar

StartChar: bar
Encoding: 95 124 95
Width: 833
VWidth: 1024
Flags: HW
LayerCount: 2
Fore
SplineSet
328 -541 m 0
 328 1669 l 0
 507 1669 l 0
 507 -541 l 0
 328 -541 l 0
EndSplineSet
EndChar

StartChar: braceright
Encoding: 96 125 96
Width: 1038
VWidth: 1024
Flags: HW
LayerCount: 2
Fore
SplineSet
952 550 m 0
 922.666666667 553.333333333 894.333333333 553.666666667 867 551 c 0
 843 548.333333333 818 542.666666667 792 534 c 0
 765.333333333 525.333333333 742 510.666666667 722 490 c 0
 701.333333333 468.666666667 687.666666667 442 681 410 c 0
 674.333333333 377.333333333 670.333333333 341 669 301 c 0
 667.666666667 261.666666667 667.666666667 220.333333333 669 177 c 0
 670.333333333 133.666666667 668.666666667 91 664 49 c 0
 659.333333333 7 650 -33 636 -71 c 0
 622 -109 599.333333333 -142 568 -170 c 0
 550 -186 528.666666667 -199 504 -209 c 0
 479.333333333 -219 453 -227.333333333 425 -234 c 0
 397 -240.666666667 368.666666667 -245.333333333 340 -248 c 0
 311.333333333 -251.333333333 284.666666667 -253.333333333 260 -254 c 0
 235.333333333 -255.333333333 213.333333333 -256 194 -256 c 0
 154 -256 l 0
 154 -140 l 0
 179.333333333 -140 204 -138.333333333 228 -135 c 0
 249.333333333 -131.666666667 271.333333333 -126.333333333 294 -119 c 0
 316.666666667 -111.666666667 336 -100 352 -84 c 0
 373.333333333 -63.3333333333 387.666666667 -38 395 -8 c 0
 402.333333333 22 407 54.6666666667 409 90 c 0
 410.333333333 125.333333333 410.666666667 162.333333333 410 201 c 0
 409.333333333 239.666666667 410.666666667 278 414 316 c 0
 418 354 426.333333333 390.333333333 439 425 c 0
 451.666666667 459.666666667 472.333333333 490.666666667 501 518 c 0
 523 538.666666667 545.333333333 555 568 567 c 0
 591.333333333 579 613.333333333 588.333333333 634 595 c 0
 654.666666667 601.666666667 673 606 689 608 c 0
 705 610 716 611.333333333 722 612 c 0
 717.333333333 612 707.333333333 612.666666667 692 614 c 0
 676.666666667 615.333333333 658.333333333 619.333333333 637 626 c 0
 616.333333333 632 594 641 570 653 c 0
 546 665 523 682.333333333 501 705 c 0
 472.333333333 732.333333333 451.666666667 763.333333333 439 798 c 0
 426.333333333 832.666666667 418 869 414 907 c 0
 410 945 408.666666667 983.333333333 410 1022 c 0
 410.666666667 1060.66666667 410.333333333 1098 409 1134 c 0
 407.666666667 1170 403 1203 395 1233 c 0
 387.666666667 1263 373.333333333 1288.33333333 352 1309 c 0
 335.333333333 1325 316 1336.33333333 294 1343 c 0
 271.333333333 1350.33333333 249.333333333 1356 228 1360 c 0
 203.333333333 1363.33333333 178.666666667 1365 154 1365 c 0
 154 1481 l 0
 194 1481 l 0
 213.333333333 1481 235.333333333 1480.33333333 260 1479 c 0
 284.666666667 1477.66666667 311.333333333 1475.66666667 340 1473 c 0
 368.666666667 1469.66666667 397 1465 425 1459 c 0
 453 1452.33333333 479.666666667 1444 505 1434 c 0
 530.333333333 1424 551.333333333 1411 568 1395 c 0
 599.333333333 1366.33333333 622 1333 636 1295 c 0
 650 1257 659.333333333 1217 664 1175 c 0
 668.666666667 1133 670.333333333 1090.33333333 669 1047 c 0
 667.666666667 1003 667.666666667 961.333333333 669 922 c 0
 670.333333333 882.666666667 674.333333333 846.333333333 681 813 c 0
 687.666666667 779.666666667 701.333333333 752.666666667 722 732 c 0
 742 711.333333333 765.333333333 697 792 689 c 0
 818.666666667 680.333333333 843.666666667 675 867 673 c 0
 894.333333333 670.333333333 922.666666667 671 952 675 c 0
 952 550 l 0
EndSplineSet
EndChar

StartChar: asciitilde
Encoding: 97 126 97
Width: 1746
VWidth: 1024
Flags: HW
LayerCount: 2
Fore
SplineSet
783 314 m 0
 761.666666667 298.666666667 742 286 724 276 c 0
 706 266 689 258 673 252 c 0
 657 246 641.333333333 241.666666667 626 239 c 0
 610.666666667 236.333333333 595.666666667 235 581 235 c 0
 555.666666667 235 531 238.666666667 507 246 c 0
 483 253.333333333 459 261.333333333 435 270 c 0
 411 278.666666667 387 286.666666667 363 294 c 0
 339 301.333333333 314 305 288 305 c 0
 264 305 236 297.666666667 204 283 c 0
 172 268.333333333 134 244.333333333 90 211 c 0
 90 310 l 0
 129.333333333 340 166.333333333 361 201 373 c 0
 235 385 266 391 294 391 c 0
 314 391 333.333333333 389 352 385 c 0
 370.666666667 381 389.333333333 375.666666667 408 369 c 0
 426 363 444 356.333333333 462 349 c 0
 480 342.333333333 498.333333333 336.333333333 517 331 c 0
 527.666666667 327.666666667 538.666666667 325.333333333 550 324 c 0
 560.666666667 322 571.333333333 321 582 321 c 0
 593.333333333 321 605.333333333 322.333333333 618 325 c 0
 630.666666667 327.666666667 645.333333333 332.666666667 662 340 c 0
 678 346.666666667 696 356 716 368 c 0
 736 380 758.333333333 395.333333333 783 414 c 0
 783 314 l 0
EndSplineSet
EndChar

StartChar: inherent
Encoding: 103 -1 98
Width: 352
Flags: HW
LayerCount: 2
Fore
SplineSet
375 1505 m 2
 375 1423 337.333333333 1352.66666667 262 1294 c 1
 226.666666667 1264 187.166666667 1241.83333333 143.5 1227.5 c 128
 99.8333333333 1213.16666667 46.6666666667 1206 -16 1206 c 1
 -16 1423 l 1
 23.3333333333 1423 50.6666666667 1432.66666667 66 1452 c 1
 88 1468.66666667 98.6666666667 1486.33333333 98 1505 c 2
 98 1651 l 1
 375 1651 l 1
 375 1505 l 2
EndSplineSet
EndChar

StartChar: makewide
Encoding: 104 -1 99
Width: 710
Flags: HW
LayerCount: 2
Fore
SplineSet
940 283 m 2
 940 210.333333333 914.666666667 145 864 87 c 128
 813.333333333 29 753.333333333 0 684 0 c 2
 379 2 l 2
 343.666666667 2 310.166666667 6.5 278.5 15.5 c 128
 246.833333333 24.5 212.666666667 38.5 176 57.5 c 128
 139.333333333 76.5 108.666666667 97.6666666667 84 121 c 128
 59.3333333333 144.333333333 29.3333333333 176.333333333 -6 217 c 1
 -6 532 l 1
 33 541 l 1
 79.6666666667 445.666666667 139.5 369.5 212.5 312.5 c 128
 285.5 255.5 355.333333333 227 422 227 c 2
 612 227 l 2
 627.333333333 227 637.666666667 234.666666667 643 250 c 1
 655 272 661.333333333 293 662 313 c 2
 662 1006 l 2
 662 1045.33333333 646.666666667 1082 616 1116 c 1
 587.333333333 1142 550.666666667 1155 506 1155 c 2
 283 1155 l 1
 283 1386 l 1
 788 1386 l 1
 846 1192 l 1
 908.666666667 1137.33333333 940 1078.66666667 940 1016 c 2
 940 283 l 2
EndSplineSet
EndChar

StartChar: shortrr
Encoding: 105 -1 100
Width: 1681
Flags: HW
LayerCount: 2
Fore
SplineSet
1724 1165 m 1
 721 1165 l 2
 695 1165 674.833333333 1160 660.5 1150 c 128
 646.166666667 1140 639 1126.66666667 639 1110 c 2
 637 950 l 1
 639.666666667 924 652.333333333 902.5 675 885.5 c 128
 697.666666667 868.5 723.333333333 860 752 860 c 2
 1137 860 l 1
 1137 629 l 1
 752 629 l 2
 718 629 690.666666667 621.5 670 606.5 c 128
 649.333333333 591.5 639 571 639 545 c 2
 637 344 l 1
 639.666666667 314 648.5 289.833333333 663.5 271.5 c 128
 678.5 253.166666667 692.333333333 243.333333333 705 242 c 1
 901 242 l 1
 901 10 l 1
 612 10 l 2
 545.333333333 10 486.333333333 33.3333333333 435 80 c 128
 383.666666667 126.666666667 358 182 358 246 c 2
 358 561 l 2
 358 611.666666667 377.333333333 657.333333333 416 698 c 0
 425.333333333 707.333333333 438.5 716.833333333 455.5 726.5 c 128
 472.5 736.166666667 487.333333333 744.666666667 500 752 c 1
 484.666666667 757.333333333 473.666666667 762.666666667 467 768 c 0
 442.333333333 784.666666667 425.333333333 795.666666667 416 801 c 1
 378 841.666666667 358.666666667 886 358 934 c 2
 358 1178 l 2
 358 1247.33333333 385.333333333 1299.66666667 440 1335 c 1
 486.666666667 1374.33333333 549.666666667 1394.33333333 629 1395 c 2
 1718 1395 l 1
 1724 1165 l 1
EndSplineSet
EndChar

StartChar: anusvara
Encoding: 107 3202 101
Width: 1609
Flags: HW
LayerCount: 2
Fore
SplineSet
1634 319 m 2
 1634 234.333333333 1606 160.333333333 1550 97 c 128
 1494 33.6666666667 1426.66666667 2 1348 2 c 2
 705 2 l 2
 612.333333333 2 532.333333333 36.6666666667 465 106 c 1
 397 168.666666667 362.666666667 248.666666667 362 346 c 2
 362 1096 l 2
 362 1182 396.333333333 1253.66666667 465 1311 c 1
 495 1339.66666667 529.833333333 1361.16666667 569.5 1375.5 c 128
 609.166666667 1389.83333333 653.333333333 1397 702 1397 c 2
 1288 1397 l 2
 1383.33333333 1397 1464.83333333 1365.5 1532.5 1302.5 c 128
 1600.16666667 1239.5 1634 1162.33333333 1634 1071 c 2
 1634 319 l 2
1358 365 m 1
 1358 1055 l 2
 1358 1085 1347.66666667 1112.33333333 1327 1137 c 1
 1306.33333333 1156.33333333 1281 1165.66666667 1251 1165 c 2
 782 1165 l 2
 742.666666667 1165 708 1155.66666667 678 1137 c 1
 653.333333333 1117.66666667 641 1095.66666667 641 1071 c 2
 641 365 l 2
 641 333.666666667 656.666666667 304.333333333 688 277 c 128
 719.333333333 249.666666667 755 236 795 236 c 2
 1253 236 l 2
 1281.66666667 236 1305.66666667 248 1325 272 c 1
 1349.66666667 298.666666667 1360.66666667 329.666666667 1358 365 c 1
EndSplineSet
EndChar

StartChar: u0C83
Encoding: 108 3203 102
Width: 1040
Flags: HW
LayerCount: 2
Fore
SplineSet
1120 944 m 2
 1120 885.333333333 1097.66666667 836.333333333 1053 797 c 1
 1013.66666667 756.333333333 961.666666667 735.666666667 897 735 c 2
 571 735 l 2
 498.333333333 735 439.666666667 757.666666667 395 803 c 1
 345.666666667 847 321.333333333 900.333333333 322 963 c 2
 322 1178 l 2
 322 1242 347.166666667 1294.5 397.5 1335.5 c 128
 447.833333333 1376.5 506.333333333 1397 573 1397 c 2
 868 1397 l 2
 917.333333333 1397 959 1386.66666667 993 1366 c 1
 1012.33333333 1359.33333333 1029.16666667 1348.83333333 1043.5 1334.5 c 128
 1057.83333333 1320.16666667 1074.83333333 1299.33333333 1094.5 1272 c 128
 1114.16666667 1244.66666667 1124 1209 1124 1165 c 2
 1120 944 l 2
1124 240 m 1
 1124 176 1103.5 120.666666667 1062.5 74 c 128
 1021.5 27.3333333333 972.333333333 4 915 4 c 2
 571 6 l 2
 507 6 449.5 27.8333333333 398.5 71.5 c 128
 347.5 115.166666667 322 168.333333333 322 231 c 2
 322 446 l 2
 322 510 347.5 563 398.5 605 c 128
 449.5 647 507 668 571 668 c 2
 866 668 l 2
 940 668 999.333333333 644 1044 596 c 1
 1094.66666667 546.666666667 1120 488 1120 420 c 1
 1124 240 l 1
844 1001 m 1
 844 1124 l 2
 844 1133.33333333 842.333333333 1140.83333333 839 1146.5 c 128
 835.666666667 1152.16666667 832.166666667 1156.66666667 828.5 1160 c 128
 824.833333333 1163.33333333 815 1165 799 1165 c 2
 666 1165 l 2
 645.333333333 1165 628.833333333 1161 616.5 1153 c 128
 604.166666667 1145 598 1135.33333333 598 1124 c 2
 596 1020 l 1
 601.333333333 1003.33333333 607.333333333 991.666666667 614 985 c 1
 629.333333333 975.666666667 642.333333333 971 653 971 c 2
 799 971 l 1
 809.666666667 973.666666667 819.833333333 976.666666667 829.5 980 c 128
 839.166666667 983.333333333 844.333333333 986.666666667 845 990 c 128
 845.666666667 993.333333333 845.333333333 997 844 1001 c 1
846 268 m 1
 846 393 l 2
 846 408.333333333 843.333333333 418.666666667 838 424 c 2
 827 432 l 1
 653 432 l 2
 636.333333333 432 625 430.333333333 619 427 c 128
 613 423.666666667 608.333333333 419.666666667 605 415 c 128
 601.666666667 410.333333333 600 407.333333333 600 406 c 2
 598 289 l 1
 614 250 l 2
 616.666666667 243.333333333 619.833333333 239.666666667 623.5 239 c 128
 627.166666667 238.333333333 630.333333333 238 633 238 c 2
 809 238 l 2
 818.333333333 238 828 240.666666667 838 246 c 1
 846 268 l 1
EndSplineSet
EndChar

StartChar: avowel
Encoding: 109 3205 103
Width: 2091
Flags: HW
LayerCount: 2
Fore
SplineSet
2181 295 m 2
 2181 213 2149 144.666666667 2085 90 c 1
 2030.33333333 31.3333333333 1957.33333333 2 1866 2 c 2
 731 4 l 2
 634.333333333 4 552.166666667 31.6666666667 484.5 87 c 128
 416.833333333 142.333333333 383 211.666666667 383 295 c 2
 383 1108 l 2
 383 1194 413 1263.66666667 473 1317 c 128
 533 1370.33333333 606 1397 692 1397 c 2
 1096 1397 l 1
 1096 922 l 1
 821 922 l 1
 821 1165 l 1
 750 1165 l 2
 724 1165 703.333333333 1154.33333333 688 1133 c 0
 667.333333333 1103 657 1068 657 1028 c 2
 657 367 l 2
 657 338.333333333 671.333333333 308 700 276 c 1
 738 250 775 237.333333333 811 238 c 2
 1761 238 l 2
 1787 238 1811 245.333333333 1833 260 c 0
 1842.33333333 266.666666667 1859.33333333 288 1884 324 c 1
 1896 348.666666667 1902.33333333 376 1903 406 c 2
 1903 1081 l 2
 1903 1101.66666667 1893.33333333 1123 1874 1145 c 1
 1858.66666667 1157 1836 1163 1806 1163 c 2
 1741 1163 l 1
 1741 1040 l 2
 1741 973.333333333 1789.33333333 908 1886 844 c 1
 1886 625 l 1
 961 625 l 1
 961 856 l 1
 1550 856 l 1
 1491.33333333 920 1462 976 1462 1024 c 2
 1462 1395 l 1
 1831 1395 l 2
 1893.66666667 1395 1952 1382.66666667 2006 1358 c 128
 2060 1333.33333333 2101.33333333 1301.33333333 2130 1262 c 1
 2161.33333333 1222.66666667 2177 1176 2177 1122 c 2
 2181 295 l 2
EndSplineSet
EndChar

StartChar: aavowel
Encoding: 110 3206 104
Width: 2238
Flags: HW
LayerCount: 2
Fore
SplineSet
2333 993 m 1
 2333 911 2305.66666667 843.666666667 2251 791 c 1
 2193.66666667 731 2126 700.666666667 2048 700 c 2
 2009 700 l 1
 2049.66666667 652 2070.33333333 615.333333333 2071 590 c 2
 2071 229 l 2
 2071 165 2042.33333333 110.666666667 1985 66 c 1
 1955 44 1923.16666667 27.8333333333 1889.5 17.5 c 128
 1855.83333333 7.16666666667 1814.33333333 2 1765 2 c 2
 680 10 l 2
 598 10 528.333333333 38.6666666667 471 96 c 1
 413.666666667 146.666666667 385 215 385 301 c 2
 385 1114 l 2
 385 1196 419.666666667 1265.66666667 489 1323 c 1
 565.666666667 1376.33333333 654.666666667 1403 756 1403 c 2
 1069 1403 l 1
 1069 928 l 1
 795 928 l 1
 795 1171 l 1
 766 1171 l 2
 734.666666667 1171 709.333333333 1163 690 1147 c 1
 670.666666667 1126.33333333 661.333333333 1103.66666667 662 1079 c 2
 662 373 l 2
 662 339 672 307.666666667 692 279 c 1
 722 253 752 240 782 240 c 2
 1665 240 l 2
 1696.33333333 240 1723 253 1745 279 c 1
 1757 291 1764.33333333 300.333333333 1767 307 c 1
 1777.66666667 323.666666667 1783.33333333 344.333333333 1784 369 c 2
 1784 596 l 2
 1784 624.666666667 1763.33333333 661.666666667 1722 707 c 1
 1110 707 l 1
 1110 938 l 1
 1616 938 l 1
 1591.33333333 976 1579 1003.33333333 1579 1020 c 2
 1579 1182 l 2
 1579 1244.66666667 1606.66666667 1295.16666667 1662 1333.5 c 128
 1717.33333333 1371.83333333 1784 1391 1862 1391 c 2
 2050 1391 l 2
 2089.33333333 1391 2124.16666667 1385.83333333 2154.5 1375.5 c 128
 2184.83333333 1365.16666667 2212.66666667 1347.66666667 2238 1323 c 0
 2292.66666667 1273.66666667 2320 1215 2320 1147 c 1
 2333 993 l 1
2040 1010 m 1
 2040 1104 l 2
 2040 1143.33333333 2029 1163 2007 1163 c 2
 1919 1163 l 2
 1897 1163 1880.83333333 1156.83333333 1870.5 1144.5 c 128
 1860.16666667 1132.16666667 1855 1118.66666667 1855 1104 c 2
 1855 1038 l 2
 1855 1002.66666667 1870.33333333 969.333333333 1901 938 c 1
 1989 938 l 2
 2004.33333333 938 2017 945.5 2027 960.5 c 128
 2037 975.5 2041.33333333 992 2040 1010 c 1
EndSplineSet
EndChar

StartChar: ivowel
Encoding: 111 3207 105
Width: 1687
Flags: HW
LayerCount: 2
Fore
SplineSet
1767 0 m 1
 1599 0 l 2
 1525 0 1458.33333333 22.6666666667 1399 68 c 1
 1344.33333333 117.333333333 1317 173.333333333 1317 236 c 2
 1317 350 l 1
 1102 350 l 2
 1029.33333333 350 970.666666667 370 926 410 c 1
 901.333333333 426.666666667 882.5 447.166666667 869.5 471.5 c 128
 856.5 495.833333333 850 521 850 547 c 2
 850 692 l 2
 850 714 855.5 734.5 866.5 753.5 c 128
 877.5 772.5 893.666666667 790.333333333 915 807 c 1
 964.333333333 833 1020.33333333 846 1083 846 c 2
 1335 846 l 2
 1379 846 1418.66666667 833.666666667 1454 809 c 1
 1491 780 l 1
 1491 1085 l 2
 1491 1104.33333333 1482.16666667 1120.5 1464.5 1133.5 c 128
 1446.83333333 1146.5 1418 1153 1378 1153 c 2
 1219 1153 l 2
 1181 1153 1149.33333333 1144.66666667 1124 1128 c 1
 1104.66666667 1111.33333333 1095.33333333 1092.33333333 1096 1071 c 2
 1096 913 l 1
 821 913 l 1
 821 1061 l 2
 821 1085.66666667 809.833333333 1107.5 787.5 1126.5 c 128
 765.166666667 1145.5 734 1155 694 1155 c 2
 500 1155 l 2
 468.666666667 1155 443.333333333 1147.5 424 1132.5 c 128
 404.666666667 1117.5 395 1097 395 1071 c 2
 393 940 l 1
 395.666666667 908.666666667 404.666666667 888.333333333 420 879 c 1
 435.333333333 859.666666667 452.333333333 850 471 850 c 2
 543 850 l 1
 543 618 l 1
 414 621 l 2
 330.666666667 621 261.666666667 648 207 702 c 1
 148.333333333 755.333333333 119 820.333333333 119 897 c 2
 119 1100 l 2
 119 1154.66666667 134 1203.66666667 164 1247 c 1
 192.666666667 1295 232.333333333 1329.33333333 283 1350 c 1
 331 1374.66666667 384 1386.66666667 442 1386 c 2
 723 1386 l 2
 789.666666667 1386 843 1373.33333333 883 1348 c 1
 911.666666667 1336 936.666666667 1314 958 1282 c 1
 967.333333333 1298.66666667 977.333333333 1312 988 1322 c 128
 998.666666667 1332 1010 1340 1022 1346 c 1
 1060 1374.66666667 1105.66666667 1389 1159 1389 c 2
 1425 1389 l 2
 1475.66666667 1389 1520.16666667 1382.83333333 1558.5 1370.5 c 128
 1596.83333333 1358.16666667 1631.66666667 1337 1663 1307 c 1
 1731 1252.33333333 1765 1180.66666667 1765 1092 c 2
 1765 752 l 2
 1765 630.666666667 1706.33333333 516.666666667 1589 410 c 1
 1589 281 l 2
 1589 265.666666667 1592.33333333 254.666666667 1599 248 c 1
 1615.66666667 237.333333333 1627.33333333 231.666666667 1634 231 c 2
 1763 231 l 1
 1767 0 l 1
1309 584 m 1
 1309 610 1296.66666667 623 1272 623 c 2
 1139 623 l 2
 1129.66666667 623 1124 622.333333333 1122 621 c 2
 1120 606 l 1
 1122 596 l 1
 1139 586 l 1
 1309 584 l 1
EndSplineSet
EndChar

StartChar: iivowel
Encoding: 112 3208 106
Width: 2623
Flags: HW
LayerCount: 2
Fore
SplineSet
2712 827 m 2
 2712 769.666666667 2689.33333333 712.333333333 2644 655 c 1
 2604.66666667 609.666666667 2553.33333333 574.333333333 2490 549 c 1
 2598 431.666666667 2652 353.666666667 2652 315 c 2
 2652 178 l 2
 2652 138.666666667 2637 99 2607 59 c 1
 2575.66666667 23.6666666667 2538 6 2494 6 c 2
 1993 6 l 1
 1993 238 l 1
 2322 238 l 2
 2332.66666667 238 2344.33333333 244.833333333 2357 258.5 c 128
 2369.66666667 272.166666667 2376 281.666666667 2376 287 c 2
 2376 297 l 2
 2376 325.666666667 2358 353 2322 379 c 1
 2185 518 l 1
 1745 518 l 1
 1745 285 l 2
 1745 211 1715.66666667 145.333333333 1657 88 c 128
 1598.33333333 30.6666666667 1527.33333333 2 1444 2 c 2
 709 4 l 2
 639.666666667 4 578.166666667 28.3333333333 524.5 77 c 128
 470.833333333 125.666666667 444 186 444 258 c 2
 444 518 l 1
 213 518 l 1
 213 750 l 1
 444 750 l 1
 444 907 l 2
 444 995.666666667 488.666666667 1082.33333333 578 1167 c 1
 416 1167 l 1
 416 1399 l 1
 1493 1399 l 2
 1515 1399 1529.33333333 1405 1536 1417 c 1
 1548 1429 1554 1442.66666667 1554 1458 c 2
 1554 1587 l 1
 1835 1587 l 1
 1835 1458 l 2
 1835 1384 1807.66666667 1320 1753 1266 c 1
 1715 1218 1663.66666667 1185.66666667 1599 1169 c 1
 1638.33333333 1140.33333333 1670.66666667 1111 1696 1081 c 0
 1730 1037 1747 997.666666667 1747 963 c 2
 1747 748 l 1
 1980 748 l 1
 1950 788.666666667 1935 836.333333333 1935 891 c 2
 1935 1038 l 2
 1935 1106 1959.66666667 1164.33333333 2009 1213 c 128
 2058.33333333 1261.66666667 2119 1286 2191 1286 c 2
 2437 1286 l 2
 2515 1286 2578.66666667 1260.66666667 2628 1210 c 1
 2685.33333333 1159.33333333 2714 1097.33333333 2714 1024 c 2
 2712 827 l 2
2433 852 m 2
 2433 999 l 2
 2433 1008.33333333 2430.33333333 1017.16666667 2425 1025.5 c 128
 2419.66666667 1033.83333333 2416.33333333 1038.66666667 2415 1040 c 0
 2408.33333333 1049.33333333 2396.66666667 1054.33333333 2380 1055 c 2
 2265 1055 l 2
 2245.66666667 1055 2234.66666667 1051.33333333 2232 1044 c 0
 2222.66666667 1028.66666667 2218 1018 2218 1012 c 2
 2216 856 l 1
 2217.33333333 836.666666667 2224 819 2236 803 c 1
 2333 745 l 1
 2355 750.333333333 2375.33333333 761.333333333 2394 778 c 1
 2420 804 2433 828.666666667 2433 852 c 2
1464 752 m 1
 1464 977 l 2
 1464 1059 1419.66666667 1124.66666667 1331 1174 c 1
 885 1174 l 1
 773 1097.33333333 717 1012.66666667 717 920 c 2
 717 752 l 1
 1464 752 l 1
1466 369 m 1
 1466 520 l 1
 717 520 l 1
 717 340 l 2
 717 315.333333333 727.166666667 291.833333333 747.5 269.5 c 128
 767.833333333 247.166666667 788.333333333 236 809 236 c 2
 1335 236 l 2
 1350.33333333 236 1364.5 239 1377.5 245 c 128
 1390.5 251 1404.33333333 259.333333333 1419 270 c 1
 1447.66666667 302 1463.33333333 335 1466 369 c 1
EndSplineSet
EndChar

StartChar: uvowel
Encoding: 113 3209 107
Width: 3143
Flags: HW
LayerCount: 2
Fore
SplineSet
3236 311 m 2
 3236 256.333333333 3223 204.666666667 3197 156 c 1
 3181.66666667 131.333333333 3165.16666667 110.166666667 3147.5 92.5 c 128
 3129.83333333 74.8333333333 3108.66666667 59.6666666667 3084 47 c 0
 3030.66666667 18.3333333333 2979 4 2929 4 c 2
 2527 4 l 2
 2497 4 2467.33333333 7.83333333333 2438 15.5 c 128
 2408.66666667 23.1666666667 2381.33333333 33 2356 45 c 128
 2330.66666667 57 2306.83333333 73 2284.5 93 c 128
 2262.16666667 113 2242.66666667 134 2226 156 c 1
 2194.66666667 209.333333333 2179 261 2179 311 c 2
 2179 1096 l 2
 2179 1106.66666667 2173 1123 2161 1145 c 1
 2141.66666667 1155.66666667 2119.66666667 1161 2095 1161 c 2
 1712 1161 l 2
 1686 1161 1667.5 1154.83333333 1656.5 1142.5 c 128
 1645.5 1130.16666667 1640 1114 1640 1094 c 2
 1640 293 l 2
 1640 264.333333333 1637 240 1631 220 c 128
 1625 200 1612.33333333 175 1593 145 c 1
 1564.33333333 104.333333333 1522 70.3333333333 1466 43 c 128
 1410 15.6666666667 1353.33333333 2 1296 2 c 2
 766 4 l 2
 664.666666667 4 578 35.3333333333 506 98 c 0
 470.666666667 128 444.333333333 163.5 427 204.5 c 128
 409.666666667 245.5 401 288.666666667 401 334 c 2
 401 1079 l 2
 401 1137.66666667 412 1191.66666667 434 1241 c 1
 464 1294.33333333 505.333333333 1333.33333333 558 1358 c 128
 610.666666667 1382.66666667 661 1395 709 1395 c 2
 1171 1395 l 1
 1171 985 l 2
 1171 912.333333333 1144.16666667 847 1090.5 789 c 128
 1036.83333333 731 973 702 899 702 c 2
 719 702 l 1
 719 934 l 1
 838 934 l 2
 850 934 862.166666667 939.5 874.5 950.5 c 128
 886.833333333 961.5 893 972.333333333 893 983 c 2
 893 1159 l 1
 764 1159 l 2
 734 1159 712.666666667 1151.66666667 700 1137 c 0
 680.666666667 1115 671.333333333 1094.33333333 672 1075 c 2
 672 330 l 2
 672 309.333333333 682.833333333 287.333333333 704.5 264 c 128
 726.166666667 240.666666667 751.333333333 229 780 229 c 2
 1278 229 l 2
 1304 229 1322.33333333 237.333333333 1333 254 c 1
 1352.33333333 276 1362 296.333333333 1362 315 c 2
 1362 1092 l 2
 1362 1183.33333333 1389.33333333 1253.66666667 1444 1303 c 1
 1501.33333333 1361.66666667 1571.66666667 1391 1655 1391 c 2
 2124 1391 l 2
 2186.66666667 1391 2243.33333333 1378.66666667 2294 1354 c 128
 2344.66666667 1329.33333333 2384.33333333 1295 2413 1251 c 0
 2429.66666667 1225 2441 1201.83333333 2447 1181.5 c 128
 2453 1161.16666667 2456 1136 2456 1106 c 2
 2456 332 l 2
 2456 303.333333333 2464 279.333333333 2480 260 c 1
 2504.66666667 239.333333333 2527.33333333 229 2548 229 c 2
 2882 229 l 2
 2908 229 2926.33333333 237.333333333 2937 254 c 1
 2956.33333333 273.333333333 2966 293.666666667 2966 315 c 2
 2966 1075 l 2
 2966 1090.33333333 2958 1104.16666667 2942 1116.5 c 128
 2926 1128.83333333 2906 1135 2882 1135 c 2
 2820 1135 l 1
 2820 1393 l 1
 2968 1393 l 2
 3047.33333333 1393 3111.33333333 1367.66666667 3160 1317 c 1
 3213.33333333 1266.33333333 3240 1205 3240 1133 c 2
 3236 311 l 2
EndSplineSet
EndChar

StartChar: uuvowel
Encoding: 114 3210 108
Width: 3768
Flags: HW
LayerCount: 2
Fore
SplineSet
3854 295 m 2
 3854 211.666666667 3825.33333333 144.666666667 3768 94 c 1
 3710.66666667 34 3644.66666667 4 3570 4 c 2
 3451 4 l 2
 3381.66666667 4 3315.33333333 30.6666666667 3252 84 c 0
 3226 106 3206.5 133.666666667 3193.5 167 c 128
 3180.5 200.333333333 3174 234 3174 268 c 2
 3174 477 l 1
 3451 477 l 1
 3451 268 l 2
 3451 257.333333333 3452.33333333 250.333333333 3455 247 c 128
 3457.66666667 243.666666667 3461.66666667 241.666666667 3467 241 c 128
 3472.33333333 240.333333333 3478 239.333333333 3484 238 c 1
 3555 238 l 1
 3564.33333333 243.333333333 3570 247.333333333 3572 250 c 2
 3580 287 l 1
 3580 1057 l 2
 3580 1087 3570.5 1112.83333333 3551.5 1134.5 c 128
 3532.5 1156.16666667 3510 1167 3484 1167 c 2
 3193 1167 l 2
 3155 1167 3125 1156.16666667 3103 1134.5 c 128
 3081 1112.83333333 3070 1087 3070 1057 c 2
 3070 338 l 2
 3070 302.666666667 3064.66666667 269.333333333 3054 238 c 0
 3052.66666667 232.666666667 3043.66666667 212 3027 176 c 1
 2995.66666667 121.333333333 2959.33333333 81.6666666667 2918 57 c 0
 2864.66666667 25.6666666667 2811.66666667 10 2759 10 c 2
 2333 10 l 2
 2249.66666667 10 2179.33333333 40.5 2122 101.5 c 128
 2064.66666667 162.5 2036 238.666666667 2036 330 c 2
 2036 1090 l 2
 2036 1116 2027 1136.5 2009 1151.5 c 128
 1991 1166.5 1967.66666667 1174 1939 1174 c 2
 1645 1174 l 2
 1616.33333333 1174 1593.33333333 1164.33333333 1576 1145 c 128
 1558.66666667 1125.66666667 1550 1103.66666667 1550 1079 c 2
 1550 354 l 2
 1550 260 1514 181 1442 117 c 1
 1372.66666667 47.6666666667 1288.66666667 12.6666666667 1190 12 c 2
 799 14 l 2
 692.333333333 14 597.333333333 45.6666666667 514 109 c 1
 476 140.333333333 448 175.333333333 430 214 c 128
 412 252.666666667 403 296 403 344 c 2
 403 1106 l 2
 403 1194.66666667 436.666666667 1265.66666667 504 1319 c 1
 538 1349 575.5 1370.5 616.5 1383.5 c 128
 657.5 1396.5 702.666666667 1403 752 1403 c 2
 1176 1403 l 1
 1176 1032 l 2
 1176 954 1144.33333333 886.333333333 1081 829 c 1
 1023.66666667 770.333333333 953.333333333 741 870 741 c 2
 752 741 l 1
 752 973 l 1
 842 973 l 2
 851.333333333 973 859 974.666666667 865 978 c 128
 871 981.333333333 875 983.666666667 877 985 c 0
 889 995.666666667 895 1006.66666667 895 1018 c 2
 895 1169 l 1
 780 1169 l 2
 748.666666667 1169 723.166666667 1160.5 703.5 1143.5 c 128
 683.833333333 1126.5 674 1107 674 1085 c 2
 674 352 l 2
 674 322 687.333333333 295.833333333 714 273.5 c 128
 740.666666667 251.166666667 773 240 811 240 c 2
 1180 240 l 2
 1200.66666667 240 1223 250 1247 270 c 1
 1266.33333333 290.666666667 1276 318 1276 352 c 2
 1276 1085 l 2
 1276 1147.66666667 1293 1201.66666667 1327 1247 c 1
 1361 1300.33333333 1405 1339.33333333 1459 1364 c 128
 1513 1388.66666667 1569.33333333 1401 1628 1401 c 2
 1952 1401 l 2
 2014.66666667 1401 2074.66666667 1388 2132 1362 c 0
 2162 1350 2186.83333333 1335 2206.5 1317 c 128
 2226.16666667 1299 2244.66666667 1276.66666667 2262 1250 c 128
 2279.33333333 1223.33333333 2292.66666667 1197.5 2302 1172.5 c 128
 2311.33333333 1147.5 2316 1120 2316 1090 c 2
 2316 330 l 2
 2316 305.333333333 2323.83333333 284.5 2339.5 267.5 c 128
 2355.16666667 250.5 2377.33333333 242 2406 242 c 2
 2681 242 l 2
 2709.66666667 242 2736.33333333 252 2761 272 c 1
 2771.66666667 284 2780.16666667 296.666666667 2786.5 310 c 128
 2792.83333333 323.333333333 2796 337.333333333 2796 352 c 2
 2796 1059 l 2
 2796 1119 2810.33333333 1176.33333333 2839 1231 c 1
 2873 1285.66666667 2916.5 1327.33333333 2969.5 1356 c 128
 3022.5 1384.66666667 3081.33333333 1399 3146 1399 c 2
 3486 1399 l 2
 3552.66666667 1399 3614.66666667 1384.66666667 3672 1356 c 0
 3698 1344 3722.33333333 1327.66666667 3745 1307 c 128
 3767.66666667 1286.33333333 3787 1261.66666667 3803 1233 c 0
 3838.33333333 1175.66666667 3856 1117.66666667 3856 1059 c 2
 3854 295 l 2
EndSplineSet
EndChar

StartChar: rvocalicvowel.part
Encoding: 116 -1 110
Width: 2152
Flags: HW
LayerCount: 2
Fore
SplineSet
2232 311 m 2
 2232 270.333333333 2227 232.833333333 2217 198.5 c 128
 2207 164.166666667 2191 131.333333333 2169 100 c 1
 2115.66666667 36 2057.66666667 4 1995 4 c 2
 1556 4 l 2
 1497.33333333 4 1438 19 1378 49 c 1
 1334 68.3333333333 1297.33333333 98.3333333333 1268 139 c 1
 1246 103.666666667 1220.66666667 75 1192 53 c 0
 1151.33333333 21.6666666667 1113 6 1077 6 c 2
 575 8 l 2
 501 8 442.333333333 28.6666666667 399 70 c 1
 345.666666667 116.666666667 319 169.666666667 319 229 c 2
 319 612 l 1
 694 612 l 2
 739.333333333 612 776.333333333 608 805 600 c 128
 833.666666667 592 861 577 887 555 c 1
 947 511 977 457.666666667 977 395 c 2
 977 279 l 1
 700 279 l 1
 700 369 l 2
 700 379.666666667 689.333333333 385 668 385 c 2
 600 385 l 1
 598 299 l 1
 599.333333333 282.333333333 605.333333333 268 616 256 c 1
 632.666666667 244 649.333333333 238 666 238 c 2
 983 238 l 2
 1002.33333333 238 1019.5 240.666666667 1034.5 246 c 128
 1049.5 251.333333333 1062.33333333 258 1073 266 c 0
 1097.66666667 281.333333333 1110 300 1110 322 c 2
 1110 1114 l 2
 1110 1130.66666667 1100.16666667 1144 1080.5 1154 c 128
 1060.83333333 1164 1035.33333333 1169 1004 1169 c 2
 692 1169 l 2
 663.333333333 1169 638.666666667 1163.66666667 618 1153 c 1
 606 1151.66666667 600 1143.33333333 600 1128 c 2
 600 997 l 1
 668 997 l 2
 674.666666667 997 681.666666667 998.833333333 689 1002.5 c 128
 696.333333333 1006.16666667 703 1009.33333333 709 1012 c 1
 721 1024 727 1037.66666667 727 1053 c 2
 727 1128 l 1
 1004 1128 l 1
 1004 1040 l 2
 1004 966 978.666666667 900.666666667 928 844 c 1
 873.333333333 786.666666667 809.666666667 758 737 758 c 2
 317 758 l 1
 317 1161 l 2
 317 1225 345.666666667 1282.33333333 403 1333 c 1
 457.666666667 1373.66666667 524 1394.33333333 602 1395 c 2
 1075 1395 l 2
 1161 1395 1234 1369.66666667 1294 1319 c 1
 1356.66666667 1261.66666667 1388.33333333 1196 1389 1122 c 2
 1389 375 l 1
 1409.66666667 334.333333333 1439.33333333 299.833333333 1478 271.5 c 128
 1516.66666667 243.166666667 1551.66666667 229 1583 229 c 2
 1860 229 l 2
 1884.66666667 229 1906.83333333 240 1926.5 262 c 128
 1946.16666667 284 1956 312 1956 346 c 2
 1956 1028 l 2
 1956 1072 1942.66666667 1106.16666667 1916 1130.5 c 128
 1889.33333333 1154.83333333 1857 1167 1819 1167 c 2
 1487 1167 l 1
 1487 1399 l 1
 1847 1399 l 2
 1869 1399 1893 1410 1919 1432 c 1
 1941 1458 1952 1485 1952 1513 c 2
 1952 1642 l 1
 2228 1642 l 1
 2228 1485 l 2
 2228 1431.66666667 2213 1386 2183 1348 c 1
 2162.33333333 1312.66666667 2137 1286.66666667 2107 1270 c 1
 2126.33333333 1259.33333333 2141.16666667 1248.83333333 2151.5 1238.5 c 128
 2161.83333333 1228.16666667 2173 1212.66666667 2185 1192 c 1
 2213.66666667 1152.66666667 2228 1107.66666667 2228 1057 c 2
 2232 311 l 2
EndSplineSet
EndChar

StartChar: lvocalicvowel.part
Encoding: 118 -1 112
Width: 1687
Flags: HW
LayerCount: 2
Fore
SplineSet
2073 444 m 1
 1804 119 l 1
 1770 64.3333333333 1725.66666667 31.3333333333 1671 20 c 0
 1665.66666667 18.6666666667 1654.66666667 18 1638 18 c 0
 1598.66666667 18 1553.33333333 26 1502 42 c 128
 1450.66666667 58 1407.33333333 81 1372 111 c 1
 1331.33333333 147.666666667 1302.66666667 178.333333333 1286 203 c 0
 1264 237 1253 274.333333333 1253 315 c 0
 1253 325.666666667 1292 393.333333333 1370 518 c 0
 1394.66666667 557.333333333 1434.33333333 618 1489 700 c 1
 1499.66666667 728.666666667 1506.83333333 759.833333333 1510.5 793.5 c 128
 1514.16666667 827.166666667 1516 863.666666667 1516 903 c 0
 1516 943.666666667 1514.16666667 979.166666667 1510.5 1009.5 c 128
 1506.83333333 1039.83333333 1503.66666667 1065.66666667 1501 1087 c 1
 1501 1106.33333333 1492.16666667 1122.5 1474.5 1135.5 c 128
 1456.83333333 1148.5 1428.33333333 1155 1389 1155 c 2
 1229 1155 l 2
 1191 1155 1159.66666667 1146.66666667 1135 1130 c 1
 1115.66666667 1113.33333333 1106 1094.33333333 1106 1073 c 2
 1106 915 l 1
 831 915 l 1
 831 1063 l 2
 831 1087.66666667 819.833333333 1109.5 797.5 1128.5 c 128
 775.166666667 1147.5 744.333333333 1157 705 1157 c 2
 510 1157 l 2
 478.666666667 1157 453.5 1149.5 434.5 1134.5 c 128
 415.5 1119.5 406 1099 406 1073 c 2
 403 942 l 1
 405.666666667 910.666666667 414.666666667 890.333333333 430 881 c 1
 445.333333333 861.666666667 462.333333333 852 481 852 c 2
 553 852 l 1
 553 621 l 1
 424 623 l 2
 340.666666667 623 271.666666667 650.333333333 217 705 c 1
 158.333333333 758.333333333 129 823 129 899 c 2
 129 1102 l 2
 129 1156.66666667 144 1205.66666667 174 1249 c 1
 202.666666667 1297 242.333333333 1331.33333333 293 1352 c 1
 341 1376.66666667 394.333333333 1389 453 1389 c 2
 733 1389 l 2
 799.666666667 1389 853 1376 893 1350 c 1
 921.666666667 1338 947 1316 969 1284 c 1
 978.333333333 1300.66666667 988.166666667 1314 998.5 1324 c 128
 1008.83333333 1334 1020 1342 1032 1348 c 1
 1070 1376.66666667 1115.66666667 1391 1169 1391 c 2
 1436 1391 l 2
 1486.66666667 1391 1531 1384.83333333 1569 1372.5 c 128
 1607 1360.16666667 1641.66666667 1339 1673 1309 c 1
 1741 1254.33333333 1775.33333333 1182.66666667 1776 1094 c 2
 1776 754 l 2
 1776 714.666666667 1765 672.333333333 1743 627 c 0
 1737.66666667 617.666666667 1688.33333333 545.333333333 1595 410 c 1
 1579.66666667 390.666666667 1569.66666667 377.666666667 1565 371 c 0
 1543 341 1532 323 1532 317 c 0
 1532 292.333333333 1538.16666667 277.333333333 1550.5 272 c 128
 1562.83333333 266.666666667 1574.33333333 264 1585 264 c 0
 1609.66666667 264 1628 272.333333333 1640 289 c 2
 1866 580 l 1
 2073 444 l 1
EndSplineSet
EndChar

StartChar: evowel
Encoding: 119 3214 113
Width: 2039
Flags: HW
LayerCount: 2
Fore
SplineSet
2126 311 m 2
 2126 225 2098 151.666666667 2042 91 c 128
 1986 30.3333333333 1919 0 1841 0 c 2
 1395 2 l 2
 1340.33333333 2 1291 16.3333333333 1247 45 c 1
 1222.33333333 57 1204 74 1192 96 c 1
 1175.33333333 71.3333333333 1157.66666667 53 1139 41 c 0
 1099.66666667 12.3333333333 1058 -2 1014 -2 c 2
 674 0 l 2
 580 0 499.5 27.6666666667 432.5 83 c 128
 365.5 138.333333333 332 207.666666667 332 291 c 2
 332 852 l 1
 702 852 l 2
 747.333333333 852 789 837 827 807 c 0
 846.333333333 791.666666667 864.833333333 774.166666667 882.5 754.5 c 128
 900.166666667 734.833333333 914.666666667 712.666666667 926 688 c 1
 956 630.666666667 975.666666667 567.333333333 985 498 c 1
 731 430 l 1
 725.666666667 464 717.833333333 492.333333333 707.5 515 c 128
 697.166666667 537.666666667 684.666666667 559.333333333 670 580 c 0
 663.333333333 589.333333333 654.833333333 597 644.5 603 c 128
 634.166666667 609 622.666666667 613.333333333 610 616 c 1
 608 346 l 1
 609.333333333 316 621 288.666666667 643 264 c 1
 669 242 697.666666667 231 729 231 c 2
 952 231 l 2
 982 231 1005.33333333 241.333333333 1022 262 c 0
 1046.66666667 290.666666667 1059 318 1059 344 c 2
 1059 502 l 1
 1339 502 l 1
 1339 362 l 2
 1339 328 1353.66666667 297.666666667 1383 271 c 128
 1412.33333333 244.333333333 1444.33333333 231 1479 231 c 2
 1724 231 l 2
 1759.33333333 231 1788.66666667 244.666666667 1812 272 c 128
 1835.33333333 299.333333333 1847 328.666666667 1847 360 c 2
 1847 1010 l 2
 1847 1055.33333333 1832 1091.5 1802 1118.5 c 128
 1772 1145.5 1732.33333333 1159 1683 1159 c 2
 1468 1159 l 1
 1468 1391 l 1
 1712 1391 l 2
 1788.66666667 1391 1858.33333333 1375.83333333 1921 1345.5 c 128
 1983.66666667 1315.16666667 2033.5 1271.33333333 2070.5 1214 c 128
 2107.5 1156.66666667 2126 1098 2126 1038 c 2
 2126 311 l 2
EndSplineSet
EndChar

StartChar: eevowel
Encoding: 120 3215 114
Width: 2033
Flags: HW
LayerCount: 2
Fore
SplineSet
2122 340 m 2
 2122 282.666666667 2102.66666667 224.666666667 2064 166 c 1
 2034 115.333333333 1987.66666667 74.3333333333 1925 43 c 1
 1895 31 1862.66666667 20.8333333333 1828 12.5 c 128
 1793.33333333 4.16666666667 1755.33333333 0 1714 0 c 2
 1399 8 l 2
 1349.66666667 8 1303.33333333 22.3333333333 1260 51 c 1
 1231.33333333 73 1209.33333333 99.6666666667 1194 131 c 1
 1136.66666667 46.3333333333 1059 4 961 4 c 2
 698 4 l 2
 595.333333333 4 508 35 436 97 c 128
 364 159 328 234.666666667 328 324 c 2
 328 858 l 1
 700 858 l 2
 745.333333333 858 786.166666667 843.666666667 822.5 815 c 128
 858.833333333 786.333333333 892.666666667 745.333333333 924 692 c 1
 948.666666667 646.666666667 969 583.333333333 985 502 c 1
 723 436 l 1
 711 504 690.666666667 553.333333333 662 584 c 0
 642.666666667 604.666666667 622.666666667 617.666666667 602 623 c 1
 600 352 l 1
 605.333333333 320.666666667 618.333333333 294 639 272 c 1
 667.666666667 247.333333333 697 235.333333333 727 236 c 2
 946 236 l 2
 976 236 1002 248.5 1024 273.5 c 128
 1046 298.5 1057 324 1057 350 c 2
 1057 508 l 1
 1337 508 l 1
 1337 369 l 2
 1337 339 1348 308 1370 276 c 1
 1400 250 1432 237.333333333 1466 238 c 2
 1720 238 l 2
 1751.33333333 238 1778 250.666666667 1800 276 c 1
 1812 288 1819.66666667 297.666666667 1823 305 c 1
 1833.66666667 321.666666667 1839 342.333333333 1839 367 c 2
 1839 1016 l 2
 1839 1060 1823.33333333 1096.16666667 1792 1124.5 c 128
 1760.66666667 1152.83333333 1719.66666667 1167 1669 1167 c 2
 1473 1167 l 1
 1473 1124 l 2
 1473 1065.33333333 1444 1018.33333333 1386 983 c 1
 1360 963.666666667 1332.5 949.333333333 1303.5 940 c 128
 1274.5 930.666666667 1240 926 1200 926 c 2
 926 926 l 2
 842.666666667 926 769.666666667 951 707 1001 c 1
 644.333333333 1055.66666667 612.666666667 1118 612 1188 c 2
 612 1397 l 1
 889 1397 l 1
 889 1217 l 2
 889 1205 895 1190.66666667 907 1174 c 1
 926.333333333 1163.33333333 941.333333333 1157.66666667 952 1157 c 2
 1141 1157 l 2
 1150.33333333 1157 1162.66666667 1164.66666667 1178 1180 c 1
 1188.66666667 1195.33333333 1194 1213.66666667 1194 1235 c 2
 1194 1397 l 1
 1696 1397 l 2
 1775.33333333 1397 1846.66666667 1382 1910 1352 c 128
 1973.33333333 1322 2022 1279.66666667 2056 1225 c 1
 2095.33333333 1170.33333333 2115.33333333 1111 2116 1047 c 2
 2122 340 l 2
EndSplineSet
EndChar

StartChar: aivowel
Encoding: 121 3216 115
Width: 2158
Flags: HW
LayerCount: 2
Fore
SplineSet
2238 315 m 2
 2238 227.666666667 2204 154 2136 94 c 1
 2068 30 1980.66666667 -2 1874 -2 c 1
 1563 6 l 1
 1500.33333333 6 1445 20.3333333333 1397 49 c 128
 1349 77.6666666667 1312 109.666666667 1286 145 c 1
 1256 105.666666667 1223.33333333 75 1188 53 c 0
 1140 21.6666666667 1091.33333333 6 1042 6 c 2
 674 8 l 2
 580 8 499.5 35.6666666667 432.5 91 c 128
 365.5 146.333333333 332 215.666666667 332 299 c 2
 332 596 l 2
 332 687.333333333 365.333333333 762.333333333 432 821 c 1
 462 851 498.5 873.5 541.5 888.5 c 128
 584.5 903.5 628.666666667 911 674 911 c 2
 1106 911 l 1
 1106 608 l 2
 1106 568.666666667 1097.5 531.5 1080.5 496.5 c 128
 1063.5 461.5 1037.83333333 427.333333333 1003.5 394 c 128
 969.166666667 360.666666667 933 336.166666667 895 320.5 c 128
 857 304.833333333 808.666666667 297 750 297 c 1
 678 522 l 1
 708 522 730.166666667 524.5 744.5 529.5 c 128
 758.833333333 534.5 774.333333333 543 791 555 c 0
 815.666666667 574.333333333 827.666666667 594 827 614 c 2
 827 674 l 1
 748 674 l 2
 702.666666667 674 668 664 644 644 c 128
 620 624 608 602 608 578 c 2
 606 373 l 2
 606 339 618.333333333 306.833333333 643 276.5 c 128
 667.666666667 246.166666667 697 231 731 231 c 2
 983 231 l 2
 1027 231 1066 245.666666667 1100 275 c 128
 1134 304.333333333 1151 337 1151 373 c 2
 1151 473 l 1
 1432 473 l 1
 1432 373 l 2
 1432 339 1446.33333333 306 1475 274 c 1
 1506.33333333 245.333333333 1541 231 1579 231 c 2
 1862 231 l 2
 1886.66666667 231 1910.83333333 245.333333333 1934.5 274 c 128
 1958.16666667 302.666666667 1970 336.333333333 1970 375 c 2
 1970 1053 l 2
 1970 1072.33333333 1965.33333333 1091.33333333 1956 1110 c 0
 1954.66666667 1112.66666667 1947.5 1121.83333333 1934.5 1137.5 c 128
 1921.5 1153.16666667 1898 1161 1864 1161 c 2
 1612 1161 l 2
 1583.33333333 1161 1559.33333333 1153 1540 1137 c 1
 1524.66666667 1120.33333333 1517.33333333 1097.66666667 1518 1069 c 2
 1518 975 l 1
 1241 975 l 1
 1241 1077 l 2
 1241 1097.66666667 1226.66666667 1118.33333333 1198 1139 c 1
 1169.33333333 1154.33333333 1131 1161.66666667 1083 1161 c 2
 721 1161 l 2
 705.666666667 1161 692 1159.33333333 680 1156 c 128
 668 1152.66666667 655.666666667 1145 643 1133 c 1
 617 1112.33333333 593.666666667 1076.66666667 573 1026 c 1
 358 1157 l 1
 396 1236.33333333 442.833333333 1295.83333333 498.5 1335.5 c 128
 554.166666667 1375.16666667 614 1395 678 1395 c 2
 1137 1395 l 2
 1206.33333333 1395 1260 1380.66666667 1298 1352 c 1
 1332 1332.66666667 1359.33333333 1306 1380 1272 c 1
 1390.66666667 1288.66666667 1402.33333333 1303 1415 1315 c 128
 1427.66666667 1327 1443.33333333 1338.66666667 1462 1350 c 1
 1502.66666667 1378.66666667 1550.66666667 1393 1606 1393 c 2
 1896 1393 l 2
 1958.66666667 1393 2015.33333333 1380.66666667 2066 1356 c 1
 2120.66666667 1334 2163 1299.83333333 2193 1253.5 c 128
 2223 1207.16666667 2238 1158.66666667 2238 1108 c 2
 2238 315 l 2
EndSplineSet
EndChar

StartChar: ovowel
Encoding: 122 3218 116
Width: 1974
Flags: HW
LayerCount: 2
Fore
SplineSet
2052 254 m 2
 2052 186 2029.83333333 126.666666667 1985.5 76 c 128
 1941.16666667 25.3333333333 1887 0 1823 0 c 2
 1374 0 l 2
 1324.66666667 0 1281 14.3333333333 1243 43 c 1
 1221 55 1202.66666667 72 1188 94 c 1
 1177.33333333 72 1162.33333333 55 1143 43 c 0
 1103.66666667 14.3333333333 1064.66666667 0 1026 0 c 2
 614 0 l 2
 537.333333333 0 467.666666667 22.8333333333 405 68.5 c 128
 342.333333333 114.166666667 311 170.666666667 311 238 c 2
 311 549 l 1
 578 711 l 1
 622 739.666666667 663.666666667 766.5 703 791.5 c 128
 742.333333333 816.5 771.666666667 837.333333333 791 854 c 0
 822.333333333 878.666666667 838 903.333333333 838 928 c 2
 838 1102 l 2
 838 1114 832.333333333 1127.66666667 821 1143 c 1
 810.333333333 1152.33333333 794.666666667 1157 774 1157 c 2
 592 1157 l 1
 592 1071 l 2
 592 1060.33333333 598.166666667 1047.83333333 610.5 1033.5 c 128
 622.833333333 1019.16666667 638.333333333 1012 657 1012 c 2
 709 1012 l 1
 709 780 l 1
 586 780 l 2
 509.333333333 780 445.666666667 809.333333333 395 868 c 1
 340.333333333 921.333333333 313 989 313 1071 c 2
 313 1389 l 1
 834 1389 l 2
 883.333333333 1389 929.333333333 1380.33333333 972 1363 c 128
 1014.66666667 1345.66666667 1049.66666667 1319.66666667 1077 1285 c 128
 1104.33333333 1250.33333333 1118 1212.33333333 1118 1171 c 2
 1118 860 l 2
 1118 824.666666667 1097.66666667 787.333333333 1057 748 c 0
 1023 716.666666667 935.666666667 657.666666667 795 571 c 2
 594 446 l 1
 594 322 l 2
 594 301.333333333 602 280.666666667 618 260 c 1
 638.666666667 243.333333333 661.333333333 235.333333333 686 236 c 2
 952 236 l 2
 971.333333333 236 992 245.333333333 1014 264 c 1
 1036 290 1047 314 1047 336 c 2
 1047 446 l 1
 1323 446 l 1
 1323 346 l 2
 1323 317.333333333 1333.33333333 290.666666667 1354 266 c 1
 1380 244 1410 233 1444 233 c 2
 1677 233 l 2
 1696.33333333 233 1717 242.666666667 1739 262 c 1
 1761 284 1772 308 1772 334 c 2
 1772 524 l 2
 1772 548.666666667 1764.33333333 566.5 1749 577.5 c 128
 1733.66666667 588.5 1715.33333333 594 1694 594 c 2
 1597 594 l 1
 1597 823 l 1
 1821 823 l 2
 1890.33333333 823 1944 804 1982 766 c 1
 2027.33333333 726.666666667 2050 676.666666667 2050 616 c 2
 2052 254 l 2
EndSplineSet
EndChar

StartChar: oovowel
Encoding: 123 3219 117
Width: 1974
Flags: HW
LayerCount: 2
Fore
SplineSet
2052 287 m 2
 2052 236.333333333 2039 190.666666667 2013 150 c 1
 1991 104.666666667 1961 69.3333333333 1923 44 c 128
 1885 18.6666666667 1843.33333333 6 1798 6 c 2
 1374 6 l 2
 1324.66666667 6 1281 20.3333333333 1243 49 c 1
 1214.33333333 65.6666666667 1194 86.3333333333 1182 111 c 1
 1176.66666667 104.333333333 1166.33333333 93.3333333333 1151 78 c 0
 1144.33333333 71.3333333333 1133.33333333 61.6666666667 1118 49 c 1
 1080 23 1039 10 995 10 c 2
 614 10 l 2
 537.333333333 10 467.666666667 32.8333333333 405 78.5 c 128
 342.333333333 124.166666667 311 181.333333333 311 250 c 2
 311 563 l 1
 578 725 l 1
 623.333333333 755 666.666666667 783.666666667 708 811 c 128
 749.333333333 838.333333333 776 857.333333333 788 868 c 0
 819.333333333 892.666666667 835.333333333 918 836 944 c 2
 836 1092 l 2
 836 1112.66666667 827 1131.83333333 809 1149.5 c 128
 791 1167.16666667 767.666666667 1176 739 1176 c 2
 588 1176 l 1
 588 1090 l 2
 588 1078 594.166666667 1064.66666667 606.5 1050 c 128
 618.833333333 1035.33333333 634.333333333 1028 653 1028 c 2
 705 1028 l 1
 705 795 l 1
 582 795 l 2
 508 795 444.333333333 824.333333333 391 883 c 1
 336.333333333 937.666666667 309 1006.66666667 309 1090 c 2
 309 1407 l 1
 483 1407 l 1
 367 1483.66666667 309 1547 309 1597 c 2
 309 1769 l 2
 309 1823.66666667 335.666666667 1868.33333333 389 1903 c 1
 434.333333333 1937 493 1954 565 1954 c 2
 852 1954 l 1
 852 1720 l 1
 643 1720 l 1
 600 1712 l 1
 593.333333333 1706.66666667 590 1699.33333333 590 1690 c 2
 590 1608 l 2
 590 1562.66666667 662.333333333 1496.33333333 807 1409 c 1
 829 1409 l 2
 878.333333333 1409 924.5 1400.5 967.5 1383.5 c 128
 1010.5 1366.5 1045.66666667 1339.5 1073 1302.5 c 128
 1100.33333333 1265.5 1114 1228 1114 1190 c 2
 1114 872 l 2
 1114 836.666666667 1093.66666667 799.333333333 1053 760 c 0
 1019 728.666666667 931.666666667 670 791 584 c 1
 747 554 703 526 659 500 c 0
 627.666666667 480.666666667 606 467.666666667 594 461 c 1
 594 332 l 2
 594 311.333333333 602 290.666666667 618 270 c 1
 640 250.666666667 662 241.333333333 684 242 c 2
 950 242 l 2
 966.666666667 242 987.333333333 252 1012 272 c 1
 1034 298 1044.66666667 322 1044 344 c 2
 1044 459 l 1
 1321 459 l 1
 1321 330 l 2
 1321 305.333333333 1333.33333333 284.166666667 1358 266.5 c 128
 1382.66666667 248.833333333 1410.66666667 240 1442 240 c 2
 1675 240 l 2
 1691.66666667 240 1712 250.833333333 1736 272.5 c 128
 1760 294.166666667 1772 318 1772 344 c 2
 1772 539 l 2
 1772 563.666666667 1764.33333333 581 1749 591 c 128
 1733.66666667 601 1715.33333333 606 1694 606 c 2
 1597 606 l 1
 1597 840 l 1
 1794 840 l 2
 1866.66666667 840 1927.5 813 1976.5 759 c 128
 2025.5 705 2050 643.666666667 2050 575 c 2
 2052 287 l 2
EndSplineSet
EndChar

StartChar: auvowel
Encoding: 124 3220 118
Width: 1966
Flags: HW
LayerCount: 2
Fore
SplineSet
2103 1040 m 1
 1444 1040 l 2
 1374.66666667 1040 1313.33333333 1067 1260 1121 c 128
 1206.66666667 1175 1180 1243.66666667 1180 1327 c 2
 1180 1573 l 1
 1753 1573 l 1
 1753 1341 l 1
 1430 1341 l 1
 1430 1327 l 2
 1430 1320.33333333 1432.33333333 1313.83333333 1437 1307.5 c 128
 1441.66666667 1301.16666667 1444.66666667 1296.66666667 1446 1294 c 0
 1458 1282 1473.66666667 1276 1493 1276 c 2
 1825 1276 l 1
 1825 1630 l 2
 1825 1656 1814 1678.5 1792 1697.5 c 128
 1770 1716.5 1743.33333333 1726 1712 1726 c 2
 1153 1726 l 1
 1159.66666667 1714 1163 1700.66666667 1163 1686 c 2
 1163 1632 l 2
 1163 1584 1148 1543 1118 1509 c 1
 1084 1475 1047.33333333 1458 1008 1458 c 2
 330 1458 l 1
 330 1690 l 1
 907 1690 l 2
 917.666666667 1690 925.5 1693 930.5 1699 c 128
 935.5 1705 938.666666667 1709.33333333 940 1712 c 128
 942 1716 942 1716 944 1720 c 1
 927.333333333 1721.33333333 913.666666667 1723.33333333 903 1726 c 1
 328 1724 l 1
 328 1958 l 1
 1741 1958 l 2
 1805 1958 1864.33333333 1947 1919 1925 c 1
 1976.33333333 1896.33333333 2020 1862.33333333 2050 1823 c 0
 2065.33333333 1801 2077.66666667 1778.66666667 2087 1756 c 128
 2096.33333333 1733.33333333 2101 1710 2101 1686 c 2
 2103 1040 l 1
2044 262 m 2
 2044 228 2038.83333333 196.666666667 2028.5 168 c 128
 2018.16666667 139.333333333 2002.66666667 110.666666667 1982 82 c 1
 1936.66666667 31.3333333333 1882.33333333 6 1819 6 c 2
 1360 6 l 2
 1314.66666667 6 1273 20.3333333333 1235 49 c 1
 1210.33333333 64.3333333333 1190 84.3333333333 1174 109 c 1
 1168.66666667 98.3333333333 1160.33333333 87.3333333333 1149 76 c 0
 1146.33333333 73.3333333333 1136.66666667 64.3333333333 1120 49 c 1
 1084.66666667 23 1050 10 1016 10 c 2
 633 12 l 2
 548.333333333 12 473.166666667 41 407.5 99 c 128
 341.833333333 157 309 225.666666667 309 305 c 2
 309 561 l 1
 578 723 l 1
 642 767 685 796.333333333 707 811 c 0
 751 839.666666667 777.333333333 858.666666667 786 868 c 1
 817.333333333 892.666666667 833.333333333 918 834 944 c 2
 834 1143 l 2
 834 1165 812 1176 768 1176 c 2
 586 1176 l 1
 586 1090 l 2
 586 1078 592.166666667 1064.66666667 604.5 1050 c 128
 616.833333333 1035.33333333 632.333333333 1028 651 1028 c 2
 731 1028 l 1
 731 795 l 1
 573 795 l 2
 500.333333333 795 437.5 824.333333333 384.5 883 c 128
 331.5 941.666666667 305 1010.66666667 305 1090 c 2
 305 1407 l 1
 825 1407 l 2
 874.333333333 1407 921.833333333 1397.5 967.5 1378.5 c 128
 1013.16666667 1359.5 1046.33333333 1334.33333333 1067 1303 c 1
 1095.66666667 1265 1110 1226.66666667 1110 1188 c 2
 1110 870 l 2
 1110 840 1095 810.666666667 1065 782 c 1
 1040.33333333 752 1008.33333333 724.666666667 969 700 c 1
 937.666666667 675.333333333 870.666666667 631.666666667 768 569 c 1
 588 455 l 1
 588 326 l 2
 588 301.333333333 596 281.333333333 612 266 c 1
 628.666666667 245.333333333 651.333333333 235.333333333 680 236 c 2
 975 236 l 2
 990.333333333 236 1004.33333333 246.166666667 1017 266.5 c 128
 1029.66666667 286.833333333 1036.66666667 300 1038 306 c 128
 1039.33333333 312 1040 322.666666667 1040 338 c 2
 1040 453 l 1
 1315 453 l 1
 1315 324 l 2
 1315 304.666666667 1323.5 284.666666667 1340.5 264 c 128
 1357.5 243.333333333 1380.33333333 233 1409 233 c 2
 1642 233 l 2
 1673.33333333 233 1702.33333333 244 1729 266 c 1
 1755 296 1767.66666667 319.333333333 1767 336 c 2
 1767 530 l 2
 1767 550.666666667 1758.5 567.166666667 1741.5 579.5 c 128
 1724.5 591.833333333 1705 598 1683 598 c 2
 1593 598 l 1
 1593 831 l 1
 1819 831 l 2
 1857 831 1888 827 1912 819 c 128
 1936 811 1958.66666667 796 1980 774 c 1
 2024 734.666666667 2046 685 2046 625 c 2
 2044 262 l 2
EndSplineSet
EndChar

StartChar: ka.base
Encoding: 126 -1 120
Width: 1134
Flags: HW
AnchorPoint: "s" 569 -127 basechar 0
LayerCount: 2
Fore
SplineSet
1565 788 m 1
 1190 788 l 1
 1220 767.333333333 1245.83333333 746.833333333 1267.5 726.5 c 128
 1289.16666667 706.166666667 1312.33333333 683 1337 657 c 1
 1387.66666667 594.333333333 1413 536.333333333 1413 483 c 2
 1413 279 l 2
 1413 206.333333333 1387.83333333 145.5 1337.5 96.5 c 128
 1287.16666667 47.5 1230.33333333 20 1167 14 c 1
 614 12 l 2
 546 12 490 32 446 72 c 0
 420 94 402.333333333 115.833333333 393 137.5 c 128
 383.666666667 159.166666667 379 185.666666667 379 217 c 2
 379 461 l 2
 379 548.333333333 456.666666667 659 612 793 c 1
 201 793 l 1
 201 1024 l 1
 756 1024 l 1
 756 1169 l 1
 201 1169 l 1
 201 1401 l 1
 1214 1401 l 1
 1214 1169 l 1
 1034 1169 l 1
 1034 1024 l 1
 1565 1024 l 1
 1565 788 l 1
1139 332 m 1
 1139 455 l 2
 1139 503 1117 549.333333333 1073 594 c 0
 1048.33333333 620 1022.66666667 643.833333333 996 665.5 c 128
 969.333333333 687.166666667 937 707.666666667 899 727 c 1
 735 641 653 555 653 469 c 2
 653 324 l 2
 653 304.666666667 660.666666667 284.666666667 676 264 c 1
 681.333333333 261.333333333 688.166666667 258.333333333 696.5 255 c 128
 704.833333333 251.666666667 719 250 739 250 c 2
 1085 242 l 2
 1093 242 1103.33333333 248 1116 260 c 1
 1127.33333333 282 1135 306 1139 332 c 1
EndSplineSet
EndChar

StartChar: ka.imathra
Encoding: 127 -1 121
Width: 1333
Flags: HW
AnchorPoint: "s" 553 -164 basechar 0
LayerCount: 2
Fore
SplineSet
1423 791 m 1
 1147 791 l 1
 1178.33333333 770.333333333 1208.33333333 747 1237 721 c 0
 1257.66666667 701.666666667 1282.33333333 676.333333333 1311 645 c 1
 1364.33333333 575.666666667 1391 511.666666667 1391 453 c 2
 1391 219 l 2
 1391 190.333333333 1385.83333333 164 1375.5 140 c 128
 1365.16666667 116 1349 93.3333333333 1327 72 c 1
 1281.66666667 31.3333333333 1227.66666667 10.6666666667 1165 10 c 2
 606 12 l 2
 538 12 478.666666667 32 428 72 c 1
 378.666666667 116 354 165 354 219 c 2
 354 485 l 2
 354 509.666666667 361.666666667 534.333333333 377 559 c 0
 382.333333333 565.666666667 393.833333333 580.333333333 411.5 603 c 128
 429.166666667 625.666666667 461.333333333 657.833333333 508 699.5 c 128
 554.666666667 741.166666667 588.666666667 772.333333333 610 793 c 1
 293 793 l 1
 293 1026 l 1
 827 1026 l 1
 995 1225 l 1
 995 1511 l 2
 995 1513.66666667 993.666666667 1516.5 991 1519.5 c 128
 988.333333333 1522.5 986.333333333 1524.66666667 985 1526 c 1
 862 1526 l 1
 862 1430 l 1
 870 1415 l 1
 899 1405 l 1
 950 1405 l 1
 950 1174 l 1
 813 1174 l 2
 754.333333333 1174 701.833333333 1192.33333333 655.5 1229 c 128
 609.166666667 1265.66666667 586 1308.66666667 586 1358 c 2
 586 1759 l 1
 1047 1759 l 2
 1111 1759 1164.83333333 1740.66666667 1208.5 1704 c 128
 1252.16666667 1667.33333333 1274 1616.66666667 1274 1552 c 2
 1272 1180 l 1
 1141 1026 l 1
 1423 1026 l 1
 1423 791 l 1
1114 295 m 1
 1114 457 l 2
 1114 506.333333333 1032 593.666666667 868 719 c 1
 708 589 628.333333333 497.333333333 629 444 c 2
 629 268 l 2
 629 258.666666667 634.5 250.166666667 645.5 242.5 c 128
 656.5 234.833333333 668 231 680 231 c 2
 1071 231 l 2
 1080.33333333 231 1089.16666667 237.833333333 1097.5 251.5 c 128
 1105.83333333 265.166666667 1111.33333333 279.666666667 1114 295 c 1
EndSplineSet
LCarets2: 1 0
EndChar

StartChar: ka.sub
Encoding: 128 -1 122
Width: 352
Flags: HW
AnchorPoint: "Sub" -393 594 mark 0
AnchorPoint: "Sub" 623 -823 basemark 0
LayerCount: 2
Fore
SplineSet
733 -315 m 1
 514 -315 l 1
 589.333333333 -373.666666667 627 -428.333333333 627 -479 c 2
 627 -639 l 2
 627 -692.333333333 601.666666667 -740.666666667 551 -784 c 1
 495 -822 435.666666667 -841.333333333 373 -842 c 2
 20 -842 l 1
 -44 -836.666666667 -102.666666667 -812 -156 -768 c 128
 -209.333333333 -724 -236 -672 -236 -612 c 2
 -236 -522 l 2
 -236 -459.333333333 -194.333333333 -389 -111 -311 c 1
 -362 -311 l 1
 -362 -109 l 1
 98 -109 l 1
 231 29 l 1
 332 133 l 1
 344 148.333333333 350 163.333333333 350 178 c 2
 350 438 l 2
 350 473.333333333 303.666666667 509 211 545 c 1
 385 684 l 1
 527 591.333333333 598 516.333333333 598 459 c 2
 598 143 l 2
 598 127.666666667 593.833333333 112.666666667 585.5 98 c 128
 577.166666667 83.3333333333 563.666666667 65 545 43 c 1
 379 -117 l 1
 733 -117 l 1
 733 -315 l 1
381 -584 m 2
 381 -487 l 2
 381 -475 376.833333333 -462.5 368.5 -449.5 c 128
 360.166666667 -436.5 346.666666667 -419.666666667 328 -399 c 1
 296.666666667 -373 249.333333333 -349.333333333 186 -328 c 1
 132.666666667 -344.666666667 91 -370.333333333 61 -405 c 128
 31 -439.666666667 16 -477.333333333 16 -518 c 2
 16 -598 l 2
 16 -613.333333333 21.6666666667 -626.333333333 33 -637 c 1
 53.6666666667 -649 74.6666666667 -655 96 -655 c 2
 328 -655 l 2
 343.333333333 -655 356 -647.666666667 366 -633 c 128
 376 -618.333333333 381 -602 381 -584 c 2
EndSplineSet
LCarets2: 1 0
EndChar

StartChar: ka_rvocalicmatra.sub
Encoding: 129 -1 123
Width: 698
Flags: HW
LayerCount: 2
Fore
SplineSet
1427 -549 m 1
 1427 -631 1400 -699.333333333 1346 -754 c 1
 1292.66666667 -812.666666667 1222.33333333 -842 1135 -842 c 2
 317 -838 l 2
 249 -838 189.666666667 -815 139 -769 c 128
 88.3333333333 -723 63 -670 63 -610 c 2
 63 -227 l 1
 311 -227 l 1
 240 -182 l 1
 200.666666667 -148 180.666666667 -116 180 -86 c 2
 180 104 l 2
 180 158.666666667 214.333333333 213.333333333 283 268 c 1
 94 268 l 1
 94 473 l 1
 510 473 l 1
 510 690 l 1
 784 690 l 1
 784 473 l 1
 1194 473 l 1
 1194 268 l 1
 963 268 l 1
 982.333333333 260 1000 247.666666667 1016 231 c 1
 1026.66666667 215.666666667 1038.33333333 200.666666667 1051 186 c 1
 1067.66666667 160 1075.66666667 134.333333333 1075 109 c 2
 1075 -10 l 2
 1075 -82.6666666667 1047.66666667 -141.333333333 993 -186 c 1
 939.666666667 -239.333333333 875 -266 799 -266 c 2
 633 -266 l 1
 633 -426 l 1
 313 -426 l 1
 313 -580 l 1
 318.333333333 -595.333333333 324 -603.333333333 330 -604 c 1
 352 -619.333333333 370.333333333 -627 385 -627 c 2
 1090 -627 l 2
 1100.66666667 -627 1111.33333333 -614.666666667 1122 -590 c 1
 1137.33333333 -565.333333333 1145 -534 1145 -496 c 2
 1145 49 l 2
 1145 75 1113.66666667 102.333333333 1051 131 c 1
 1237 297 l 1
 1268.33333333 280.333333333 1294.33333333 264.833333333 1315 250.5 c 128
 1335.66666667 236.166666667 1354 219 1370 199 c 1
 1401.33333333 151 1417 103 1417 55 c 2
 1427 -549 l 1
817 18 m 1
 817 109 l 2
 817 124.333333333 814.333333333 140.666666667 809 158 c 128
 803.666666667 175.333333333 794.666666667 190.333333333 782 203 c 1
 765.333333333 230.333333333 736.666666667 251.333333333 696 266 c 1
 539 266 l 1
 505 245.333333333 477.666666667 223 457 199 c 1
 451.666666667 189.666666667 445.833333333 177.666666667 439.5 163 c 128
 433.166666667 148.333333333 430 133 430 117 c 2
 430 -20 l 2
 430 -35.3333333333 434.666666667 -45.6666666667 444 -51 c 2
 471 -68 l 1
 786 -66 l 2
 792.666666667 -66 800.166666667 -58.1666666667 808.5 -42.5 c 128
 816.833333333 -26.8333333333 819.666666667 -6.66666666667 817 18 c 1
EndSplineSet
EndChar

StartChar: kha
Encoding: 130 3222 124
Width: 2009
Flags: HW
LayerCount: 2
Fore
SplineSet
2087 231 m 2
 2087 173.666666667 2071.33333333 120 2040 70 c 1
 1996 20.6666666667 1952.33333333 -4 1909 -4 c 2
 1595 -4 l 2
 1541.66666667 -4 1480.33333333 20.6666666667 1411 70 c 1
 1260 166 l 1
 1249.33333333 141.333333333 1236.66666667 120.5 1222 103.5 c 128
 1207.33333333 86.5 1187.66666667 69.6666666667 1163 53 c 0
 1108.33333333 15 1049 -4 985 -4 c 2
 485 -4 l 1
 460.333333333 -1.33333333333 435.5 4.16666666667 410.5 12.5 c 128
 385.5 20.8333333333 361.666666667 32.8333333333 339 48.5 c 128
 316.333333333 64.1666666667 298.833333333 82.8333333333 286.5 104.5 c 128
 274.166666667 126.166666667 268 148 268 170 c 2
 268 438 l 2
 268 495.333333333 288 543.333333333 328 582 c 1
 373.333333333 616 423 633 477 633 c 2
 901 633 l 2
 954.333333333 633 996 623.333333333 1026 604 c 1
 1026 1073 l 2
 1026 1097.66666667 1020.66666667 1120.33333333 1010 1141 c 1
 1000.66666667 1151.66666667 990.333333333 1157 979 1157 c 2
 713 1157 l 1
 702 1149 l 1
 696.666666667 1138.33333333 694 1118.66666667 694 1090 c 2
 694 864 l 1
 414 864 l 1
 414 1169 l 2
 414 1233 438.333333333 1285.66666667 487 1327 c 1
 527.666666667 1366.33333333 588 1386 668 1386 c 2
 1034 1386 l 2
 1108 1386 1171.66666667 1359.16666667 1225 1305.5 c 128
 1278.33333333 1251.83333333 1305 1188 1305 1114 c 2
 1305 426 l 1
 1499 268 l 1
 1538.33333333 234 1582 217 1630 217 c 2
 1763 217 l 2
 1778.33333333 217 1790 225.5 1798 242.5 c 128
 1806 259.5 1810 280.333333333 1810 305 c 2
 1810 1094 l 2
 1810 1114.66666667 1802.83333333 1129.66666667 1788.5 1139 c 128
 1774.16666667 1148.33333333 1756.33333333 1153 1735 1153 c 2
 1462 1153 l 1
 1462 1382 l 1
 1831 1382 l 2
 1866.33333333 1382 1898.66666667 1377.33333333 1928 1368 c 128
 1957.33333333 1358.66666667 1984.33333333 1341.66666667 2009 1317 c 1
 2062.33333333 1269 2089 1213 2089 1149 c 2
 2087 231 l 2
1018 281 m 1
 1018 338 l 1
 986.666666667 376 934.666666667 395 862 395 c 2
 600 395 l 2
 578 395 561.666666667 392.333333333 551 387 c 1
 537 383 l 1
 537 256 l 1
 542.333333333 245.333333333 546.333333333 239.333333333 549 238 c 0
 561 228.666666667 573.333333333 223.666666667 586 223 c 2
 940 223 l 2
 960.666666667 223 978.333333333 230.666666667 993 246 c 1
 1008.33333333 257.333333333 1016.66666667 269 1018 281 c 1
EndSplineSet
LCarets2: 1 0
EndChar

StartChar: kha.base
Encoding: 131 -1 125
Width: 1662
Flags: HW
LayerCount: 2
Fore
SplineSet
2091 231 m 2
 2091 168.333333333 2072.83333333 113.5 2036.5 66.5 c 128
 2000.16666667 19.5 1957 -4 1907 -4 c 1
 1903 0 l 1
 1593 0 l 2
 1539.66666667 0 1478.33333333 24.6666666667 1409 74 c 1
 1276 154 l 1
 1264 114.666666667 1231.33333333 79.1666666667 1178 47.5 c 128
 1124.66666667 15.8333333333 1061.66666667 0 989 0 c 2
 508 0 l 2
 444 0 388 15.6666666667 340 47 c 1
 318 63.6666666667 300.833333333 82.8333333333 288.5 104.5 c 128
 276.166666667 126.166666667 270 148 270 170 c 2
 270 438 l 2
 270 495.333333333 290.833333333 542.166666667 332.5 578.5 c 128
 374.166666667 614.833333333 427.333333333 633 492 633 c 2
 903 633 l 2
 956.333333333 633 998 623.333333333 1028 604 c 1
 1028 1102 l 2
 1028 1117.33333333 1023.16666667 1130.33333333 1013.5 1141 c 128
 1003.83333333 1151.66666667 991.666666667 1157 977 1157 c 2
 743 1157 l 2
 727.666666667 1157 715.666666667 1153.66666667 707 1147 c 1
 697.666666667 1131.66666667 692.666666667 1113.33333333 692 1092 c 2
 692 866 l 1
 416 866 l 1
 416 1171 l 2
 416 1235 440.333333333 1287.66666667 489 1329 c 1
 509.666666667 1348.33333333 536 1363.16666667 568 1373.5 c 128
 600 1383.83333333 633.333333333 1389 668 1389 c 2
 1036 1389 l 2
 1110 1389 1173.33333333 1362.33333333 1226 1309 c 128
 1278.66666667 1255.66666667 1305 1190.66666667 1305 1114 c 2
 1305 424 l 1
 1499 299 l 1
 1557.66666667 245.666666667 1602 219 1632 219 c 2
 1798 219 l 2
 1808.66666667 219 1814.33333333 226.666666667 1815 242 c 2
 1815 948 l 2
 1815 1010.66666667 1793 1059.33333333 1749 1094 c 1
 1703.66666667 1133.33333333 1651 1153 1591 1153 c 2
 1468 1153 l 1
 1468 1382 l 1
 1729 1382 l 1
 1801.66666667 1372.66666667 1866.33333333 1347.66666667 1923 1307 c 1
 1977.66666667 1261.66666667 2020 1210.33333333 2050 1153 c 1
 2065.33333333 1115 2076.66666667 1081.66666667 2084 1053 c 128
 2091.33333333 1024.33333333 2095 990 2095 950 c 2
 2091 231 l 2
1024 283 m 1
 1024 322 l 1
 966.666666667 371.333333333 901 395.666666667 827 395 c 2
 573 395 l 2
 562.333333333 395 554.333333333 393.666666667 549 391 c 1
 545 383 l 1
 545 256 l 1
 547.666666667 245.333333333 550.333333333 239.333333333 553 238 c 0
 565 228.666666667 577.333333333 223.666666667 590 223 c 2
 944 223 l 2
 960.666666667 223 977.5 229.166666667 994.5 241.5 c 128
 1011.5 253.833333333 1021.33333333 267.666666667 1024 283 c 1
EndSplineSet
EndChar

StartChar: kha.imathra
Encoding: 132 -1 126
Width: 2009
Flags: HW
LayerCount: 2
Fore
SplineSet
2091 233 m 2
 2091 169 2072.83333333 113.5 2036.5 66.5 c 128
 2000.16666667 19.5 1957 -4 1907 -4 c 1
 1903 0 l 1
 1593 0 l 2
 1539.66666667 0 1478.33333333 24.6666666667 1409 74 c 1
 1257 168 l 1
 1237.66666667 122.666666667 1209 85 1171 55 c 1
 1116.33333333 19.6666666667 1062 2 1008 2 c 2
 508 2 l 2
 444 2 388 17.6666666667 340 49 c 1
 318 65.6666666667 300.833333333 84.8333333333 288.5 106.5 c 128
 276.166666667 128.166666667 270 150 270 172 c 2
 270 444 l 2
 270 501.333333333 292 548 336 584 c 1
 374 619.333333333 426.666666667 637 494 637 c 2
 905 637 l 2
 945.666666667 637 986.666666667 619.333333333 1028 584 c 1
 1028 1081 l 2
 1028 1103 1020.66666667 1123.66666667 1006 1143 c 0
 999.333333333 1149.66666667 991.833333333 1154.66666667 983.5 1158 c 128
 975.166666667 1161.33333333 965.333333333 1163 954 1163 c 2
 745 1163 l 2
 734.333333333 1163 723 1158.33333333 711 1149 c 1
 701.666666667 1133.66666667 696.666666667 1116 696 1096 c 2
 696 866 l 1
 420 866 l 1
 420 1176 l 2
 420 1242.66666667 444.666666667 1295 494 1333 c 1
 516 1355 542.666666667 1370.83333333 574 1380.5 c 128
 605.333333333 1390.16666667 638 1395 672 1395 c 2
 1040 1395 l 2
 1114 1395 1177.33333333 1368.33333333 1230 1315 c 128
 1282.66666667 1261.66666667 1309 1196 1309 1118 c 2
 1309 432 l 1
 1470 301 l 1
 1556 247.666666667 1631.33333333 221 1696 221 c 2
 1769 221 l 2
 1781 221 1792 226.166666667 1802 236.5 c 128
 1812 246.833333333 1817 258 1817 270 c 2
 1817 1278 l 2
 1817 1298.66666667 1812.83333333 1315.16666667 1804.5 1327.5 c 128
 1796.16666667 1339.83333333 1784.33333333 1346 1769 1346 c 2
 1696 1346 l 2
 1679.33333333 1346 1668.33333333 1345 1663 1343 c 1
 1661 1333 l 1
 1659 1294 l 1
 1661.66666667 1269.33333333 1665.66666667 1254 1671 1248 c 128
 1676.33333333 1242 1680.83333333 1237.66666667 1684.5 1235 c 128
 1688.16666667 1232.33333333 1691.33333333 1231 1694 1231 c 2
 1804 1231 l 1
 1804 999 l 1
 1589 999 l 2
 1531.66666667 999 1482.66666667 1021 1442 1065 c 1
 1401.33333333 1104.33333333 1380.66666667 1153.33333333 1380 1212 c 2
 1380 1401 l 2
 1380 1454.33333333 1404 1498 1452 1532 c 128
 1500 1566 1557.33333333 1583 1624 1583 c 2
 1858 1583 l 2
 1924.66666667 1583 1981.16666667 1559.16666667 2027.5 1511.5 c 128
 2073.83333333 1463.83333333 2097 1405 2097 1335 c 2
 2091 233 l 2
1026 285 m 1
 1026 315 l 1
 959.333333333 369.666666667 898.666666667 397 844 397 c 2
 596 397 l 2
 574 397 559.666666667 395.666666667 553 393 c 1
 549 385 l 1
 549 274 l 1
 557 238 l 1
 571 223 l 1
 954 223 l 2
 969.333333333 223 985.833333333 229.5 1003.5 242.5 c 128
 1021.16666667 255.5 1028.66666667 269.666666667 1026 285 c 1
EndSplineSet
LCarets2: 1 0
EndChar

StartChar: kha.sub
Encoding: 133 -1 127
Width: 333
Flags: HW
AnchorPoint: "Sub" -621 592 mark 0
AnchorPoint: "Sub" 674 -821 basemark 0
LayerCount: 2
Fore
SplineSet
682 -475 m 2
 682 -514.333333333 674.166666667 -552.5 658.5 -589.5 c 128
 642.833333333 -626.5 620.666666667 -659.333333333 592 -688 c 0
 529.333333333 -750.666666667 454.333333333 -782 367 -782 c 2
 225 -782 l 2
 200.333333333 -782 146.333333333 -767.666666667 63 -739 c 1
 -29.6666666667 -803 -103.333333333 -835.333333333 -158 -836 c 2
 -467 -836 l 2
 -493 -836 -519.333333333 -831.166666667 -546 -821.5 c 128
 -572.666666667 -811.833333333 -596 -799.333333333 -616 -784 c 0
 -656.666666667 -752.666666667 -677.333333333 -712.666666667 -678 -664 c 2
 -678 -545 l 2
 -678 -491.666666667 -657.333333333 -445.333333333 -616 -406 c 0
 -596.666666667 -386.666666667 -574.833333333 -372.833333333 -550.5 -364.5 c 128
 -526.166666667 -356.166666667 -498.333333333 -352 -467 -352 c 2
 -233 -352 l 2
 -203 -352 -182 -357 -170 -367 c 2
 -59 -438 l 1
 -59 -313 l 2
 -59 -288.333333333 -67.3333333333 -266 -84 -246 c 1
 -104.666666667 -229.333333333 -125.666666667 -221 -147 -221 c 1
 -147 -326 l 1
 -393 -326 l 1
 -393 -27 l 1
 -92 -27 l 2
 -8.66666666667 -27 60 -56 114 -114 c 128
 168 -172 195 -239 195 -315 c 2
 195 -578 l 1
 214.333333333 -588.666666667 233.333333333 -594 252 -594 c 2
 369 -594 l 2
 388.333333333 -594 402.666666667 -583.666666667 412 -563 c 1
 428.666666667 -533 436.666666667 -502.333333333 436 -471 c 2
 436 375 l 2
 436 391.666666667 426.166666667 407.666666667 406.5 423 c 128
 386.833333333 438.333333333 357.666666667 446 319 446 c 2
 182 446 l 1
 182 659 l 1
 338 659 l 2
 429.333333333 659 510 634.666666667 580 586 c 1
 648 528.666666667 682 463 682 389 c 2
 682 -475 l 2
-145 -633 m 1
 -198.333333333 -595 -249.666666667 -575.666666667 -299 -575 c 2
 -428 -575 l 2
 -433.333333333 -575 -437.666666667 -575.5 -441 -576.5 c 128
 -444.333333333 -577.5 -447 -578.666666667 -449 -580 c 1
 -449 -645 l 1
 -426 -649 l 1
 -188 -649 l 1
 -145 -633 l 1
EndSplineSet
LCarets2: 1 0
EndChar

StartChar: ga.base
Encoding: 135 -1 129
Width: 1183
Flags: HW
LayerCount: 2
Fore
SplineSet
1614 0 m 1
 1339 0 l 1
 1339 987 l 2
 1339 1002.33333333 1336.33333333 1016.83333333 1331 1030.5 c 128
 1325.66666667 1044.16666667 1318.33333333 1058.33333333 1309 1073 c 0
 1288.33333333 1101.66666667 1261 1124.33333333 1227 1141 c 0
 1207.66666667 1150.33333333 1190.5 1155.66666667 1175.5 1157 c 128
 1160.5 1158.33333333 1140 1159 1114 1159 c 2
 895 1159 l 2
 835 1159 785.5 1142.33333333 746.5 1109 c 128
 707.5 1075.66666667 688 1033.66666667 688 983 c 2
 688 -4 l 1
 408 -4 l 1
 408 995 l 2
 408 1055 433 1109.66666667 483 1159 c 1
 408 1159 l 1
 408 1391 l 1
 1251 1391 l 1
 1359 1369 1448 1319.66666667 1518 1243 c 1
 1584.66666667 1161 1618 1074.33333333 1618 983 c 2
 1614 0 l 1
EndSplineSet
EndChar

StartChar: ga.imathra
Encoding: 136 -1 130
Width: 1566
Flags: HW
LayerCount: 2
Fore
SplineSet
1645 0 m 1
 1368 0 l 1
 1368 997 l 2
 1368 1046.33333333 1353.33333333 1088.16666667 1324 1122.5 c 128
 1294.66666667 1156.83333333 1257.33333333 1174 1212 1174 c 2
 831 1174 l 2
 785.666666667 1174 751 1158.66666667 727 1128 c 1
 698.333333333 1098 684 1058.66666667 684 1010 c 2
 684 2 l 1
 403 2 l 1
 403 999 l 2
 403 1074.33333333 420.333333333 1136.66666667 455 1186 c 1
 477 1226.66666667 507.666666667 1261.33333333 547 1290 c 1
 511.666666667 1302 481 1323.33333333 455 1354 c 1
 438.333333333 1370.66666667 426 1389.83333333 418 1411.5 c 128
 410 1433.16666667 406 1456.33333333 406 1481 c 2
 406 1618 l 2
 406 1671.33333333 429.666666667 1717.66666667 477 1757 c 1
 523.666666667 1792.33333333 580.333333333 1810 647 1810 c 2
 1038 1810 l 2
 1150 1810 1251.83333333 1782 1343.5 1726 c 128
 1435.16666667 1670 1509.66666667 1591.66666667 1567 1491 c 1
 1620.33333333 1384.33333333 1647 1275 1647 1163 c 2
 1645 0 l 1
1346 1358 m 1
 1324 1411.33333333 1287.66666667 1457.66666667 1237 1497 c 1
 1160.33333333 1550.33333333 1071.66666667 1577 971 1577 c 2
 766 1577 l 2
 732 1577 710.166666667 1575.66666667 700.5 1573 c 128
 690.833333333 1570.33333333 686 1561.33333333 686 1546 c 2
 686 1481 l 2
 686 1456.33333333 689.833333333 1437.5 697.5 1424.5 c 128
 705.166666667 1411.5 711.666666667 1404.33333333 717 1403 c 1
 1214 1403 l 2
 1268 1403 1312 1388 1346 1358 c 1
EndSplineSet
LCarets2: 1 0
EndChar

